{
.appVersion = "3151";
.formatVersion = 3;
axes = (
{
name = Weight;
tag = wght;
},
{
name = Width;
tag = wdth;
},
{
name = Slant;
tag = slnt;
}
);
classes = (
{
code = "zero one two three four five six seven eight nine ";
name = Num;
},
{
code = "zero.canadian one.canadian two.canadian three.canadian four.canadian five.canadian six.canadian seven.canadian eight.canadian nine.canadian 
";
name = Num_can;
},
{

glyphs = (
{
glyphname = idotless;
lastChange = "2023-01-13 15:57:09 +0000";
layers = (
{
layerId = "9763B71A-4976-465B-BEF0-2F1E1DB14637";
shapes = (
{
closed = 1;
nodes = (
(219,530,l),
(60,530,l),
(60,0,l),
(219,0,l)
);
}
);
width = 279;
}
);
note = dotlessi;
unicode = 305;
},
{
glyphname = "acuteFinal-canadian";
lastChange = "2023-01-13 15:57:09 +0000";
layers = (
{
layerId = "9763B71A-4976-465B-BEF0-2F1E1DB14637";
shapes = (
{
closed = 1;
nodes = (
(149,345,l),
(317,690,l),
(194,690,l),
(26,345,l)
);
}
);
width = 343;
}
);
metricRight = "=|";
note = uni141F;
unicode = 5151;
},
{
glyphname = "graveFinal-canadian";
kernLeft = mwestleft;
kernRight = mwestright;
lastChange = "2023-01-13 15:57:09 +0000";
layers = (
{
layerId = "9763B71A-4976-465B-BEF0-2F1E1DB14637";
shapes = (
{
closed = 1;
nodes = (
(317,345,l),
(149,690,l),
(26,690,l),
(194,345,l)
);
}
);
width = 343;
}
);
metricLeft = "=|acuteFinal-canadian";
metricRight = "=|acuteFinal-canadian";
note = uni1420;
unicode = 5152;
},
{
glyphname = "ringBottomhalfFinal-canadian";
kernLeft = mwestleft;
kernRight = mwestright;
lastChange = "2023-01-13 15:57:09 +0000";
layers = (
{
layerId = "9763B71A-4976-465B-BEF0-2F1E1DB14637";
shapes = (
{
closed = 1;
nodes = (
(314,339,o),
(376,397,o),
(376,507,cs),
(376,690,l),
(267,690,l),
(267,507,ls),
(267,461,o),
(248,439,o),
(215,439,cs),
(181,439,o),
(162,461,o),
(162,507,cs),
(162,690,l),
(53,690,l),
(53,506,ls),
(53,399,o),
(115,339,o),
(214,339,cs)
);
}
);
width = 429;
}
);
metricLeft = "ai-canadian";
metricRight = "==|ai-canadian";
note = uni1421;
unicode = 5153;
},
{
glyphname = "ringTophalfFinal-canadian";
lastChange = "2023-01-13 15:57:09 +0000";
layers = (
{
layerId = "9763B71A-4976-465B-BEF0-2F1E1DB14637";
shapes = (
{
closed = 1;
nodes = (
(162,345,l),
(162,527,ls),
(162,574,o),
(181,596,o),
(215,596,cs),
(248,596,o),
(267,574,o),
(267,527,cs),
(267,345,l),
(376,345,l),
(376,527,ls),
(376,638,o),
(314,696,o),
(214,696,cs),
(115,696,o),
(53,636,o),
(53,528,cs),
(53,345,l)
);
}
);
width = 429;
}
);
metricLeft = "ai-canadian";
metricRight = "==|ai-canadian";
note = uni1422;
unicode = 5154;
},
{
glyphname = "ringRighthalfFinal-canadian";
kernLeft = mwestleft;
kernRight = mwestright;
lastChange = "2023-01-13 15:57:09 +0000";
layers = (
{
layerId = "9763B71A-4976-465B-BEF0-2F1E1DB14637";
shapes = (
{
closed = 1;
nodes = (
(138,345,ls),
(254,345,o),
(319,411,o),
(319,517,cs),
(319,623,o),
(254,690,o),
(138,690,cs),
(53,690,l),
(53,588,l),
(130,588,ls),
(182,588,o),
(209,563,o),
(209,517,cs),
(209,470,o),
(182,446,o),
(130,446,cs),
(53,446,l),
(53,345,l)
);
}
);
width = 365;
}
);
metricLeft = "=|t-canadian";
metricWidth = "t-canadian";
note = uni1423;
unicode = 5155;
},
{
glyphname = "ringFinal-canadian";
kernLeft = mwestleft;
kernRight = mwestright;
lastChange = "2023-01-13 15:57:09 +0000";
layers = (
{
layerId = "9763B71A-4976-465B-BEF0-2F1E1DB14637";
shapes = (
{
closed = 1;
nodes = (
(322,356,o),
(394,429,o),
(394,526,cs),
(394,623,o),
(321,696,o),
(220,696,cs),
(121,696,o),
(46,624,o),
(46,526,cs),
(46,429,o),
(119,356,o),
(220,356,cs)
);
},
{
closed = 1;
nodes = (
(176,449,o),
(149,483,o),
(149,526,cs),
(149,569,o),
(176,603,o),
(220,603,cs),
(264,603,o),
(293,569,o),
(293,526,cs),
(293,483,o),
(265,449,o),
(220,449,cs)
);
}
);
width = 440;
}
);
note = uni1424;
unicode = 5156;
},
{
glyphname = "doubleacuteFinal-canadian";
lastChange = "2023-01-13 15:57:15 +0000";
layers = (
{
layerId = "9763B71A-4976-465B-BEF0-2F1E1DB14637";
shapes = (
{
closed = 1;
nodes = (
(317,690,l),
(194,690,l),
(26,345,l),
(149,345,l)
);
},
{
closed = 1;
nodes = (
(498,690,l),
(376,690,l),
(208,345,l),
(330,345,l)
);
}
);
width = 524;
}
);
metricLeft = "acuteFinal-canadian";
metricRight = "=|";
note = uni1425;
unicode = 5157;
},
{
glyphname = "doubleshortverticalstrokesFinal-canadian";
kernLeft = mwestleft;
kernRight = mwestright;
lastChange = "2023-01-13 15:57:09 +0000";
layers = (
{
layerId = "9763B71A-4976-465B-BEF0-2F1E1DB14637";
shapes = (
{
closed = 1;
nodes = (
(162,690,l),
(53,690,l),
(53,345,l),
(162,345,l)
);
},
{
closed = 1;
nodes = (
(323,690,l),
(213,690,l),
(213,345,l),
(323,345,l)
);
}
);
width = 376;
}
);
metricLeft = "pWestCree-canadian";
metricRight = "pWestCree-canadian";
note = uni1426;
unicode = 5158;
},
{
glyphname = "middledotFinal-canadian";
lastChange = "2023-01-13 15:57:09 +0000";
layers = (
{
layerId = "9763B71A-4976-465B-BEF0-2F1E1DB14637";
shapes = (
{
closed = 1;
nodes = (
(160,278,o),
(194,312,o),
(194,355,cs),
(194,397,o),
(160,431,o),
(118,431,cs),
(76,431,o),
(43,397,o),
(43,355,cs),
(43,312,o),
(76,278,o),
(118,278,cs)
);
}
);
width = 237;
}
);
note = uni1427;
unicode = 5159;
},
{
glyphname = "shorthorizontalstrokeFinal-canadian";
kernLeft = mwestleft;
kernRight = mwestright;
lastChange = "2023-01-13 15:57:09 +0000";
layers = (
{
layerId = "9763B71A-4976-465B-BEF0-2F1E1DB14637";
shapes = (
{
closed = 1;
nodes = (
(378,471,l),
(378,582,l),
(53,582,l),
(53,471,l)
);
}
);
width = 431;
}
);
metricRight = "=|";
note = uni1428;
unicode = 5160;
},
{
glyphname = "plusFinal-canadian";
kernLeft = mwestleft;
kernRight = mwestright;
lastChange = "2023-01-13 15:57:09 +0000";
layers = (
{
layerId = "9763B71A-4976-465B-BEF0-2F1E1DB14637";
shapes = (
{
closed = 1;
nodes = (
(270,364,l),
(270,476,l),
(378,476,l),
(378,581,l),
(270,581,l),
(270,690,l),
(162,690,l),
(162,581,l),
(53,581,l),
(53,476,l),
(162,476,l),
(162,364,l)
);
}
);
width = 431;
}
);
metricLeft = "shorthorizontalstrokeFinal-canadian";
metricRight = "shorthorizontalstrokeFinal-canadian";
note = uni1429;
unicode = 5161;
},
{
glyphname = "downtackFinal-canadian";
kernLeft = mwestleft;
kernRight = mwestright;
lastChange = "2023-01-13 15:57:09 +0000";
layers = (
{
layerId = "9763B71A-4976-465B-BEF0-2F1E1DB14637";
shapes = (
{
closed = 1;
nodes = (
(270,345,l),
(270,586,l),
(378,586,l),
(378,690,l),
(53,690,l),
(53,586,l),
(161,586,l),
(161,345,l)
);
}
);
width = 431;
}
);
metricLeft = "shorthorizontalstrokeFinal-canadian";
metricRight = "shorthorizontalstrokeFinal-canadian";
note = uni142A;
unicode = 5162;
},
{
glyphname = "thFinalWoodScree-canadian";
lastChange = "2023-01-13 15:57:09 +0000";
layers = (
{
layerId = "9763B71A-4976-465B-BEF0-2F1E1DB14637";
shapes = (
{
closed = 1;
nodes = (
(271,345,l),
(271,400,l),
(378,400,l),
(378,489,l),
(271,489,l),
(271,546,l),
(378,546,l),
(378,635,l),
(271,635,l),
(271,690,l),
(162,690,l),
(162,635,l),
(53,635,l),
(53,546,l),
(162,546,l),
(162,489,l),
(53,489,l),
(53,400,l),
(162,400,l),
(162,345,l)
);
}
);
width = 431;
}
);
metricLeft = "hyphen-canadian";
metricRight = "hyphen-canadian";
note = uni167E;
unicode = 5758;
},
{
glyphname = "ringSmallFinal-canadian";
kernLeft = mwestleft;
kernRight = mwestright;
lastChange = "2023-01-13 15:57:09 +0000";
layers = (
{
layerId = "9763B71A-4976-465B-BEF0-2F1E1DB14637";
shapes = (
{
closed = 1;
nodes = (
(231,482,o),
(286,527,o),
(286,593,cs),
(286,658,o),
(231,704,o),
(168,704,cs),
(106,704,o),
(53,658,o),
(53,593,cs),
(53,527,o),
(106,482,o),
(168,482,cs)
);
},
{
closed = 1;
nodes = (
(142,548,o),
(126,568,o),
(126,593,cs),
(126,617,o),
(144,638,o),
(169,638,cs),
(195,638,o),
(213,617,o),
(213,593,cs),
(213,568,o),
(195,548,o),
(169,548,cs)
);
}
);
width = 339;
}
);
note = g725;
unicode = 6366;
},
{
glyphname = "raiseddotFinal-canadian";
kernLeft = mwestleft;
kernRight = mwestright;
lastChange = "2023-01-13 15:57:09 +0000";
layers = (
{
layerId = "9763B71A-4976-465B-BEF0-2F1E1DB14637";
shapes = (
{
closed = 1;
nodes = (
(160,552,o),
(194,585,o),
(194,628,cs),
(194,669,o),
(160,704,o),
(119,704,cs),
(76,704,o),
(43,669,o),
(43,628,cs),
(43,585,o),
(76,552,o),
(119,552,cs)
);
}
);
width = 237;
}
);
note = g725;
unicode = 6367;
},
{
glyphname = "plusFinal-canadian.base";
lastChange = "2023-01-13 15:57:09 +0000";
layers = (
{
layerId = "9763B71A-4976-465B-BEF0-2F1E1DB14637";
shapes = (
{
closed = 1;
nodes = (
(270,0,l),
(270,112,l),
(378,112,l),
(378,216,l),
(270,216,l),
(270,326,l),
(162,326,l),
(162,216,l),
(53,216,l),
(53,112,l),
(162,112,l),
(162,0,l)
);
}
);
width = 431;
}
);
metricLeft = "shorthorizontalstrokeFinal-canadian";
metricRight = "shorthorizontalstrokeFinal-canadian";
note = uni1429;
},
{
glyphname = "e-canadian";
kernLeft = ecanleft;
kernRight = ecanright;
lastChange = "2023-01-13 15:57:09 +0000";
layers = (
{
anchors = (
{
name = middle_center_can;
pos = (365,454);
},
{
name = top_center_can;
pos = (365,690);
},
{
name = top_left_can;
pos = (140,690);
},
{
name = top_right_can;
pos = (590,690);
}
);
layerId = "9763B71A-4976-465B-BEF0-2F1E1DB14637";
shapes = (
{
closed = 1;
nodes = (
(388,0,l),
(706,651,l),
(706,690,l),
(24,690,l),
(24,651,l),
(341,0,l)
);
},
{
closed = 1;
nodes = (
(393,202,l),
(209,593,l),
(185,561,l),
(543,561,l),
(526,593,l),
(342,202,l)
);
}
);
width = 730;
}
);
metricRight = "=|";
note = uni1401;
unicode = 5121;
},
{
glyphname = "i-canadian";
kernLeft = icanleft;
kernRight = icanright;
lastChange = "2023-01-13 15:57:09 +0000";
layers = (
{
anchors = (
{
name = middle_center_can;
pos = (365,266);
},
{
name = top_center_can;
pos = (365,690);
},
{
name = top_left_can;
pos = (140,690);
},
{
name = top_right_can;
pos = (589,690);
}
);
layerId = "9763B71A-4976-465B-BEF0-2F1E1DB14637";
shapes = (
{
closed = 1;
nodes = (
(706,0,l),
(706,39,l),
(388,690,l),
(341,690,l),
(24,39,l),
(24,0,l)
);
},
{
closed = 1;
nodes = (
(388,488,l),
(337,488,l),
(522,97,l),
(543,128,l),
(185,128,l),
(203,97,l)
);
}
);
width = 730;
}
);
metricLeft = "e-canadian";
metricWidth = "e-canadian";
note = uni1403;
unicode = 5123;
},
{
glyphname = "o-canadian";
kernLeft = ocanleft;
kernRight = ocanright;
lastChange = "2023-01-13 15:57:09 +0000";
layers = (
{
anchors = (
{
name = middle_center_can;
pos = (268,345);
},
{
name = top_center_can;
pos = (349,690);
},
{
name = top_double;
pos = (459,690);
},
{
name = top_left_can;
pos = (128,690);
},
{
name = top_right_can;
pos = (579,690);
}
);
layerId = "9763B71A-4976-465B-BEF0-2F1E1DB14637";
shapes = (
{
closed = 1;
nodes = (
(100,0,l),
(639,321,l),
(639,369,l),
(100,690,l),
(63,690,l),
(63,0,l)
);
},
{
closed = 1;
nodes = (
(198,514,l),
(159,506,l),
(465,325,l),
(465,368,l),
(159,187,l),
(198,178,l)
);
}
);
width = 667;
}
);
metricLeft = "nunavuth-canadian";
note = uni1405;
unicode = 5125;
},
{
glyphname = "eeCarrier-canadian";
lastChange = "2023-01-13 15:57:09 +0000";
layers = (
{
layerId = "9763B71A-4976-465B-BEF0-2F1E1DB14637";
shapes = (
{
closed = 1;
nodes = (
(100,0,l),
(639,321,l),
(639,369,l),
(100,690,l),
(63,690,l),
(63,0,l)
);
},
{
closed = 1;
nodes = (
(193,514,l),
(159,510,l),
(465,329,l),
(465,364,l),
(159,184,l),
(193,178,l)
);
},
{
closed = 1;
nodes = (
(291,406,l),
(240,406,l),
(240,284,l),
(291,284,l)
);
}
);
width = 667;
}
);
metricLeft = "nunavuth-canadian";
metricRight = "o-canadian";
note = uni1408;
unicode = 5128;
},
{
glyphname = "a-canadian";
kernLeft = acanleft;
kernRight = acanright;
lastChange = "2023-01-13 15:57:09 +0000";
layers = (
{
anchors = (
{
name = middle_center_can;
pos = (398,345);
},
{
name = top_center_can;
pos = (305,690);
},
{
name = top_left_can;
pos = (99,690);
},
{
name = top_right_can;
pos = (536,690);
}
);
layerId = "9763B71A-4976-465B-BEF0-2F1E1DB14637";
shapes = (
{
closed = 1;
nodes = (
(605,0,l),
(605,690,l),
(567,690,l),
(28,369,l),
(28,321,l),
(567,0,l)
);
},
{
closed = 1;
nodes = (
(507,186,l),
(203,367,l),
(203,324,l),
(507,504,l),
(469,514,l),
(469,178,l)
);
}
);
width = 668;
}
);
metricRight = "nunavuth-canadian";
note = uni140A;
unicode = 5130;
},
{
glyphname = "ai-canadian";
lastChange = "2023-01-13 15:57:15 +0000";
layers = (
{
layerId = "9763B71A-4976-465B-BEF0-2F1E1DB14637";
shapes = (
{
closed = 1;
nodes = (
(257,339,o),
(295,360,o),
(322,409,c),
(289,409,l),
(314,360,o),
(355,339,o),
(409,339,cs),
(500,339,o),
(556,397,o),
(556,498,cs),
(556,690,l),
(454,690,l),
(454,499,ls),
(454,453,o),
(438,433,o),
(405,433,cs),
(373,433,o),
(355,454,o),
(355,499,cs),
(355,690,l),
(254,690,l),
(254,499,ls),
(254,453,o),
(237,433,o),
(204,433,cs),
(172,433,o),
(156,455,o),
(156,499,cs),
(156,690,l),
(53,690,l),
(53,498,ls),
(53,395,o),
(111,339,o),
(202,339,cs)
);
}
);
width = 609;
}
);
metricRight = "=|";
note = uni141C;
unicode = 5148;
},
{
glyphname = "ycreew-canadian";
lastChange = "2023-01-13 15:57:09 +0000";
layers = (
{
layerId = "9763B71A-4976-465B-BEF0-2F1E1DB14637";
shapes = (
{
closed = 1;
nodes = (
(340,510,o),
(376,548,o),
(376,604,cs),
(376,659,o),
(339,696,o),
(290,696,cs),
(240,696,o),
(203,659,o),
(203,604,cs),
(203,548,o),
(239,510,o),
(290,510,cs)
);
},
{
closed = 1;
nodes = (
(185,339,o),
(221,377,o),
(221,433,cs),
(221,488,o),
(185,525,o),
(134,525,cs),
(85,525,o),
(48,488,o),
(48,433,cs),
(48,377,o),
(84,339,o),
(134,339,cs)
);
},
{
closed = 1;
nodes = (
(115,389,o),
(101,406,o),
(101,433,cs),
(101,459,o),
(115,474,o),
(134,474,cs),
(154,474,o),
(167,459,o),
(167,433,cs),
(167,406,o),
(154,389,o),
(134,389,cs)
);
},
{
closed = 1;
nodes = (
(270,560,o),
(257,577,o),
(257,604,cs),
(257,630,o),
(270,645,o),
(290,645,cs),
(309,645,o),
(322,630,o),
(322,604,cs),
(322,577,o),
(309,560,o),
(290,560,cs)
);
}
);
width = 424;
}
);
metricRight = "=|";
note = uni141D;
unicode = 5149;
},
{
glyphname = "glottalstop-canadian";
lastChange = "2023-01-13 15:57:15 +0000";
layers = (
{
layerId = "9763B71A-4976-465B-BEF0-2F1E1DB14637";
shapes = (
{
closed = 1;
nodes = (
(381,345,l),
(381,365,l),
(222,690,l),
(198,690,l),
(40,365,l),
(40,345,l)
);
},
{
closed = 1;
nodes = (
(233,585,l),
(186,585,l),
(276,393,l),
(297,424,l),
(125,424,l),
(142,393,l)
);
}
);
width = 421;
}
);
metricRight = "=|";
note = uni141E;
unicode = 5150;
},
{
glyphname = "pe-canadian";
kernLeft = ecanleft;
kernRight = ecanright;
lastChange = "2023-01-13 15:57:09 +0000";
layers = (
{
anchors = (
{
name = middle_center_can;
pos = (365,454);
},
{
name = top_center_can;
pos = (365,690);
},
{
name = top_left_can;
pos = (140,690);
},
{
name = top_right_can;
pos = (590,690);
}
);
layerId = "9763B71A-4976-465B-BEF0-2F1E1DB14637";
shapes = (
{
closed = 1;
nodes = (
(388,0,l),
(706,651,l),
(706,690,l),
(557,690,l),
(325,196,l),
(412,196,l),
(181,690,l),
(24,690,l),
(24,651,l),
(341,0,l)
);
}
);
width = 730;
}
);
metricLeft = "e-canadian";
metricRight = "e-canadian";
note = uni142F;
unicode = 5167;
},
{
glyphname = "pi-canadian";
kernLeft = icanleft;
kernRight = icanright;
lastChange = "2023-01-13 15:57:09 +0000";
layers = (
{
anchors = (
{
name = middle_center_can;
pos = (364,266);
},
{
name = top_center_can;
pos = (365,690);
},
{
name = top_left_can;
pos = (139,690);
},
{
name = top_right_can;
pos = (590,690);
}
);
layerId = "9763B71A-4976-465B-BEF0-2F1E1DB14637";
shapes = (
{
closed = 1;
nodes = (
(175,0,l),
(410,494,l),
(321,494,l),
(552,0,l),
(706,0,l),
(706,39,l),
(388,690,l),
(341,690,l),
(24,39,l),
(24,0,l)
);
}
);
width = 730;
}
);
metricLeft = "e-canadian";
metricRight = "e-canadian";
note = uni1431;
unicode = 5169;
},
{
glyphname = "po-canadian";
kernLeft = ocanleft;
kernRight = ocanright;
lastChange = "2023-01-13 15:57:15 +0000";
layers = (
{
anchors = (
{
name = middle_center_can;
pos = (170,345);
},
{
name = top_center_can;
pos = (327,690);
},
{
name = top_double;
pos = (443,690);
},
{
name = top_left_can;
pos = (110,690);
},
{
name = top_right_can;
pos = (556,690);
}
);
layerId = "9763B71A-4976-465B-BEF0-2F1E1DB14637";
shapes = (
{
closed = 1;
nodes = (
(79,0,l),
(617,321,l),
(617,369,l),
(79,690,l),
(42,690,l),
(42,539,l),
(430,310,l),
(430,382,l),
(42,153,l),
(42,0,l)
);
}
);
width = 645;
}
);
metricRight = "o-canadian";
note = uni1433;
unicode = 5171;
},
{
glyphname = "pa-canadian";
kernLeft = acanleft;
kernRight = acanright;
lastChange = "2023-01-13 15:57:15 +0000";
layers = (
{
anchors = (
{
name = middle_center_can;
pos = (399,345);
},
{
name = top_center_can;
pos = (319,690);
},
{
name = top_left_can;
pos = (99,690);
},
{
name = top_right_can;
pos = (534,690);
}
);
layerId = "9763B71A-4976-465B-BEF0-2F1E1DB14637";
shapes = (
{
closed = 1;
nodes = (
(604,0,l),
(604,151,l),
(215,380,l),
(215,308,l),
(604,537,l),
(604,690,l),
(565,690,l),
(28,369,l),
(28,321,l),
(565,0,l)
);
}
);
width = 646;
}
);
metricRight = "=|po-canadian";
note = uni1438;
unicode = 5176;
},
{
glyphname = "p-canadian";
kernLeft = mwestleft;
kernRight = mwestright;
lastChange = "2023-01-13 15:57:09 +0000";
layers = (
{
layerId = "9763B71A-4976-465B-BEF0-2F1E1DB14637";
shapes = (
{
closed = 1;
nodes = (
(339,345,l),
(339,445,l),
(148,559,l),
(148,475,l),
(339,588,l),
(339,690,l),
(320,690,l),
(53,530,l),
(53,505,l),
(320,345,l)
);
}
);
width = 392;
}
);
note = uni1449;
unicode = 5193;
},
{
glyphname = "pWestCree-canadian";
kernLeft = mwestleft;
kernRight = mwestright;
lastChange = "2023-01-13 15:57:09 +0000";
layers = (
{
layerId = "9763B71A-4976-465B-BEF0-2F1E1DB14637";
shapes = (
{
closed = 1;
nodes = (
(162,345,l),
(162,690,l),
(53,690,l),
(53,345,l)
);
}
);
width = 215;
}
);
metricRight = "=|";
note = uni144A;
unicode = 5194;
},
{
color = 6;
glyphname = "hCarrier-canadian";
lastChange = "2023-01-13 15:57:09 +0000";
layers = (
{
layerId = "9763B71A-4976-465B-BEF0-2F1E1DB14637";
shapes = (
{
closed = 1;
nodes = (
(162,183,l),
(162,287,ls),
(162,320,o),
(178,338,o),
(205,338,cs),
(229,338,o),
(242,321,o),
(242,287,cs),
(242,183,l),
(351,183,l),
(351,307,ls),
(351,399,o),
(290,437,o),
(230,437,cs),
(184,437,o),
(147,412,o),
(139,384,c),
(162,363,l),
(162,527,l),
(53,527,l),
(53,183,l)
);
}
);
width = 384;
}
);
metricLeft = "pWestCree-canadian";
note = uni144B;
unicode = 5195;
},
{
glyphname = "te-canadian";
lastChange = "2023-01-13 15:57:09 +0000";
layers = (
{
anchors = (
{
name = middle_center_can;
pos = (362,345);
},
{
name = top_center_can;
pos = (362,690);
},
{
name = top_left_can;
pos = (136,690);
},
{
name = top_right_can;
pos = (590,690);
}
);
layerId = "9763B71A-4976-465B-BEF0-2F1E1DB14637";
shapes = (
{
closed = 1;
nodes = (
(556,-14,o),
(669,104,o),
(669,309,cs),
(669,690,l),
(509,690,l),
(509,309,ls),
(509,188,o),
(459,130,o),
(362,130,cs),
(269,130,o),
(216,192,o),
(216,309,cs),
(216,690,l),
(56,690,l),
(56,308,ls),
(56,102,o),
(169,-14,o),
(363,-14,cs)
);
}
);
width = 725;
}
);
metricRight = "=|";
note = uni144C;
unicode = 5196;
},
{
glyphname = "ti-canadian";
lastChange = "2023-01-13 15:57:09 +0000";
layers = (
{
anchors = (
{
name = middle_center_can;
pos = (362,345);
},
{
name = middle_right_can;
pos = (815,345);
},
{
name = top_center_can;
pos = (362,690);
},
{
name = top_left_can;
pos = (136,690);
},
{
name = top_right_can;
pos = (590,690);
}
);
layerId = "9763B71A-4976-465B-BEF0-2F1E1DB14637";
shapes = (
{
closed = 1;
nodes = (
(216,0,l),
(216,381,ls),
(216,498,o),
(271,559,o),
(365,559,cs),
(458,559,o),
(509,497,o),
(509,381,cs),
(509,0,l),
(669,0,l),
(669,382,ls),
(669,586,o),
(557,704,o),
(368,704,cs),
(175,704,o),
(56,586,o),
(56,382,cs),
(56,0,l)
);
}
);
width = 725;
}
);
metricLeft = "te-canadian";
metricRight = "te-canadian";
note = uni144E;
unicode = 5198;
},
{
glyphname = "to-canadian";
kernLeft = toleft;
lastChange = "2023-01-13 15:57:09 +0000";
layers = (
{
anchors = (
{
name = middle_center_can;
pos = (228,345);
},
{
name = middle_right_can;
pos = (713,345);
},
{
name = top_center_can;
pos = (281,690);
},
{
name = top_double;
pos = (374,690);
},
{
name = top_left_can;
pos = (117,690);
},
{
name = top_right_can;
pos = (498,690);
}
);
layerId = "9763B71A-4976-465B-BEF0-2F1E1DB14637";
shapes = (
{
closed = 1;
nodes = (
(217,0,ls),
(439,0,o),
(567,125,o),
(567,346,cs),
(567,567,o),
(439,690,o),
(217,690,cs),
(47,690,l),
(47,546,l),
(210,546,ls),
(333,546,o),
(407,482,o),
(407,346,cs),
(407,210,o),
(333,144,o),
(211,144,cs),
(47,144,l),
(47,0,l)
);
}
);
width = 617;
}
);
note = uni1450;
unicode = 5200;
},
{
glyphname = "ta-canadian";
kernRight = taright;
lastChange = "2023-01-13 15:57:09 +0000";
layers = (
{
anchors = (
{
name = middle_center_can;
pos = (390,345);
},
{
name = top_center_can;
pos = (337,690);
},
{
name = top_left_can;
pos = (120,690);
},
{
name = top_right_can;
pos = (501,690);
}
);
layerId = "9763B71A-4976-465B-BEF0-2F1E1DB14637";
shapes = (
{
closed = 1;
nodes = (
(570,0,l),
(570,144,l),
(408,144,ls),
(284,144,o),
(212,209,o),
(212,345,cs),
(212,481,o),
(284,546,o),
(408,546,cs),
(570,546,l),
(570,690,l),
(401,690,ls),
(180,690,o),
(50,566,o),
(50,345,cs),
(50,124,o),
(180,0,o),
(400,0,cs)
);
}
);
width = 617;
}
);
metricLeft = "=|to-canadian";
metricRight = "=|to-canadian";
note = uni1455;
unicode = 5205;
},
{
glyphname = "t-canadian";
kernLeft = mwestleft;
kernRight = mwestright;
lastChange = "2023-01-13 15:57:09 +0000";
layers = (
{
layerId = "9763B71A-4976-465B-BEF0-2F1E1DB14637";
shapes = (
{
closed = 1;
nodes = (
(312,345,l),
(312,446,l),
(235,446,ls),
(184,446,o),
(156,470,o),
(156,517,cs),
(156,562,o),
(184,588,o),
(235,588,cs),
(312,588,l),
(312,690,l),
(227,690,ls),
(111,690,o),
(46,623,o),
(46,517,cs),
(46,411,o),
(111,345,o),
(227,345,cs)
);
}
);
width = 365;
}
);
note = uni1466;
unicode = 5222;
},
{
glyphname = "ke-canadian";
lastChange = "2023-01-13 15:57:09 +0000";
layers = (
{
anchors = (
{
name = middle_center_can;
pos = (294,441);
},
{
name = top_center_can;
pos = (290,690);
},
{
name = top_left_can;
pos = (121,690);
},
{
name = top_right_can;
pos = (458,690);
}
);
layerId = "9763B71A-4976-465B-BEF0-2F1E1DB14637";
shapes = (
{
closed = 1;
nodes = (
(538,0,l),
(538,435,ls),
(538,602,o),
(446,704,o),
(294,704,cs),
(141,704,o),
(42,601,o),
(42,440,cs),
(42,286,o),
(134,184,o),
(267,184,cs),
(331,184,o),
(380,214,o),
(390,247,c),
(378,260,l),
(378,0,l)
);
},
{
closed = 1;
nodes = (
(236,319,o),
(199,360,o),
(199,443,cs),
(199,527,o),
(233,569,o),
(290,569,cs),
(346,569,o),
(381,527,o),
(381,443,cs),
(381,360,o),
(343,319,o),
(290,319,cs)
);
}
);
width = 594;
}
);
metricRight = "te-canadian";
note = uni146B;
unicode = 5227;
},
{
glyphname = "ki-canadian";
lastChange = "2023-01-13 15:57:15 +0000";
layers = (
{
anchors = (
{
name = middle_center_can;
pos = (308,441);
},
{
name = top_center_can;
pos = (304,690);
},
{
name = top_left_can;
pos = (135,690);
},
{
name = top_right_can;
pos = (473,690);
}
);
layerId = "9763B71A-4976-465B-BEF0-2F1E1DB14637";
shapes = (
{
closed = 1;
nodes = (
(216,0,l),
(216,260,l),
(203,247,l),
(213,214,o),
(262,184,o),
(327,184,cs),
(459,184,o),
(552,287,o),
(552,442,cs),
(552,603,o),
(453,704,o),
(306,704,cs),
(151,704,o),
(56,599,o),
(56,435,cs),
(56,0,l)
);
},
{
closed = 1;
nodes = (
(250,319,o),
(213,360,o),
(213,443,cs),
(213,527,o),
(247,569,o),
(304,569,cs),
(360,569,o),
(395,527,o),
(395,443,cs),
(395,360,o),
(357,319,o),
(304,319,cs)
);
}
);
width = 594;
}
);
metricLeft = "te-canadian";
metricRight = "=|ke-canadian";
note = uni146D;
unicode = 5229;
},
{
glyphname = "ko-canadian";
lastChange = "2023-01-13 15:57:09 +0000";
layers = (
{
anchors = (
{
name = middle_center_can;
pos = (294,277);
},
{
name = top_center_can;
pos = (290,690);
},
{
name = top_double;
pos = (458,690);
},
{
name = top_left_can;
pos = (121,690);
},
{
name = top_right_can;
pos = (458,690);
}
);
layerId = "9763B71A-4976-465B-BEF0-2F1E1DB14637";
shapes = (
{
closed = 1;
nodes = (
(445,-14,o),
(538,88,o),
(538,255,cs),
(538,690,l),
(378,690,l),
(378,430,l),
(390,442,l),
(380,475,o),
(331,506,o),
(269,506,cs),
(134,506,o),
(42,401,o),
(42,243,cs),
(42,86,o),
(136,-14,o),
(290,-14,cs)
);
},
{
closed = 1;
nodes = (
(233,121,o),
(199,162,o),
(199,246,cs),
(199,329,o),
(236,371,o),
(290,371,cs),
(343,371,o),
(381,329,o),
(381,246,cs),
(381,162,o),
(346,121,o),
(290,121,cs)
);
}
);
width = 594;
}
);
metricLeft = "ke-canadian";
metricRight = "te-canadian";
note = uni146F;
unicode = 5231;
},
{
glyphname = "ka-canadian";
lastChange = "2023-01-13 15:57:15 +0000";
layers = (
{
anchors = (
{
name = middle_center_can;
pos = (308,281);
},
{
name = top_center_can;
pos = (304,690);
},
{
name = top_left_can;
pos = (136,690);
},
{
name = top_right_can;
pos = (473,690);
}
);
layerId = "9763B71A-4976-465B-BEF0-2F1E1DB14637";
shapes = (
{
closed = 1;
nodes = (
(451,-14,o),
(552,87,o),
(552,248,cs),
(552,403,o),
(459,506,o),
(330,506,cs),
(265,506,o),
(216,475,o),
(203,442,c),
(216,430,l),
(216,690,l),
(56,690,l),
(56,255,ls),
(56,88,o),
(147,-14,o),
(302,-14,cs)
);
},
{
closed = 1;
nodes = (
(247,121,o),
(213,162,o),
(213,246,cs),
(213,329,o),
(250,371,o),
(304,371,cs),
(357,371,o),
(395,329,o),
(395,246,cs),
(395,162,o),
(360,121,o),
(304,121,cs)
);
}
);
width = 594;
}
);
metricLeft = "te-canadian";
metricRight = "==|ke-canadian";
note = uni1472;
unicode = 5234;
},
{
glyphname = "k-canadian";
kernLeft = mwestleft;
kernRight = mwestright;
lastChange = "2023-01-13 15:57:09 +0000";
layers = (
{
layerId = "9763B71A-4976-465B-BEF0-2F1E1DB14637";
shapes = (
{
closed = 1;
nodes = (
(271,339,o),
(332,386,o),
(332,472,cs),
(332,552,o),
(281,601,o),
(215,601,cs),
(178,601,o),
(149,581,o),
(142,555,c),
(162,554,l),
(162,690,l),
(53,690,l),
(53,475,ls),
(53,394,o),
(106,339,o),
(196,339,cs)
);
},
{
closed = 1;
nodes = (
(170,417,o),
(153,434,o),
(153,469,cs),
(153,506,o),
(171,523,o),
(194,523,cs),
(217,523,o),
(236,506,o),
(236,469,cs),
(236,434,o),
(217,417,o),
(194,417,cs)
);
}
);
width = 376;
}
);
note = uni1483;
unicode = 5251;
},
{
glyphname = "kw-canadian";
kernLeft = mwestleft;
kernRight = mwestright;
lastChange = "2023-01-13 15:57:15 +0000";
layers = (
{
layerId = "9763B71A-4976-465B-BEF0-2F1E1DB14637";
shapes = (
{
closed = 1;
nodes = (
(271,339,o),
(324,394,o),
(324,475,cs),
(324,690,l),
(214,690,l),
(214,554,l),
(236,555,l),
(228,581,o),
(199,601,o),
(161,601,cs),
(96,601,o),
(44,552,o),
(44,472,cs),
(44,386,o),
(105,339,o),
(181,339,cs)
);
},
{
closed = 1;
nodes = (
(159,417,o),
(141,434,o),
(141,469,cs),
(141,506,o),
(159,523,o),
(183,523,cs),
(206,523,o),
(224,506,o),
(224,469,cs),
(224,434,o),
(207,417,o),
(183,417,cs)
);
}
);
width = 377;
}
);
metricLeft = "=|k-canadian";
metricRight = "=|k-canadian";
note = uni1484;
unicode = 5252;
},
{
glyphname = "ce-canadian";
kernLeft = celeft;
lastChange = "2023-01-13 15:57:09 +0000";
layers = (
{
anchors = (
{
name = middle_center_can;
pos = (289,360);
},
{
name = top_center_can;
pos = (289,690);
},
{
name = top_left_can;
pos = (120,690);
},
{
name = top_right_can;
pos = (450,690);
}
);
layerId = "9763B71A-4976-465B-BEF0-2F1E1DB14637";
shapes = (
{
closed = 1;
nodes = (
(530,0,l),
(530,439,ls),
(530,608,o),
(440,704,o),
(289,704,cs),
(134,704,o),
(41,607,o),
(41,438,cs),
(41,380,l),
(199,380,l),
(199,454,ls),
(199,526,o),
(230,565,o),
(285,565,cs),
(339,565,o),
(370,527,o),
(370,453,cs),
(370,0,l)
);
}
);
width = 586;
}
);
metricRight = "te-canadian";
note = uni1489;
unicode = 5257;
},
{
glyphname = "ci-canadian";
kernRight = ciright;
lastChange = "2023-01-13 15:57:15 +0000";
layers = (
{
anchors = (
{
name = middle_center_can;
pos = (294,360);
},
{
name = top_center_can;
pos = (305,690);
},
{
name = top_left_can;
pos = (136,690);
},
{
name = top_right_can;
pos = (467,690);
}
);
layerId = "9763B71A-4976-465B-BEF0-2F1E1DB14637";
shapes = (
{
closed = 1;
nodes = (
(216,0,l),
(216,453,ls),
(216,527,o),
(248,565,o),
(303,565,cs),
(356,565,o),
(386,527,o),
(386,455,cs),
(386,380,l),
(546,380,l),
(546,438,ls),
(546,607,o),
(456,704,o),
(305,704,cs),
(146,704,o),
(56,604,o),
(56,438,cs),
(56,0,l)
);
}
);
width = 587;
}
);
metricLeft = "te-canadian";
metricRight = "=|ce-canadian";
note = uni148B;
unicode = 5259;
},
{
glyphname = "co-canadian";
kernLeft = coleft;
lastChange = "2023-01-13 15:57:09 +0000";
layers = (
{
anchors = (
{
name = middle_center_can;
pos = (289,360);
},
{
name = top_center_can;
pos = (288,690);
},
{
name = top_double;
pos = (450,690);
},
{
name = top_left_can;
pos = (120,690);
},
{
name = top_right_can;
pos = (450,690);
}
);
layerId = "9763B71A-4976-465B-BEF0-2F1E1DB14637";
shapes = (
{
closed = 1;
nodes = (
(440,-14,o),
(530,81,o),
(530,251,cs),
(530,690,l),
(370,690,l),
(370,235,ls),
(370,160,o),
(339,125,o),
(285,125,cs),
(228,125,o),
(199,163,o),
(199,242,cs),
(199,310,l),
(41,310,l),
(41,252,ls),
(41,83,o),
(129,-14,o),
(289,-14,cs)
);
}
);
width = 586;
}
);
metricLeft = "ce-canadian";
metricRight = "te-canadian";
note = uni148D;
unicode = 5261;
},
{
glyphname = "ca-canadian";
kernRight = caright;
lastChange = "2023-01-13 15:57:15 +0000";
layers = (
{
anchors = (
{
name = middle_center_can;
pos = (294,360);
},
{
name = top_center_can;
pos = (305,690);
},
{
name = top_left_can;
pos = (136,690);
},
{
name = top_right_can;
pos = (467,690);
}
);
layerId = "9763B71A-4976-465B-BEF0-2F1E1DB14637";
shapes = (
{
closed = 1;
nodes = (
(454,-14,o),
(546,83,o),
(546,252,cs),
(546,310,l),
(386,310,l),
(386,240,ls),
(386,161,o),
(357,125,o),
(302,125,cs),
(246,125,o),
(216,162,o),
(216,241,cs),
(216,690,l),
(56,690,l),
(56,251,ls),
(56,83,o),
(142,-14,o),
(301,-14,cs)
);
}
);
width = 587;
}
);
metricLeft = "te-canadian";
metricRight = "=|ce-canadian";
note = uni1490;
unicode = 5264;
},
{
glyphname = "c-canadian";
kernLeft = mwestleft;
kernRight = mwestright;
lastChange = "2023-01-13 15:57:09 +0000";
layers = (
{
layerId = "9763B71A-4976-465B-BEF0-2F1E1DB14637";
shapes = (
{
closed = 1;
nodes = (
(281,339,o),
(335,388,o),
(335,471,cs),
(335,491,l),
(233,491,l),
(233,464,ls),
(233,439,o),
(219,423,o),
(196,423,cs),
(174,423,o),
(162,439,o),
(162,466,cs),
(162,690,l),
(53,690,l),
(53,480,ls),
(53,388,o),
(102,339,o),
(196,339,cs)
);
}
);
width = 366;
}
);
note = uni14A1;
unicode = 5281;
},
{
glyphname = "thSayisi-canadian";
lastChange = "2023-01-13 15:57:09 +0000";
layers = (
{
layerId = "9763B71A-4976-465B-BEF0-2F1E1DB14637";
shapes = (
{
closed = 1;
nodes = (
(264,339,o),
(313,388,o),
(313,480,cs),
(313,690,l),
(204,690,l),
(204,466,ls),
(204,439,o),
(192,423,o),
(170,423,cs),
(147,423,o),
(133,439,o),
(133,464,cs),
(133,491,l),
(31,491,l),
(31,471,ls),
(31,388,o),
(85,339,o),
(172,339,cs)
);
}
);
width = 366;
}
);
metricLeft = "=|c-canadian";
metricRight = "=|c-canadian";
note = uni14A2;
unicode = 5282;
},
{
glyphname = "me-canadian";
kernLeft = meleft;
lastChange = "2023-01-13 15:57:09 +0000";
layers = (
{
anchors = (
{
name = middle_center_can;
pos = (183,345);
},
{
name = top_center_can;
pos = (267,690);
},
{
name = top_left_can;
pos = (115,690);
},
{
name = top_right_can;
pos = (410,690);
}
);
layerId = "9763B71A-4976-465B-BEF0-2F1E1DB14637";
shapes = (
{
closed = 1;
nodes = (
(490,0,l),
(490,690,l),
(36,690,l),
(36,546,l),
(329,546,l),
(329,0,l)
);
}
);
width = 553;
}
);
metricRight = "nunavuth-canadian";
note = uni14A3;
unicode = 5283;
},
{
glyphname = "mi-canadian";
kernRight = miright;
lastChange = "2023-01-13 15:57:09 +0000";
layers = (
{
anchors = (
{
name = middle_center_can;
pos = (370,345);
},
{
name = top_center_can;
pos = (290,690);
},
{
name = top_left_can;
pos = (143,690);
},
{
name = top_right_can;
pos = (437,690);
}
);
layerId = "9763B71A-4976-465B-BEF0-2F1E1DB14637";
shapes = (
{
closed = 1;
nodes = (
(223,0,l),
(223,546,l),
(517,546,l),
(517,690,l),
(63,690,l),
(63,0,l)
);
}
);
width = 553;
}
);
metricLeft = "nunavuth-canadian";
metricRight = "=|me-canadian";
note = uni14A5;
unicode = 5285;
},
{
glyphname = "mo-canadian";
kernLeft = moleft;
lastChange = "2023-01-13 15:57:09 +0000";
layers = (
{
anchors = (
{
name = middle_center_can;
pos = (183,345);
},
{
name = top_center_can;
pos = (267,690);
},
{
name = top_double;
pos = (410,690);
},
{
name = top_left_can;
pos = (115,690);
},
{
name = top_right_can;
pos = (410,690);
}
);
layerId = "9763B71A-4976-465B-BEF0-2F1E1DB14637";
shapes = (
{
closed = 1;
nodes = (
(490,0,l),
(490,690,l),
(329,690,l),
(329,144,l),
(36,144,l),
(36,0,l)
);
}
);
width = 553;
}
);
metricLeft = "me-canadian";
metricRight = "nunavuth-canadian";
note = uni14A7;
unicode = 5287;
},
{
glyphname = "ma-canadian";
kernRight = maright;
lastChange = "2023-01-13 15:57:09 +0000";
layers = (
{
anchors = (
{
name = middle_center_can;
pos = (370,345);
},
{
name = top_center_can;
pos = (290,690);
},
{
name = top_left_can;
pos = (143,690);
},
{
name = top_right_can;
pos = (436,690);
}
);
layerId = "9763B71A-4976-465B-BEF0-2F1E1DB14637";
shapes = (
{
closed = 1;
nodes = (
(517,0,l),
(517,144,l),
(223,144,l),
(223,690,l),
(63,690,l),
(63,0,l)
);
}
);
width = 553;
}
);
metricLeft = "nunavuth-canadian";
metricRight = "=|me-canadian";
note = uni14AA;
unicode = 5290;
},
{
glyphname = "m-canadian";
kernLeft = mwestleft;
kernRight = mwestright;
lastChange = "2023-01-13 15:57:09 +0000";
layers = (
{
layerId = "9763B71A-4976-465B-BEF0-2F1E1DB14637";
shapes = (
{
closed = 1;
nodes = (
(299,446,l),
(162,446,l),
(162,690,l),
(53,690,l),
(53,345,l),
(299,345,l)
);
}
);
width = 340;
}
);
metricLeft = "pWestCree-canadian";
note = uni14BB;
unicode = 5307;
},
{
glyphname = "mh-canadian";
kernLeft = mwestleft;
kernRight = mwestright;
lastChange = "2023-01-13 15:57:09 +0000";
layers = (
{
layerId = "9763B71A-4976-465B-BEF0-2F1E1DB14637";
shapes = (
{
closed = 1;
nodes = (
(287,345,l),
(287,690,l),
(178,690,l),
(178,446,l),
(41,446,l),
(41,345,l)
);
}
);
width = 340;
}
);
metricLeft = "=|m-canadian";
metricRight = "=|m-canadian";
note = uni14BD;
unicode = 5309;
},
{
glyphname = "mAthapascan-canadian";
lastChange = "2023-01-13 15:57:09 +0000";
layers = (
{
layerId = "9763B71A-4976-465B-BEF0-2F1E1DB14637";
shapes = (
{
closed = 1;
nodes = (
(309,345,l),
(309,431,l),
(161,431,l),
(162,388,l),
(251,477,ls),
(288,513,o),
(302,551,o),
(302,586,cs),
(302,651,o),
(259,696,o),
(178,696,cs),
(91,696,o),
(43,643,o),
(42,568,c),
(137,568,l),
(137,602,o),
(150,618,o),
(175,618,cs),
(196,618,o),
(207,606,o),
(207,583,cs),
(207,560,o),
(198,543,o),
(170,513,cs),
(54,401,l),
(54,345,l)
);
}
);
width = 351;
}
);
note = uni14BE;
unicode = 5310;
},
{
glyphname = "ne-canadian";
kernLeft = neleft;
lastChange = "2023-01-13 15:57:09 +0000";
layers = (
{
anchors = (
{
name = middle_center_can;
pos = (504,245);
},
{
name = top_center_can;
pos = (487,511);
},
{
name = top_left_can;
pos = (120,511);
},
{
name = top_right_can;
pos = (679,511);
}
);
layerId = "9763B71A-4976-465B-BEF0-2F1E1DB14637";
shapes = (
{
closed = 1;
nodes = (
(653,-14,o),
(757,83,o),
(757,240,cs),
(757,402,o),
(656,492,o),
(485,492,cs),
(41,492,l),
(41,350,l),
(326,350,l),
(303,384,l),
(270,348,o),
(252,288,o),
(252,231,cs),
(252,79,o),
(351,-14,o),
(504,-14,cs)
);
},
{
closed = 1;
nodes = (
(442,121,o),
(410,168,o),
(410,239,cs),
(410,309,o),
(442,356,o),
(503,356,cs),
(565,356,o),
(600,310,o),
(600,239,cs),
(600,167,o),
(565,121,o),
(504,121,cs)
);
}
);
width = 799;
}
);
metricRight = "=|ke-canadian";
note = uni14C0;
unicode = 5312;
},
{
glyphname = "ni-canadian";
kernRight = niright;
lastChange = "2023-01-13 15:57:09 +0000";
layers = (
{
anchors = (
{
name = middle_center_can;
pos = (296,245);
},
{
name = top_center_can;
pos = (315,511);
},
{
name = top_left_can;
pos = (121,511);
},
{
name = top_right_can;
pos = (678,511);
}
);
layerId = "9763B71A-4976-465B-BEF0-2F1E1DB14637";
shapes = (
{
closed = 1;
nodes = (
(448,-14,o),
(546,79,o),
(546,233,cs),
(546,291,o),
(528,350,o),
(496,386,c),
(472,350,l),
(758,350,l),
(758,492,l),
(316,492,ls),
(140,492,o),
(42,390,o),
(42,236,cs),
(42,82,o),
(144,-14,o),
(295,-14,cs)
);
},
{
closed = 1;
nodes = (
(233,121,o),
(199,167,o),
(199,240,cs),
(199,311,o),
(233,357,o),
(295,357,cs),
(355,357,o),
(389,310,o),
(389,240,cs),
(389,168,o),
(355,121,o),
(295,121,cs)
);
}
);
width = 799;
}
);
metricLeft = "ke-canadian";
metricRight = "=|ne-canadian";
note = uni14C2;
unicode = 5314;
},
{
glyphname = "no-canadian";
kernLeft = noleft;
lastChange = "2023-01-13 15:57:09 +0000";
layers = (
{
anchors = (
{
name = middle_center_can;
pos = (503,245);
},
{
name = top_center_can;
pos = (503,511);
},
{
name = top_double;
pos = (504,511);
},
{
name = top_left_can;
pos = (120,511);
},
{
name = top_right_can;
pos = (679,511);
}
);
layerId = "9763B71A-4976-465B-BEF0-2F1E1DB14637";
shapes = (
{
closed = 1;
nodes = (
(491,0,ls),
(658,0,o),
(757,94,o),
(757,252,cs),
(757,409,o),
(656,506,o),
(504,506,cs),
(351,506,o),
(252,411,o),
(252,260,cs),
(252,203,o),
(270,144,o),
(304,107,c),
(326,142,l),
(41,142,l),
(41,0,l)
);
},
{
closed = 1;
nodes = (
(442,134,o),
(410,182,o),
(410,253,cs),
(410,325,o),
(442,371,o),
(504,371,cs),
(565,371,o),
(600,325,o),
(600,253,cs),
(600,181,o),
(565,134,o),
(503,134,cs)
);
}
);
width = 799;
}
);
metricLeft = "ne-canadian";
metricRight = "=|ke-canadian";
note = uni14C4;
unicode = 5316;
},
{
glyphname = "na-canadian";
kernRight = naright;
lastChange = "2023-01-13 15:57:09 +0000";
layers = (
{
anchors = (
{
name = middle_center_can;
pos = (296,245);
},
{
name = top_center_can;
pos = (296,511);
},
{
name = top_double;
pos = (474,511);
},
{
name = top_left_can;
pos = (121,511);
},
{
name = top_right_can;
pos = (678,511);
}
);
layerId = "9763B71A-4976-465B-BEF0-2F1E1DB14637";
shapes = (
{
closed = 1;
nodes = (
(758,0,l),
(758,143,l),
(472,143,l),
(495,105,l),
(528,142,o),
(546,202,o),
(546,259,cs),
(546,412,o),
(448,506,o),
(295,506,cs),
(144,506,o),
(42,409,o),
(42,252,cs),
(42,98,o),
(139,0,o),
(310,0,cs)
);
},
{
closed = 1;
nodes = (
(233,134,o),
(199,181,o),
(199,253,cs),
(199,325,o),
(233,371,o),
(295,371,cs),
(355,371,o),
(389,325,o),
(389,253,cs),
(389,182,o),
(355,134,o),
(295,134,cs)
);
}
);
width = 799;
}
);
metricLeft = "ke-canadian";
metricRight = "=|ne-canadian";
note = uni14C7;
unicode = 5319;
},
{
glyphname = "n-canadian";
kernLeft = mwestleft;
kernRight = mwestright;
lastChange = "2023-01-13 15:57:15 +0000";
layers = (
{
layerId = "9763B71A-4976-465B-BEF0-2F1E1DB14637";
shapes = (
{
closed = 1;
nodes = (
(433,435,l),
(433,536,l),
(276,536,l),
(281,489,l),
(301,499,o),
(320,531,o),
(320,571,cs),
(320,647,o),
(269,696,o),
(183,696,cs),
(99,696,o),
(44,645,o),
(44,565,cs),
(44,488,o),
(97,435,o),
(187,435,cs)
);
},
{
closed = 1;
nodes = (
(158,513,o),
(141,530,o),
(141,565,cs),
(141,601,o),
(158,619,o),
(183,619,cs),
(207,619,o),
(223,601,o),
(223,565,cs),
(223,531,o),
(207,513,o),
(183,513,cs)
);
}
);
width = 473;
}
);
metricLeft = "=|k-canadian";
note = uni14D0;
unicode = 5328;
},
{
glyphname = "nh-canadian";
kernLeft = mwestleft;
kernRight = mwestright;
lastChange = "2023-01-13 15:57:15 +0000";
layers = (
{
layerId = "9763B71A-4976-465B-BEF0-2F1E1DB14637";
shapes = (
{
closed = 1;
nodes = (
(285,435,ls),
(376,435,o),
(428,488,o),
(428,565,cs),
(428,645,o),
(374,696,o),
(290,696,cs),
(204,696,o),
(153,647,o),
(153,571,cs),
(153,531,o),
(171,499,o),
(191,489,c),
(196,536,l),
(40,536,l),
(40,435,l)
);
},
{
closed = 1;
nodes = (
(266,513,o),
(249,531,o),
(249,565,cs),
(249,601,o),
(266,619,o),
(290,619,cs),
(314,619,o),
(331,601,o),
(331,565,cs),
(331,530,o),
(314,513,o),
(290,513,cs)
);
}
);
width = 472;
}
);
metricLeft = "=|n-canadian";
metricRight = "=|n-canadian";
note = uni14D2;
unicode = 5330;
},
{
glyphname = "le-canadian";
kernLeft = neleft;
lastChange = "2023-01-13 15:57:09 +0000";
layers = (
{
anchors = (
{
name = middle_center_can;
pos = (503,245);
},
{
name = top_center_can;
pos = (488,511);
},
{
name = top_left_can;
pos = (120,511);
},
{
name = top_right_can;
pos = (678,511);
}
);
layerId = "9763B71A-4976-465B-BEF0-2F1E1DB14637";
shapes = (
{
closed = 1;
nodes = (
(487,0,ls),
(651,0,o),
(757,90,o),
(757,246,cs),
(757,402,o),
(660,492,o),
(487,492,cs),
(41,492,l),
(41,349,l),
(484,349,ls),
(555,349,o),
(598,313,o),
(598,244,cs),
(598,176,o),
(554,140,o),
(478,140,cs),
(427,140,l),
(427,0,l)
);
}
);
width = 799;
}
);
metricLeft = "ne-canadian";
metricRight = "=|ke-canadian";
note = uni14D3;
unicode = 5331;
},
{
glyphname = "li-canadian";
kernRight = niright;
lastChange = "2023-01-13 15:57:09 +0000";
layers = (
{
anchors = (
{
name = middle_center_can;
pos = (296,245);
},
{
name = top_center_can;
pos = (315,511);
},
{
name = top_left_can;
pos = (121,511);
},
{
name = top_right_can;
pos = (678,511);
}
);
layerId = "9763B71A-4976-465B-BEF0-2F1E1DB14637";
shapes = (
{
closed = 1;
nodes = (
(372,0,l),
(372,140,l),
(319,140,ls),
(242,140,o),
(200,176,o),
(200,243,cs),
(200,310,o),
(240,349,o),
(316,349,cs),
(758,349,l),
(758,492,l),
(311,492,ls),
(146,492,o),
(42,400,o),
(42,244,cs),
(42,90,o),
(146,0,o),
(312,0,cs)
);
}
);
width = 799;
}
);
metricLeft = "ke-canadian";
metricRight = "=|ne-canadian";
note = uni14D5;
unicode = 5333;
},
{
glyphname = "lo-canadian";
kernLeft = noleft;
lastChange = "2023-01-13 15:57:09 +0000";
layers = (
{
anchors = (
{
name = middle_center_can;
pos = (503,245);
},
{
name = top_center_can;
pos = (503,511);
},
{
name = top_double;
pos = (491,511);
},
{
name = top_left_can;
pos = (120,511);
},
{
name = top_right_can;
pos = (678,511);
}
);
layerId = "9763B71A-4976-465B-BEF0-2F1E1DB14637";
shapes = (
{
closed = 1;
nodes = (
(485,0,ls),
(654,0,o),
(757,90,o),
(757,246,cs),
(757,404,o),
(651,492,o),
(491,492,cs),
(427,492,l),
(427,353,l),
(480,353,ls),
(558,353,o),
(598,317,o),
(598,248,cs),
(598,180,o),
(557,143,o),
(484,143,cs),
(41,143,l),
(41,0,l)
);
}
);
width = 799;
}
);
metricLeft = "ne-canadian";
metricRight = "=|ke-canadian";
note = uni14D7;
unicode = 5335;
},
{
glyphname = "la-canadian";
kernRight = naright;
lastChange = "2023-01-13 15:57:09 +0000";
layers = (
{
anchors = (
{
name = middle_center_can;
pos = (296,245);
},
{
name = top_center_can;
pos = (296,511);
},
{
name = top_left_can;
pos = (121,511);
},
{
name = top_right_can;
pos = (678,511);
}
);
layerId = "9763B71A-4976-465B-BEF0-2F1E1DB14637";
shapes = (
{
closed = 1;
nodes = (
(758,0,l),
(758,143,l),
(316,143,ls),
(239,143,o),
(200,180,o),
(200,247,cs),
(200,316,o),
(242,353,o),
(315,353,cs),
(372,353,l),
(372,492,l),
(309,492,ls),
(145,492,o),
(42,399,o),
(42,245,cs),
(42,89,o),
(145,0,o),
(311,0,cs)
);
}
);
width = 799;
}
);
metricLeft = "ke-canadian";
metricRight = "=|ne-canadian";
note = uni14DA;
unicode = 5338;
},
{
glyphname = "l-canadian";
kernLeft = mwestleft;
kernRight = mwestright;
lastChange = "2023-01-13 15:57:09 +0000";
layers = (
{
layerId = "9763B71A-4976-465B-BEF0-2F1E1DB14637";
shapes = (
{
closed = 1;
nodes = (
(417,345,l),
(417,446,l),
(236,446,ls),
(184,446,o),
(156,469,o),
(156,518,cs),
(156,565,o),
(184,592,o),
(235,592,cs),
(249,592,l),
(249,690,l),
(226,690,ls),
(114,690,o),
(46,623,o),
(46,517,cs),
(46,411,o),
(114,345,o),
(226,345,cs)
);
}
);
width = 458;
}
);
metricLeft = "t-canadian";
metricRight = "m-canadian";
note = uni14EA;
unicode = 5354;
},
{
glyphname = "lWestCree-canadian";
kernLeft = mwestleft;
kernRight = mwestright;
lastChange = "2023-01-13 15:57:09 +0000";
layers = (
{
layerId = "9763B71A-4976-465B-BEF0-2F1E1DB14637";
shapes = (
{
closed = 1;
nodes = (
(294,345,l),
(294,415,l),
(139,482,l),
(139,430,l),
(294,496,l),
(294,539,l),
(139,607,l),
(139,552,l),
(294,618,l),
(294,690,l),
(276,690,l),
(53,597,l),
(53,564,l),
(213,497,l),
(213,536,l),
(53,470,l),
(53,438,l),
(276,345,l)
);
}
);
width = 347;
}
);
metricRight = "=|";
note = uni14EB;
unicode = 5355;
},
{
glyphname = "mediall-canadian";
lastChange = "2023-01-13 15:57:09 +0000";
layers = (
{
layerId = "9763B71A-4976-465B-BEF0-2F1E1DB14637";
shapes = (
{
closed = 1;
nodes = (
(556,-14,l),
(556,103,l),
(219,244,l),
(219,174,l),
(556,314,l),
(556,376,l),
(219,516,l),
(219,444,l),
(556,586,l),
(556,704,l),
(519,704,l),
(55,511,l),
(55,456,l),
(393,317,l),
(393,373,l),
(55,234,l),
(55,179,l),
(519,-14,l)
);
}
);
width = 611;
}
);
metricRight = "=|";
note = uni14EC;
unicode = 5356;
},
{
glyphname = "se-canadian";
kernRight = seright;
lastChange = "2023-01-13 15:57:09 +0000";
layers = (
{
anchors = (
{
name = top_left_can;
pos = (143,690);
},
{
name = top_right_can;
pos = (415,690);
}
);
layerId = "9763B71A-4976-465B-BEF0-2F1E1DB14637";
shapes = (
{
closed = 1;
nodes = (
(495,0,l),
(495,366,l),
(453,366,ls),
(298,366,o),
(222,428,o),
(222,603,cs),
(222,690,l),
(62,690,l),
(62,588,ls),
(62,350,o),
(194,224,o),
(419,224,cs),
(456,224,l),
(334,277,l),
(334,0,l)
);
}
);
width = 557;
}
);
note = uni14ED;
unicode = 5357;
},
{
glyphname = "si-canadian";
kernLeft = sileft;
lastChange = "2023-01-13 15:57:15 +0000";
layers = (
{
anchors = (
{
name = top_left_can;
pos = (142,690);
},
{
name = top_right_can;
pos = (414,690);
}
);
layerId = "9763B71A-4976-465B-BEF0-2F1E1DB14637";
shapes = (
{
closed = 1;
nodes = (
(222,0,l),
(222,277,l),
(100,224,l),
(137,224,ls),
(362,224,o),
(494,350,o),
(494,588,cs),
(494,690,l),
(333,690,l),
(333,603,ls),
(333,428,o),
(259,366,o),
(103,366,cs),
(62,366,l),
(62,0,l)
);
}
);
width = 556;
}
);
metricLeft = "=|se-canadian";
metricRight = "=|se-canadian";
note = uni14EF;
unicode = 5359;
},
{
glyphname = "so-canadian";
kernRight = soright;
lastChange = "2023-01-13 15:57:09 +0000";
layers = (
{
anchors = (
{
name = top_double;
pos = (414,690);
},
{
name = top_left_can;
pos = (143,690);
},
{
name = top_right_can;
pos = (414,690);
}
);
layerId = "9763B71A-4976-465B-BEF0-2F1E1DB14637";
shapes = (
{
closed = 1;
nodes = (
(222,0,l),
(222,87,ls),
(222,262,o),
(298,324,o),
(453,324,cs),
(495,324,l),
(495,690,l),
(334,690,l),
(334,412,l),
(456,466,l),
(419,466,ls),
(194,466,o),
(62,340,o),
(62,101,cs),
(62,0,l)
);
}
);
width = 557;
}
);
metricLeft = "se-canadian";
metricRight = "se-canadian";
note = uni14F1;
unicode = 5361;
},
{
glyphname = "sa-canadian";
kernLeft = saleft;
kernRight = saright;
lastChange = "2023-01-13 15:57:15 +0000";
layers = (
{
anchors = (
{
name = top_left_can;
pos = (142,690);
},
{
name = top_right_can;
pos = (414,690);
}
);
layerId = "9763B71A-4976-465B-BEF0-2F1E1DB14637";
shapes = (
{
closed = 1;
nodes = (
(494,0,l),
(494,101,ls),
(494,340,o),
(362,466,o),
(137,466,cs),
(100,466,l),
(222,412,l),
(222,690,l),
(62,690,l),
(62,324,l),
(103,324,ls),
(259,324,o),
(333,262,o),
(333,87,cs),
(333,0,l)
);
}
);
width = 556;
}
);
metricLeft = "=|se-canadian";
metricRight = "=|se-canadian";
note = uni14F4;
unicode = 5364;
},
{
glyphname = "s-canadian";
kernLeft = mwestleft;
kernRight = mwestright;
lastChange = "2023-01-13 15:57:09 +0000";
layers = (
{
layerId = "9763B71A-4976-465B-BEF0-2F1E1DB14637";
shapes = (
{
closed = 1;
nodes = (
(309,345,l),
(309,401,ls),
(309,521,o),
(241,593,o),
(134,593,cs),
(90,593,l),
(162,551,l),
(162,690,l),
(53,690,l),
(53,507,l),
(90,507,ls),
(164,507,o),
(200,474,o),
(200,397,cs),
(200,345,l)
);
}
);
width = 362;
}
);
metricRight = "=|";
note = uni1505;
unicode = 5381;
},
{
color = 6;
glyphname = "sAthapascan-canadian";
lastChange = "2023-01-13 15:57:15 +0000";
layers = (
{
layerId = "9763B71A-4976-465B-BEF0-2F1E1DB14637";
shapes = (
{
closed = 1;
nodes = (
(277,177,o),
(329,222,o),
(329,282,cs),
(329,326,o),
(305,360,o),
(251,378,cs),
(179,401,ls),
(159,409,o),
(153,415,o),
(153,429,cs),
(153,445,o),
(164,457,o),
(190,457,cs),
(217,457,o),
(233,447,o),
(234,415,c),
(327,415,l),
(327,492,o),
(274,533,o),
(192,533,cs),
(112,533,o),
(58,491,o),
(58,428,cs),
(58,384,o),
(84,347,o),
(134,330,cs),
(207,307,ls),
(227,300,o),
(235,293,o),
(235,279,cs),
(235,262,o),
(220,253,o),
(196,253,cs),
(165,253,o),
(150,265,o),
(148,295,c),
(53,295,l),
(55,218,o),
(107,177,o),
(194,177,cs)
);
}
);
width = 382;
}
);
metricRight = "=|";
note = uni1506;
unicode = 5382;
},
{
glyphname = "sw-canadian";
kernLeft = mwestleft;
kernRight = mwestright;
lastChange = "2023-01-13 15:57:09 +0000";
layers = (
{
layerId = "9763B71A-4976-465B-BEF0-2F1E1DB14637";
shapes = (
{
closed = 1;
nodes = (
(162,345,l),
(162,397,ls),
(162,474,o),
(198,507,o),
(272,507,cs),
(309,507,l),
(309,690,l),
(200,690,l),
(200,551,l),
(272,593,l),
(228,593,ls),
(123,593,o),
(53,521,o),
(53,401,cs),
(53,345,l)
);
}
);
width = 362;
}
);
metricLeft = "=|s-canadian";
metricRight = "=|s-canadian";
note = uni1507;
unicode = 5383;
},
{
glyphname = "sBlackfoot-canadian";
lastChange = "2023-01-13 15:57:09 +0000";
layers = (
{
layerId = "9763B71A-4976-465B-BEF0-2F1E1DB14637";
shapes = (
{
closed = 1;
nodes = (
(313,345,l),
(313,446,l),
(226,446,ls),
(184,446,o),
(162,467,o),
(162,510,cs),
(162,690,l),
(53,690,l),
(53,495,ls),
(53,399,o),
(108,345,o),
(205,345,c)
);
}
);
width = 354;
}
);
metricLeft = "ai-canadian";
metricRight = "m-canadian";
note = uni1508;
unicode = 5384;
},
{
glyphname = "moosecreesk-canadian";
kernLeft = mwestleft;
kernRight = mwestright;
lastChange = "2023-01-13 15:57:09 +0000";
layers = (
{
layerId = "9763B71A-4976-465B-BEF0-2F1E1DB14637";
shapes = (
{
closed = 1;
nodes = (
(271,217,o),
(332,270,o),
(332,379,cs),
(332,513,o),
(264,592,o),
(140,592,cs),
(110,592,l),
(166,550,l),
(166,690,l),
(57,690,l),
(57,508,l),
(104,508,ls),
(194,508,o),
(219,482,o),
(227,434,c),
(254,432,l),
(246,454,o),
(220,476,o),
(183,476,cs),
(106,476,o),
(54,424,o),
(54,349,cs),
(54,265,o),
(115,217,o),
(189,217,cs)
);
},
{
closed = 1;
nodes = (
(168,295,o),
(150,312,o),
(150,348,cs),
(150,384,o),
(168,402,o),
(192,402,cs),
(215,402,o),
(233,384,o),
(233,348,cs),
(233,312,o),
(216,295,o),
(192,295,cs)
);
}
);
width = 386;
}
);
metricRight = "=|";
note = uni1509;
unicode = 5385;
},
{
glyphname = "skwNaskapi-canadian";
kernLeft = mwestleft;
kernRight = mwestright;
lastChange = "2023-01-13 15:57:09 +0000";
layers = (
{
layerId = "9763B71A-4976-465B-BEF0-2F1E1DB14637";
shapes = (
{
closed = 1;
nodes = (
(271,217,o),
(332,265,o),
(332,349,cs),
(332,424,o),
(280,476,o),
(204,476,cs),
(166,476,o),
(141,454,o),
(132,432,c),
(159,434,l),
(167,482,o),
(192,508,o),
(282,508,cs),
(329,508,l),
(329,690,l),
(220,690,l),
(220,550,l),
(276,592,l),
(246,592,ls),
(123,592,o),
(54,513,o),
(54,379,cs),
(54,270,o),
(115,217,o),
(197,217,cs)
);
},
{
closed = 1;
nodes = (
(170,295,o),
(154,312,o),
(154,348,cs),
(154,384,o),
(171,402,o),
(194,402,cs),
(218,402,o),
(237,384,o),
(237,348,cs),
(237,312,o),
(218,295,o),
(194,295,cs)
);
}
);
width = 386;
}
);
metricLeft = "=|moosecreesk-canadian";
metricRight = "=|moosecreesk-canadian";
note = uni150A;
unicode = 5386;
},
{
glyphname = "swNaskapi-canadian";
lastChange = "2023-01-13 15:57:09 +0000";
layers = (
{
layerId = "9763B71A-4976-465B-BEF0-2F1E1DB14637";
shapes = (
{
closed = 1;
nodes = (
(327,191,l),
(327,238,ls),
(327,346,o),
(260,416,o),
(154,416,cs),
(120,416,l),
(172,375,l),
(172,499,l),
(63,499,l),
(63,333,l),
(110,333,ls),
(184,333,o),
(218,305,o),
(218,233,cs),
(218,191,l)
);
},
{
closed = 1;
nodes = (
(314,2,o),
(348,36,o),
(348,76,cs),
(348,118,o),
(314,152,o),
(273,152,cs),
(232,152,o),
(199,118,o),
(199,76,cs),
(199,36,o),
(232,2,o),
(273,2,cs)
);
},
{
closed = 1;
nodes = (
(158,538,o),
(192,572,o),
(192,613,cs),
(192,654,o),
(158,688,o),
(118,688,cs),
(76,688,o),
(43,654,o),
(43,613,cs),
(43,572,o),
(76,538,o),
(118,538,cs)
);
}
);
width = 391;
}
);
metricRight = "=|";
note = uni150B;
unicode = 5387;
},
{
glyphname = "spwaNaskapi-canadian";
lastChange = "2023-01-13 15:57:15 +0000";
layers = (
{
layerId = "9763B71A-4976-465B-BEF0-2F1E1DB14637";
shapes = (
{
closed = 1;
nodes = (
(604,0,l),
(604,152,l),
(215,380,l),
(215,308,l),
(604,537,l),
(604,690,l),
(565,690,l),
(28,369,l),
(28,321,l),
(565,0,l)
);
},
{
closed = 1;
nodes = (
(154,497,o),
(187,530,o),
(187,572,cs),
(187,613,o),
(154,647,o),
(113,647,cs),
(72,647,o),
(40,613,o),
(40,572,cs),
(40,530,o),
(72,497,o),
(113,497,cs)
);
},
{
closed = 1;
nodes = (
(365,614,l),
(365,661,ls),
(365,751,o),
(314,806,o),
(227,806,cs),
(199,806,l),
(266,770,l),
(266,875,l),
(159,875,l),
(159,727,l),
(185,727,ls),
(231,727,o),
(259,703,o),
(259,652,cs),
(259,614,l)
);
},
{
closed = 1;
nodes = (
(525,715,o),
(557,749,o),
(557,790,cs),
(557,831,o),
(525,865,o),
(483,865,cs),
(442,865,o),
(410,831,o),
(410,790,cs),
(410,749,o),
(442,715,o),
(483,715,cs)
);
}
);
width = 646;
}
);
metricRight = "pa-canadian";
metricWidth = "pa-canadian";
note = uni150C;
unicode = 5388;
},
{
glyphname = "she-canadian";
kernRight = caright;
lastChange = "2023-01-13 15:57:15 +0000";
layers = (
{
anchors = (
{
name = top_left_can;
pos = (284,690);
},
{
name = top_right_can;
pos = (732,690);
}
);
layerId = "9763B71A-4976-465B-BEF0-2F1E1DB14637";
shapes = (
{
closed = 1;
nodes = (
(748,-14,o),
(837,82,o),
(837,252,cs),
(837,310,l),
(677,310,l),
(677,240,ls),
(677,161,o),
(650,125,o),
(602,125,cs),
(550,125,o),
(526,162,o),
(522,242,cs),
(512,449,ls),
(503,611,o),
(431,704,o),
(284,704,cs),
(132,704,o),
(40,608,o),
(40,438,cs),
(40,380,l),
(199,380,l),
(199,453,ls),
(199,527,o),
(227,565,o),
(276,565,cs),
(326,565,o),
(351,528,o),
(355,452,cs),
(364,241,ls),
(372,80,o),
(442,-14,o),
(597,-14,cs)
);
}
);
width = 877;
}
);
metricRight = "=|";
note = uni1510;
unicode = 5392;
},
{
glyphname = "shi-canadian";
kernLeft = coleft;
lastChange = "2023-01-13 15:57:15 +0000";
layers = (
{
anchors = (
{
name = top_left_can;
pos = (146,690);
},
{
name = top_right_can;
pos = (592,690);
}
);
layerId = "9763B71A-4976-465B-BEF0-2F1E1DB14637";
shapes = (
{
closed = 1;
nodes = (
(434,-14,o),
(504,80,o),
(512,241,cs),
(522,452,ls),
(526,528,o),
(551,565,o),
(600,565,cs),
(649,565,o),
(677,527,o),
(677,453,cs),
(677,380,l),
(837,380,l),
(837,438,ls),
(837,608,o),
(744,704,o),
(592,704,cs),
(445,704,o),
(373,611,o),
(364,449,cs),
(355,242,ls),
(350,162,o),
(327,125,o),
(274,125,cs),
(226,125,o),
(199,161,o),
(199,240,cs),
(199,310,l),
(40,310,l),
(40,252,ls),
(40,82,o),
(129,-14,o),
(279,-14,cs)
);
}
);
width = 877;
}
);
metricLeft = "she-canadian";
metricRight = "she-canadian";
note = uni1511;
unicode = 5393;
},
{
glyphname = "sho-canadian";
lastChange = "2023-01-13 15:57:15 +0000";
layers = (
{
anchors = (
{
name = top_center_can;
pos = (449,511);
},
{
name = top_left_can;
pos = (279,511);
},
{
name = top_right_can;
pos = (619,511);
}
);
layerId = "9763B71A-4976-465B-BEF0-2F1E1DB14637";
shapes = (
{
closed = 1;
nodes = (
(358,120,l),
(254,119,o),
(199,145,o),
(199,197,cs),
(199,231,o),
(221,250,o),
(263,250,cs),
(369,250,o),
(485,102,o),
(652,102,cs),
(775,102,o),
(857,176,o),
(857,288,cs),
(857,425,o),
(740,507,o),
(545,506,c),
(540,372,l),
(644,373,o),
(699,347,o),
(699,296,cs),
(699,262,o),
(677,242,o),
(636,242,cs),
(529,242,o),
(413,389,o),
(245,389,cs),
(124,389,o),
(42,316,o),
(42,204,cs),
(42,67,o),
(159,-15,o),
(354,-14,c)
);
}
);
width = 899;
}
);
metricLeft = "ke-canadian";
metricRight = "=|ke-canadian";
note = uni1513;
unicode = 5395;
},
{
glyphname = "sha-canadian";
lastChange = "2023-01-13 15:57:15 +0000";
layers = (
{
anchors = (
{
name = top_center_can;
pos = (449,511);
},
{
name = top_left_can;
pos = (279,511);
},
{
name = top_right_can;
pos = (619,511);
}
);
layerId = "9763B71A-4976-465B-BEF0-2F1E1DB14637";
shapes = (
{
closed = 1;
nodes = (
(740,-17,o),
(857,67,o),
(857,203,cs),
(857,316,o),
(779,389,o),
(652,389,cs),
(485,389,o),
(369,242,o),
(263,242,cs),
(221,242,o),
(199,262,o),
(199,296,cs),
(199,347,o),
(254,375,o),
(358,372,c),
(354,506,l),
(159,510,o),
(42,425,o),
(42,290,cs),
(42,176,o),
(120,102,o),
(245,102,cs),
(413,102,o),
(529,250,o),
(636,250,cs),
(677,250,o),
(699,231,o),
(699,197,cs),
(699,145,o),
(644,117,o),
(540,120,c),
(545,-14,l)
);
}
);
width = 899;
}
);
metricLeft = "ke-canadian";
metricRight = "=|ke-canadian";
note = uni1515;
unicode = 5397;
},
{
glyphname = "sh-canadian";
kernLeft = mwestleft;
kernRight = mwestright;
lastChange = "2023-01-13 15:57:09 +0000";
layers = (
{
layerId = "9763B71A-4976-465B-BEF0-2F1E1DB14637";
shapes = (
{
closed = 1;
nodes = (
(563,284,o),
(658,343,o),
(658,449,cs),
(658,534,o),
(599,596,o),
(501,596,cs),
(378,596,o),
(293,492,o),
(213,492,cs),
(177,492,o),
(159,509,o),
(159,537,cs),
(159,579,o),
(203,602,o),
(285,602,c),
(281,699,l),
(142,699,o),
(46,640,o),
(46,534,cs),
(46,449,o),
(105,387,o),
(203,387,cs),
(327,387,o),
(412,492,o),
(492,492,cs),
(527,492,o),
(546,474,o),
(546,446,cs),
(546,405,o),
(501,382,o),
(419,382,c),
(424,284,l)
);
}
);
width = 704;
}
);
metricLeft = "t-canadian";
metricRight = "=|";
note = uni1525;
unicode = 5413;
},
{
glyphname = "ye-canadian";
kernLeft = yeleft;
lastChange = "2023-01-13 15:57:09 +0000";
layers = (
{
anchors = (
{
name = middle_right_can;
pos = (661,345);
},
{
name = top_left_can;
pos = (108,690);
},
{
name = top_right_can;
pos = (439,690);
}
);
layerId = "9763B71A-4976-465B-BEF0-2F1E1DB14637";
shapes = (
{
closed = 1;
nodes = (
(518,0,l),
(518,353,l),
(234,353,l),
(238,276,l),
(539,607,l),
(431,701,l),
(29,253,l),
(29,213,l),
(357,213,l),
(357,0,l)
);
}
);
width = 580;
}
);
note = uni1526;
unicode = 5414;
},
{
glyphname = "yi-canadian";
kernRight = yiright;
lastChange = "2023-01-13 15:57:09 +0000";
layers = (
{
anchors = (
{
name = top_left_can;
pos = (143,690);
},
{
name = top_right_can;
pos = (471,690);
}
);
layerId = "9763B71A-4976-465B-BEF0-2F1E1DB14637";
shapes = (
{
closed = 1;
nodes = (
(223,0,l),
(223,213,l),
(551,213,l),
(551,253,l),
(150,701,l),
(43,608,l),
(344,277,l),
(348,353,l),
(63,353,l),
(63,0,l)
);
}
);
width = 580;
}
);
metricRight = "=|ye-canadian";
metricWidth = "ye-canadian";
note = uni1528;
unicode = 5416;
},
{
glyphname = "yo-canadian";
kernLeft = yoleft;
lastChange = "2023-01-13 15:57:09 +0000";
layers = (
{
anchors = (
{
name = middle_right_can;
pos = (661,345);
},
{
name = top_double;
pos = (438,690);
},
{
name = top_left_can;
pos = (108,690);
},
{
name = top_right_can;
pos = (438,690);
}
);
layerId = "9763B71A-4976-465B-BEF0-2F1E1DB14637";
shapes = (
{
closed = 1;
nodes = (
(537,82,l),
(237,412,l),
(232,337,l),
(518,337,l),
(518,690,l),
(357,690,l),
(357,476,l),
(29,476,l),
(29,437,l),
(431,-12,l)
);
}
);
width = 580;
}
);
metricLeft = "ye-canadian";
metricWidth = "ye-canadian";
note = uni152A;
unicode = 5418;
},
{
glyphname = "ya-canadian";
kernRight = yaright;
lastChange = "2023-01-13 15:57:09 +0000";
layers = (
{
anchors = (
{
name = top_left_can;
pos = (143,690);
},
{
name = top_right_can;
pos = (471,690);
}
);
layerId = "9763B71A-4976-465B-BEF0-2F1E1DB14637";
shapes = (
{
closed = 1;
nodes = (
(551,437,l),
(551,476,l),
(223,476,l),
(223,690,l),
(63,690,l),
(63,337,l),
(346,337,l),
(342,413,l),
(42,83,l),
(150,-12,l)
);
}
);
width = 580;
}
);
metricRight = "=|ye-canadian";
metricWidth = "ye-canadian";
note = uni152D;
unicode = 5421;
},
{
glyphname = "y-canadian";
kernLeft = mwestleft;
kernRight = mwestright;
lastChange = "2023-01-13 15:57:09 +0000";
layers = (
{
layerId = "9763B71A-4976-465B-BEF0-2F1E1DB14637";
shapes = (
{
closed = 1;
nodes = (
(317,555,l),
(317,582,l),
(164,582,l),
(164,690,l),
(55,690,l),
(55,497,l),
(201,497,l),
(200,562,l),
(53,393,l),
(128,335,l)
);
}
);
width = 339;
}
);
note = uni153E;
unicode = 5438;
},
{
glyphname = "biblecreey-canadian";
lastChange = "2023-01-13 15:57:09 +0000";
layers = (
{
layerId = "9763B71A-4976-465B-BEF0-2F1E1DB14637";
shapes = (
{
closed = 1;
nodes = (
(201,582,l),
(140,582,l),
(230,345,l),
(298,345,l),
(388,582,l),
(327,582,l),
(387,345,l),
(484,345,l),
(484,370,l),
(405,690,l),
(331,690,l),
(236,439,l),
(292,439,l),
(196,690,l),
(123,690,l),
(44,370,l),
(44,345,l),
(141,345,l)
);
}
);
width = 528;
}
);
metricRight = "=|";
note = uni153F;
unicode = 5439;
},
{
glyphname = "yWestCree-canadian";
lastChange = "2023-01-13 15:57:09 +0000";
layers = (
{
layerId = "9763B71A-4976-465B-BEF0-2F1E1DB14637";
shapes = (
{
closed = 1;
nodes = (
(270,191,l),
(270,304,l),
(378,304,l),
(378,408,l),
(270,408,l),
(270,517,l),
(162,517,l),
(162,408,l),
(53,408,l),
(53,304,l),
(162,304,l),
(162,191,l)
);
}
);
width = 431;
}
);
metricLeft = "shorthorizontalstrokeFinal-canadian";
metricRight = "shorthorizontalstrokeFinal-canadian";
note = uni1540;
unicode = 5440;
},
{
glyphname = "re-canadian";
kernRight = niright;
lastChange = "2023-01-13 15:57:15 +0000";
layers = (
{
anchors = (
{
name = top_center_can;
pos = (309,511);
},
{
name = top_left_can;
pos = (139,511);
},
{
name = top_right_can;
pos = (727,511);
}
);
layerId = "9763B71A-4976-465B-BEF0-2F1E1DB14637";
shapes = (
{
closed = 1;
nodes = (
(465,-14,o),
(556,86,o),
(556,241,cs),
(556,350,l),
(807,350,l),
(807,492,l),
(400,492,l),
(400,241,ls),
(400,163,o),
(367,124,o),
(309,124,cs),
(251,124,o),
(219,164,o),
(219,241,cs),
(219,492,l),
(59,492,l),
(59,242,ls),
(59,83,o),
(154,-14,o),
(309,-14,cs)
);
}
);
width = 848;
}
);
metricRight = "=|ne-canadian";
note = uni1542;
unicode = 5442;
},
{
glyphname = "reRCree-canadian";
kernLeft = neleft;
lastChange = "2023-01-13 15:57:09 +0000";
layers = (
{
anchors = (
{
name = top_center_can;
pos = (537,511);
},
{
name = top_left_can;
pos = (119,511);
},
{
name = top_right_can;
pos = (708,511);
}
);
layerId = "9763B71A-4976-465B-BEF0-2F1E1DB14637";
shapes = (
{
closed = 1;
nodes = (
(693,-14,o),
(788,83,o),
(788,242,cs),
(788,492,l),
(628,492,l),
(628,241,ls),
(628,164,o),
(595,124,o),
(537,124,cs),
(479,124,o),
(447,161,o),
(447,239,cs),
(447,492,l),
(41,492,l),
(41,350,l),
(291,350,l),
(291,240,ls),
(291,85,o),
(383,-14,o),
(538,-14,cs)
);
}
);
width = 847;
}
);
metricLeft = "ne-canadian";
metricRight = "=|re-canadian";
note = uni1543;
unicode = 5443;
},
{
glyphname = "leWestCree-canadian";
kernLeft = noleft;
lastChange = "2023-01-13 15:57:09 +0000";
layers = (
{
anchors = (
{
name = top_center_can;
pos = (537,511);
},
{
name = top_left_can;
pos = (119,511);
},
{
name = top_right_can;
pos = (708,511);
}
);
layerId = "9763B71A-4976-465B-BEF0-2F1E1DB14637";
shapes = (
{
closed = 1;
nodes = (
(447,0,l),
(447,245,ls),
(447,328,o),
(480,368,o),
(539,368,cs),
(596,368,o),
(628,327,o),
(628,251,cs),
(628,0,l),
(788,0,l),
(788,251,ls),
(788,410,o),
(697,506,o),
(540,506,cs),
(386,506,o),
(291,406,o),
(291,245,cs),
(291,142,l),
(41,142,l),
(41,0,l)
);
}
);
width = 847;
}
);
metricLeft = "ne-canadian";
metricRight = "=|re-canadian";
note = uni1544;
unicode = 5444;
},
{
glyphname = "ri-canadian";
kernRight = naright;
lastChange = "2023-01-13 15:57:15 +0000";
layers = (
{
anchors = (
{
name = top_center_can;
pos = (309,511);
},
{
name = top_left_can;
pos = (139,511);
},
{
name = top_right_can;
pos = (727,511);
}
);
layerId = "9763B71A-4976-465B-BEF0-2F1E1DB14637";
shapes = (
{
closed = 1;
nodes = (
(219,0,l),
(219,251,ls),
(219,327,o),
(251,368,o),
(309,368,cs),
(367,368,o),
(400,330,o),
(400,253,cs),
(400,0,l),
(807,0,l),
(807,142,l),
(556,142,l),
(556,253,ls),
(556,408,o),
(469,506,o),
(310,506,cs),
(156,506,o),
(59,410,o),
(59,248,cs),
(59,0,l)
);
}
);
width = 848;
}
);
metricLeft = "re-canadian";
metricRight = "=|ne-canadian";
note = uni1546;
unicode = 5446;
},
{
glyphname = "ro-canadian";
lastChange = "2023-01-13 15:57:09 +0000";
layers = (
{
anchors = (
{
name = top_center_can;
pos = (246,690);
}
);
layerId = "9763B71A-4976-465B-BEF0-2F1E1DB14637";
shapes = (
{
closed = 1;
nodes = (
(223,0,l),
(223,253,l),
(183,213,l),
(264,213,ls),
(416,213,o),
(515,307,o),
(515,449,cs),
(515,602,o),
(418,690,o),
(240,690,cs),
(63,690,l),
(63,548,l),
(242,548,ls),
(315,548,o),
(355,513,o),
(355,451,cs),
(355,389,o),
(315,355,o),
(242,355,cs),
(63,355,l),
(63,0,l)
);
}
);
width = 557;
}
);
metricLeft = "nunavuth-canadian";
note = uni1548;
unicode = 5448;
},
{
glyphname = "loWestCree-canadian";
lastChange = "2023-01-13 15:57:09 +0000";
layers = (
{
anchors = (
{
name = top_center_can;
pos = (248,690);
},
{
name = top_left_can;
pos = (143,690);
}
);
layerId = "9763B71A-4976-465B-BEF0-2F1E1DB14637";
shapes = (
{
closed = 1;
nodes = (
(240,0,ls),
(418,0,o),
(515,89,o),
(515,241,cs),
(515,384,o),
(416,476,o),
(264,476,cs),
(183,476,l),
(223,437,l),
(223,690,l),
(63,690,l),
(63,336,l),
(242,336,ls),
(315,336,o),
(355,300,o),
(355,239,cs),
(355,177,o),
(315,142,o),
(242,142,cs),
(63,142,l),
(63,0,l)
);
}
);
width = 557;
}
);
metricLeft = "nunavuth-canadian";
metricRight = "ro-canadian";
note = uni154A;
unicode = 5450;
},
{
glyphname = "ra-canadian";
lastChange = "2023-01-13 15:57:15 +0000";
layers = (
{
anchors = (
{
name = top_center_can;
pos = (310,690);
},
{
name = top_right_can;
pos = (414,690);
}
);
layerId = "9763B71A-4976-465B-BEF0-2F1E1DB14637";
shapes = (
{
closed = 1;
nodes = (
(494,0,l),
(494,355,l),
(315,355,ls),
(241,355,o),
(201,389,o),
(201,451,cs),
(201,513,o),
(241,548,o),
(315,548,cs),
(494,548,l),
(494,690,l),
(316,690,ls),
(138,690,o),
(42,602,o),
(42,449,cs),
(42,307,o),
(140,213,o),
(293,213,cs),
(374,213,l),
(333,253,l),
(333,0,l)
);
}
);
width = 557;
}
);
metricLeft = "=|ro-canadian";
metricRight = "nunavuth-canadian";
note = uni154B;
unicode = 5451;
},
{
glyphname = "laWestCree-canadian";
lastChange = "2023-01-13 15:57:15 +0000";
layers = (
{
anchors = (
{
name = top_center_can;
pos = (414,690);
}
);
layerId = "9763B71A-4976-465B-BEF0-2F1E1DB14637";
shapes = (
{
closed = 1;
nodes = (
(494,0,l),
(494,142,l),
(315,142,ls),
(241,142,o),
(201,177,o),
(201,239,cs),
(201,300,o),
(241,336,o),
(315,336,cs),
(494,336,l),
(494,690,l),
(333,690,l),
(333,437,l),
(374,476,l),
(293,476,ls),
(140,476,o),
(42,384,o),
(42,241,cs),
(42,89,o),
(138,0,o),
(316,0,cs)
);
}
);
width = 557;
}
);
metricLeft = "=|ro-canadian";
metricRight = "nunavuth-canadian";
note = uni154D;
unicode = 5453;
},
{
glyphname = "r-canadian";
kernLeft = mwestleft;
kernRight = mwestright;
lastChange = "2023-01-13 15:57:15 +0000";
layers = (
{
layerId = "9763B71A-4976-465B-BEF0-2F1E1DB14637";
shapes = (
{
closed = 1;
nodes = (
(282,345,l),
(282,531,l),
(192,531,ls),
(161,531,o),
(146,544,o),
(146,568,cs),
(146,591,o),
(162,605,o),
(192,605,cs),
(282,605,l),
(282,690,l),
(190,690,ls),
(97,690,o),
(44,645,o),
(44,567,cs),
(44,496,o),
(97,448,o),
(179,448,cs),
(227,448,l),
(173,481,l),
(173,345,l)
);
}
);
width = 335;
}
);
metricLeft = "=|k-canadian";
note = uni1550;
unicode = 5456;
},
{
glyphname = "rWestCree-canadian";
kernLeft = mwestleft;
kernRight = mwestright;
lastChange = "2023-01-13 15:57:09 +0000";
layers = (
{
layerId = "9763B71A-4976-465B-BEF0-2F1E1DB14637";
shapes = (
{
closed = 1;
nodes = (
(71,345,l),
(294,438,l),
(294,470,l),
(134,536,l),
(134,497,l),
(294,564,l),
(294,597,l),
(71,690,l),
(53,690,l),
(53,618,l),
(208,552,l),
(208,607,l),
(53,539,l),
(53,496,l),
(208,430,l),
(208,482,l),
(53,415,l),
(53,345,l)
);
}
);
width = 347;
}
);
metricLeft = "=|lWestCree-canadian";
metricRight = "=|lWestCree-canadian";
note = uni1551;
unicode = 5457;
},
{
glyphname = "rMedial-canadian";
lastChange = "2023-01-13 15:57:09 +0000";
layers = (
{
layerId = "9763B71A-4976-465B-BEF0-2F1E1DB14637";
shapes = (
{
closed = 1;
nodes = (
(93,-14,l),
(563,179,l),
(563,231,l),
(225,370,l),
(225,320,l),
(563,459,l),
(563,511,l),
(93,704,l),
(55,704,l),
(55,587,l),
(400,446,l),
(400,518,l),
(55,378,l),
(55,312,l),
(400,172,l),
(400,244,l),
(55,102,l),
(55,-14,l)
);
}
);
width = 618;
}
);
metricLeft = "mediall-canadian";
metricRight = "mediall-canadian";
note = uni1552;
unicode = 5458;
},
{
glyphname = "fe-canadian";
kernLeft = ecanleft;
kernRight = ecanright;
lastChange = "2023-01-13 15:57:09 +0000";
layers = (
{
layerId = "9763B71A-4976-465B-BEF0-2F1E1DB14637";
shapes = (
{
closed = 1;
nodes = (
(399,0,l),
(757,651,l),
(757,690,l),
(620,690,l),
(347,185,l),
(386,185,l),
(287,348,l),
(174,347,l),
(198,318,o),
(226,304,o),
(265,304,cs),
(355,304,o),
(437,386,o),
(437,506,cs),
(437,619,o),
(367,704,o),
(253,704,cs),
(139,704,o),
(69,619,o),
(69,512,cs),
(69,457,o),
(85,406,o),
(123,348,cs),
(352,0,l)
);
},
{
closed = 1;
nodes = (
(219,418,o),
(197,448,o),
(197,506,cs),
(197,562,o),
(220,589,o),
(253,589,cs),
(287,589,o),
(308,564,o),
(308,505,cs),
(308,445,o),
(286,418,o),
(253,418,cs)
);
}
);
width = 781;
}
);
metricRight = "e-canadian";
note = uni1553;
unicode = 5459;
},
{
glyphname = "fi-canadian";
kernLeft = icanleft;
kernRight = icanright;
lastChange = "2023-01-13 15:57:09 +0000";
layers = (
{
anchors = (
{
name = top_center_can;
pos = (378,690);
},
{
name = top_left_can;
pos = (147,690);
},
{
name = top_right_can;
pos = (624,690);
}
);
layerId = "9763B71A-4976-465B-BEF0-2F1E1DB14637";
shapes = (
{
closed = 1;
nodes = (
(367,-14,o),
(437,71,o),
(437,184,cs),
(437,303,o),
(355,385,o),
(265,385,cs),
(226,385,o),
(198,372,o),
(174,343,c),
(287,342,l),
(386,505,l),
(347,505,l),
(620,0,l),
(757,0,l),
(757,39,l),
(399,690,l),
(352,690,l),
(122,340,ls),
(84,283,o),
(69,233,o),
(69,178,cs),
(69,71,o),
(139,-14,o),
(253,-14,cs)
);
},
{
closed = 1;
nodes = (
(220,100,o),
(197,128,o),
(197,184,cs),
(197,242,o),
(219,271,o),
(253,271,cs),
(286,271,o),
(308,244,o),
(308,185,cs),
(308,126,o),
(287,100,o),
(253,100,cs)
);
}
);
width = 781;
}
);
metricLeft = "fe-canadian";
metricRight = "e-canadian";
note = uni1555;
unicode = 5461;
},
{
glyphname = "fo-canadian";
kernLeft = ocanleft;
kernRight = ocanright;
lastChange = "2023-01-13 15:57:15 +0000";
layers = (
{
anchors = (
{
name = top_center_can;
pos = (228,690);
}
);
layerId = "9763B71A-4976-465B-BEF0-2F1E1DB14637";
shapes = (
{
closed = 1;
nodes = (
(115,0,l),
(647,321,l),
(647,368,l),
(359,647,ls),
(318,689,o),
(271,704,o),
(226,704,cs),
(126,704,o),
(43,630,o),
(43,501,cs),
(43,385,o),
(114,302,o),
(222,302,cs),
(329,302,o),
(398,386,o),
(398,501,cs),
(398,526,o),
(388,570,o),
(377,597,c),
(329,497,l),
(488,345,l),
(488,379,l),
(77,134,l),
(77,0,l)
);
},
{
closed = 1;
nodes = (
(193,418,o),
(171,444,o),
(171,503,cs),
(171,562,o),
(193,589,o),
(227,589,cs),
(261,589,o),
(281,565,o),
(281,505,cs),
(281,445,o),
(260,418,o),
(226,418,cs)
);
}
);
width = 675;
}
);
metricRight = "o-canadian";
note = uni1557;
unicode = 5463;
},
{
glyphname = "fa-canadian";
kernLeft = acanleft;
kernRight = acanright;
lastChange = "2023-01-13 15:57:15 +0000";
layers = (
{
anchors = (
{
name = top_center_can;
pos = (448,690);
}
);
layerId = "9763B71A-4976-465B-BEF0-2F1E1DB14637";
shapes = (
{
closed = 1;
nodes = (
(598,0,l),
(598,132,l),
(187,377,l),
(187,349,l),
(346,500,l),
(298,597,l),
(287,570,o),
(277,526,o),
(277,501,cs),
(277,386,o),
(346,302,o),
(453,302,cs),
(561,302,o),
(633,385,o),
(633,501,cs),
(633,630,o),
(550,704,o),
(449,704,cs),
(404,704,o),
(357,689,o),
(316,647,cs),
(28,368,l),
(28,321,l),
(560,0,l)
);
},
{
closed = 1;
nodes = (
(415,417,o),
(394,445,o),
(394,504,cs),
(394,564,o),
(414,588,o),
(448,588,cs),
(482,588,o),
(504,562,o),
(504,503,cs),
(504,443,o),
(482,417,o),
(449,417,cs)
);
}
);
width = 676;
}
);
metricRight = "=|fo-canadian";
note = uni1559;
unicode = 5465;
},
{
glyphname = "f-canadian";
kernLeft = mwestleft;
kernRight = mwestright;
lastChange = "2023-01-13 15:57:09 +0000";
layers = (
{
layerId = "9763B71A-4976-465B-BEF0-2F1E1DB14637";
shapes = (
{
closed = 1;
nodes = (
(330,345,l),
(330,411,l),
(127,530,l),
(127,518,l),
(202,593,l),
(183,641,l),
(176,629,o),
(171,606,o),
(171,591,cs),
(171,533,o),
(209,495,o),
(259,495,cs),
(311,495,o),
(347,533,o),
(347,594,cs),
(347,665,o),
(302,696,o),
(256,696,cs),
(235,696,o),
(207,686,o),
(185,665,cs),
(44,527,l),
(44,503,l),
(311,345,l)
);
},
{
closed = 1;
nodes = (
(241,553,o),
(230,566,o),
(230,594,cs),
(230,625,o),
(241,638,o),
(257,638,cs),
(273,638,o),
(284,624,o),
(284,594,cs),
(284,566,o),
(273,553,o),
(258,553,cs)
);
}
);
width = 394;
}
);
note = uni155D;
unicode = 5469;
},
{
glyphname = "the-canadian";
lastChange = "2023-01-13 15:57:09 +0000";
layers = (
{
anchors = (
{
name = middle_right_can;
pos = (825,345);
},
{
name = top_center_can;
pos = (367,690);
},
{
name = top_left_can;
pos = (133,690);
},
{
name = top_right_can;
pos = (599,690);
}
);
layerId = "9763B71A-4976-465B-BEF0-2F1E1DB14637";
shapes = (
{
closed = 1;
nodes = (
(563,-14,o),
(679,104,o),
(679,309,cs),
(679,690,l),
(518,690,l),
(518,304,ls),
(518,187,o),
(466,128,o),
(366,128,cs),
(270,128,o),
(214,179,o),
(214,291,cs),
(214,398,l),
(155,346,l),
(176,311,o),
(212,292,o),
(254,292,cs),
(356,292,o),
(424,374,o),
(424,497,cs),
(424,620,o),
(358,704,o),
(244,704,cs),
(125,704,o),
(56,617,o),
(56,460,cs),
(56,336,ls),
(56,103,o),
(170,-14,o),
(367,-14,cs)
);
},
{
closed = 1;
nodes = (
(205,407,o),
(185,434,o),
(185,497,cs),
(185,561,o),
(206,588,o),
(240,588,cs),
(273,588,o),
(295,561,o),
(295,499,cs),
(295,437,o),
(273,407,o),
(239,407,cs)
);
}
);
width = 735;
}
);
metricLeft = "te-canadian";
metricRight = "te-canadian";
note = uni155E;
unicode = 5470;
},
{
glyphname = "theNCree-canadian";
lastChange = "2023-01-13 15:57:09 +0000";
layers = (
{
layerId = "9763B71A-4976-465B-BEF0-2F1E1DB14637";
shapes = (
{
closed = 1;
nodes = (
(567,-14,o),
(679,104,o),
(679,331,cs),
(679,460,ls),
(679,617,o),
(610,704,o),
(490,704,cs),
(376,704,o),
(310,620,o),
(310,497,cs),
(310,374,o),
(379,292,o),
(480,292,cs),
(523,292,o),
(558,311,o),
(580,346,c),
(520,398,l),
(520,290,ls),
(520,177,o),
(465,127,o),
(369,127,cs),
(269,127,o),
(216,188,o),
(216,304,cs),
(216,690,l),
(56,690,l),
(56,308,ls),
(56,102,o),
(169,-14,o),
(367,-14,cs)
);
},
{
closed = 1;
nodes = (
(461,407,o),
(440,438,o),
(440,499,cs),
(440,561,o),
(461,589,o),
(495,589,cs),
(528,589,o),
(550,561,o),
(550,497,cs),
(550,435,o),
(529,407,o),
(496,407,cs)
);
}
);
width = 735;
}
);
metricLeft = "te-canadian";
metricRight = "te-canadian";
note = uni155F;
unicode = 5471;
},
{
glyphname = "thi-canadian";
lastChange = "2023-01-13 15:57:09 +0000";
layers = (
{
anchors = (
{
name = top_center_can;
pos = (363,690);
}
);
layerId = "9763B71A-4976-465B-BEF0-2F1E1DB14637";
shapes = (
{
closed = 1;
nodes = (
(358,-14,o),
(424,70,o),
(424,192,cs),
(424,316,o),
(356,398,o),
(254,398,cs),
(212,398,o),
(176,379,o),
(155,344,c),
(214,292,l),
(214,400,ls),
(214,513,o),
(270,563,o),
(366,563,cs),
(466,563,o),
(518,501,o),
(518,385,cs),
(518,0,l),
(679,0,l),
(679,382,ls),
(679,587,o),
(565,704,o),
(367,704,cs),
(167,704,o),
(56,585,o),
(56,358,cs),
(56,230,ls),
(56,72,o),
(125,-14,o),
(244,-14,cs)
);
},
{
closed = 1;
nodes = (
(206,100,o),
(185,128,o),
(185,192,cs),
(185,255,o),
(205,283,o),
(239,283,cs),
(273,283,o),
(295,252,o),
(295,190,cs),
(295,128,o),
(273,100,o),
(240,100,cs)
);
}
);
width = 735;
}
);
metricLeft = "te-canadian";
metricRight = "te-canadian";
note = uni1560;
unicode = 5472;
},
{
glyphname = "thiNCree-canadian";
lastChange = "2023-01-13 15:57:09 +0000";
layers = (
{
anchors = (
{
name = top_center_can;
pos = (363,690);
}
);
layerId = "9763B71A-4976-465B-BEF0-2F1E1DB14637";
shapes = (
{
closed = 1;
nodes = (
(610,-14,o),
(679,72,o),
(679,230,cs),
(679,358,ls),
(679,585,o),
(567,704,o),
(367,704,cs),
(169,704,o),
(56,587,o),
(56,382,cs),
(56,0,l),
(216,0,l),
(216,385,ls),
(216,501,o),
(269,563,o),
(369,563,cs),
(465,563,o),
(520,513,o),
(520,400,cs),
(520,292,l),
(580,344,l),
(558,379,o),
(523,398,o),
(480,398,cs),
(379,398,o),
(310,316,o),
(310,192,cs),
(310,70,o),
(376,-14,o),
(490,-14,cs)
);
},
{
closed = 1;
nodes = (
(461,100,o),
(440,128,o),
(440,190,cs),
(440,252,o),
(461,283,o),
(496,283,cs),
(529,283,o),
(550,255,o),
(550,192,cs),
(550,128,o),
(528,100,o),
(495,100,cs)
);
}
);
width = 735;
}
);
metricLeft = "te-canadian";
metricRight = "te-canadian";
note = uni1561;
unicode = 5473;
},
{
glyphname = "tho-canadian";
lastChange = "2023-01-13 15:57:09 +0000";
layers = (
{
anchors = (
{
name = top_center_can;
pos = (302,690);
}
);
layerId = "9763B71A-4976-465B-BEF0-2F1E1DB14637";
shapes = (
{
closed = 1;
nodes = (
(282,0,ls),
(502,0,o),
(628,124,o),
(628,350,cs),
(628,566,o),
(496,704,o),
(305,704,cs),
(144,704,o),
(49,608,o),
(49,472,cs),
(49,351,o),
(123,270,o),
(234,270,cs),
(343,270,o),
(408,344,o),
(408,456,cs),
(408,542,o),
(364,624,o),
(264,633,c),
(241,584,l),
(249,588,o),
(270,591,o),
(282,591,cs),
(401,591,o),
(470,500,o),
(470,360,cs),
(470,211,o),
(401,144,o),
(272,144,cs),
(82,144,l),
(82,0,l)
);
},
{
closed = 1;
nodes = (
(200,384,o),
(179,412,o),
(179,478,cs),
(179,544,o),
(201,572,o),
(233,572,cs),
(266,572,o),
(289,543,o),
(289,477,cs),
(289,412,o),
(268,384,o),
(234,384,cs)
);
}
);
width = 678;
}
);
metricRight = "to-canadian";
note = uni1564;
unicode = 5476;
},
{
glyphname = "tha-canadian";
lastChange = "2023-01-13 15:57:09 +0000";
layers = (
{
anchors = (
{
name = top_center_can;
pos = (380,690);
}
);
layerId = "9763B71A-4976-465B-BEF0-2F1E1DB14637";
shapes = (
{
closed = 1;
nodes = (
(596,0,l),
(596,144,l),
(406,144,ls),
(277,144,o),
(209,210,o),
(209,359,cs),
(209,500,o),
(277,591,o),
(397,591,cs),
(409,591,o),
(429,588,o),
(438,584,c),
(414,633,l),
(315,624,o),
(270,542,o),
(270,456,cs),
(270,344,o),
(337,270,o),
(444,270,cs),
(555,270,o),
(629,352,o),
(629,472,cs),
(629,609,o),
(533,704,o),
(376,704,cs),
(184,704,o),
(50,566,o),
(50,350,cs),
(50,126,o),
(174,0,o),
(396,0,cs)
);
},
{
closed = 1;
nodes = (
(411,384,o),
(389,412,o),
(389,477,cs),
(389,543,o),
(412,572,o),
(445,572,cs),
(477,572,o),
(500,544,o),
(500,478,cs),
(500,412,o),
(478,384,o),
(445,384,cs)
);
}
);
width = 678;
}
);
metricLeft = "=|theCarrier-canadian";
metricRight = "=|tho-canadian";
note = uni1566;
unicode = 5478;
},
{
glyphname = "th-canadian";
kernLeft = mwestleft;
kernRight = mwestright;
lastChange = "2023-01-13 15:57:09 +0000";
layers = (
{
layerId = "9763B71A-4976-465B-BEF0-2F1E1DB14637";
shapes = (
{
closed = 1;
nodes = (
(318,345,l),
(318,432,l),
(235,432,ls),
(170,432,o),
(138,460,o),
(138,525,cs),
(138,590,o),
(173,634,o),
(234,634,cs),
(240,634,o),
(248,633,o),
(252,632,c),
(227,657,l),
(183,653,o),
(159,617,o),
(159,578,cs),
(159,517,o),
(196,478,o),
(247,478,cs),
(298,478,o),
(334,517,o),
(334,579,cs),
(334,652,o),
(285,696,o),
(211,696,cs),
(115,696,o),
(46,628,o),
(46,517,cs),
(46,410,o),
(109,345,o),
(228,345,cs)
);
},
{
closed = 1;
nodes = (
(229,535,o),
(218,550,o),
(218,578,cs),
(218,608,o),
(229,620,o),
(245,620,cs),
(261,620,o),
(272,607,o),
(272,577,cs),
(272,549,o),
(262,535,o),
(245,535,cs)
);
}
);
width = 383;
}
);
metricLeft = "t-canadian";
note = uni156A;
unicode = 5482;
},
{
glyphname = "tthe-canadian";
lastChange = "2023-01-13 15:57:09 +0000";
layers = (
{
anchors = (
{
name = middle_right_can;
pos = (815,345);
},
{
name = top_center_can;
pos = (362,690);
},
{
name = top_left_can;
pos = (136,690);
},
{
name = top_right_can;
pos = (590,690);
}
);
layerId = "9763B71A-4976-465B-BEF0-2F1E1DB14637";
shapes = (
{
closed = 1;
nodes = (
(556,-14,o),
(669,104,o),
(669,309,cs),
(669,690,l),
(513,690,l),
(513,308,ls),
(513,188,o),
(459,130,o),
(362,130,cs),
(269,130,o),
(212,192,o),
(212,308,cs),
(212,690,l),
(56,690,l),
(56,308,ls),
(56,102,o),
(169,-14,o),
(363,-14,cs)
);
},
{
closed = 1;
nodes = (
(427,380,l),
(427,690,l),
(298,690,l),
(298,380,l)
);
}
);
width = 725;
}
);
metricLeft = "te-canadian";
metricRight = "te-canadian";
note = uni156B;
unicode = 5483;
},
{
glyphname = "tthi-canadian";
lastChange = "2023-01-13 15:57:09 +0000";
layers = (
{
layerId = "9763B71A-4976-465B-BEF0-2F1E1DB14637";
shapes = (
{
closed = 1;
nodes = (
(212,0,l),
(212,382,ls),
(212,498,o),
(271,559,o),
(365,559,cs),
(458,559,o),
(513,497,o),
(513,382,cs),
(513,0,l),
(669,0,l),
(669,382,ls),
(669,586,o),
(556,704,o),
(368,704,cs),
(173,704,o),
(56,586,o),
(56,382,cs),
(56,0,l)
);
},
{
closed = 1;
nodes = (
(427,0,l),
(427,310,l),
(298,310,l),
(298,0,l)
);
}
);
width = 725;
}
);
metricLeft = "te-canadian";
metricRight = "te-canadian";
note = uni156C;
unicode = 5484;
},
{
glyphname = "ttho-canadian";
lastChange = "2023-01-13 15:57:09 +0000";
layers = (
{
anchors = (
{
name = top_center_can;
pos = (317,690);
},
{
name = top_left_can;
pos = (136,690);
},
{
name = top_right_can;
pos = (497,690);
}
);
layerId = "9763B71A-4976-465B-BEF0-2F1E1DB14637";
shapes = (
{
closed = 1;
nodes = (
(226,0,ls),
(447,0,o),
(576,125,o),
(576,346,cs),
(576,567,o),
(447,690,o),
(226,690,cs),
(56,690,l),
(56,546,l),
(218,546,ls),
(342,546,o),
(415,482,o),
(415,346,cs),
(415,210,o),
(342,144,o),
(219,144,cs),
(56,144,l),
(56,0,l)
);
},
{
closed = 1;
nodes = (
(296,280,l),
(296,412,l),
(56,412,l),
(56,280,l)
);
}
);
width = 626;
}
);
metricRight = "to-canadian";
note = uni156D;
unicode = 5485;
},
{
glyphname = "ttha-canadian";
lastChange = "2023-01-13 15:57:09 +0000";
layers = (
{
anchors = (
{
name = top_center_can;
pos = (312,690);
},
{
name = top_left_can;
pos = (130,690);
},
{
name = top_right_can;
pos = (491,690);
}
);
layerId = "9763B71A-4976-465B-BEF0-2F1E1DB14637";
shapes = (
{
closed = 1;
nodes = (
(570,0,l),
(570,144,l),
(408,144,ls),
(284,144,o),
(212,209,o),
(212,345,cs),
(212,481,o),
(284,546,o),
(408,546,cs),
(570,546,l),
(570,690,l),
(401,690,ls),
(180,690,o),
(50,566,o),
(50,345,cs),
(50,124,o),
(180,0,o),
(400,0,cs)
);
},
{
closed = 1;
nodes = (
(570,280,l),
(570,412,l),
(331,412,l),
(331,280,l)
);
}
);
width = 626;
}
);
metricLeft = "=|to-canadian";
metricRight = "=|ttho-canadian";
note = uni156E;
unicode = 5486;
},
{
glyphname = "tth-canadian";
lastChange = "2023-01-13 15:57:09 +0000";
layers = (
{
layerId = "9763B71A-4976-465B-BEF0-2F1E1DB14637";
shapes = (
{
closed = 1;
nodes = (
(649,460,l),
(608,460,l),
(697,332,l),
(771,386,l),
(680,512,l),
(667,471,l),
(810,521,l),
(781,606,l),
(639,555,l),
(674,531,l),
(674,690,l),
(582,690,l),
(582,531,l),
(618,555,l),
(475,606,l),
(446,521,l),
(590,471,l),
(577,512,l),
(486,386,l),
(559,332,l)
);
},
{
closed = 1;
nodes = (
(235,460,l),
(193,460,l),
(283,332,l),
(357,386,l),
(266,512,l),
(253,471,l),
(396,521,l),
(367,606,l),
(224,555,l),
(260,531,l),
(260,690,l),
(168,690,l),
(168,531,l),
(204,555,l),
(62,606,l),
(32,521,l),
(176,471,l),
(162,512,l),
(71,386,l),
(145,332,l)
);
}
);
width = 842;
}
);
metricRight = "=|";
note = uni156F;
unicode = 5487;
},
{
glyphname = "tye-canadian";
lastChange = "2023-01-13 15:57:09 +0000";
layers = (
{
layerId = "9763B71A-4976-465B-BEF0-2F1E1DB14637";
shapes = (
{
closed = 1;
nodes = (
(556,-14,o),
(669,104,o),
(669,309,cs),
(669,690,l),
(515,690,l),
(515,312,ls),
(515,188,o),
(459,130,o),
(362,130,cs),
(269,130,o),
(211,192,o),
(211,312,cs),
(211,690,l),
(56,690,l),
(56,308,ls),
(56,102,o),
(169,-14,o),
(363,-14,cs)
);
},
{
closed = 1;
nodes = (
(432,410,o),
(469,454,o),
(469,524,cs),
(469,690,l),
(395,690,l),
(395,527,ls),
(395,500,o),
(385,486,o),
(362,486,cs),
(341,486,o),
(329,500,o),
(329,527,cs),
(329,690,l),
(256,690,l),
(256,524,ls),
(256,452,o),
(296,410,o),
(363,410,cs)
);
}
);
width = 725;
}
);
metricLeft = "te-canadian";
metricRight = "te-canadian";
note = uni1570;
unicode = 5488;
},
{
glyphname = "tyi-canadian";
lastChange = "2023-01-13 15:57:09 +0000";
layers = (
{
layerId = "9763B71A-4976-465B-BEF0-2F1E1DB14637";
shapes = (
{
closed = 1;
nodes = (
(212,0,l),
(212,378,ls),
(212,498,o),
(271,559,o),
(365,559,cs),
(458,559,o),
(514,497,o),
(514,378,cs),
(514,0,l),
(669,0,l),
(669,382,ls),
(669,586,o),
(556,704,o),
(368,704,cs),
(173,704,o),
(56,586,o),
(56,382,cs),
(56,0,l)
);
},
{
closed = 1;
nodes = (
(329,0,l),
(329,161,ls),
(329,189,o),
(340,204,o),
(362,204,cs),
(384,204,o),
(395,189,o),
(395,161,cs),
(395,0,l),
(469,0,l),
(469,166,ls),
(469,238,o),
(430,280,o),
(362,280,cs),
(294,280,o),
(256,236,o),
(256,166,cs),
(256,0,l)
);
}
);
width = 725;
}
);
metricLeft = "te-canadian";
metricRight = "te-canadian";
note = uni1571;
unicode = 5489;
},
{
glyphname = "tyo-canadian";
lastChange = "2023-01-13 15:57:09 +0000";
layers = (
{
layerId = "9763B71A-4976-465B-BEF0-2F1E1DB14637";
shapes = (
{
closed = 1;
nodes = (
(233,0,ls),
(450,0,o),
(582,125,o),
(582,346,cs),
(582,567,o),
(450,690,o),
(232,690,cs),
(63,690,l),
(63,549,l),
(219,549,ls),
(348,549,o),
(421,483,o),
(421,346,cs),
(421,209,o),
(348,141,o),
(219,141,cs),
(63,141,l),
(63,0,l)
);
},
{
closed = 1;
nodes = (
(158,218,ls),
(242,218,o),
(290,265,o),
(290,345,cs),
(290,425,o),
(242,471,o),
(158,471,cs),
(63,471,l),
(63,393,l),
(148,393,ls),
(186,393,o),
(204,377,o),
(204,345,cs),
(204,313,o),
(186,297,o),
(148,297,cs),
(63,297,l),
(63,218,l)
);
}
);
width = 632;
}
);
metricLeft = "nunavuth-canadian";
metricRight = "theCarrier-canadian";
note = uni1572;
unicode = 5490;
},
{
glyphname = "tya-canadian";
lastChange = "2023-01-13 15:57:09 +0000";
layers = (
{
layerId = "9763B71A-4976-465B-BEF0-2F1E1DB14637";
shapes = (
{
closed = 1;
nodes = (
(570,0,l),
(570,141,l),
(413,141,ls),
(285,141,o),
(212,208,o),
(212,345,cs),
(212,482,o),
(285,549,o),
(413,549,cs),
(570,549,l),
(570,690,l),
(401,690,ls),
(182,690,o),
(50,566,o),
(50,345,cs),
(50,124,o),
(182,0,o),
(400,0,cs)
);
},
{
closed = 1;
nodes = (
(570,218,l),
(570,297,l),
(485,297,ls),
(446,297,o),
(429,313,o),
(429,345,cs),
(429,377,o),
(446,393,o),
(485,393,cs),
(570,393,l),
(570,471,l),
(474,471,ls),
(391,471,o),
(342,425,o),
(342,345,cs),
(342,265,o),
(391,218,o),
(474,218,cs)
);
}
);
width = 633;
}
);
metricLeft = "=|theCarrier-canadian";
metricRight = "nunavuth-canadian";
note = uni1573;
unicode = 5491;
},
{
glyphname = "heNunavik-canadian";
lastChange = "2023-01-13 15:57:09 +0000";
layers = (
{
layerId = "9763B71A-4976-465B-BEF0-2F1E1DB14637";
shapes = (
{
closed = 1;
nodes = (
(521,0,l),
(762,201,l),
(675,309,l),
(437,113,l),
(538,105,l),
(538,435,ls),
(538,602,o),
(446,704,o),
(294,704,cs),
(141,704,o),
(42,601,o),
(42,440,cs),
(42,286,o),
(134,184,o),
(267,184,cs),
(331,184,o),
(380,214,o),
(390,247,c),
(379,260,l),
(379,0,l)
);
},
{
closed = 1;
nodes = (
(236,319,o),
(199,360,o),
(199,443,cs),
(199,527,o),
(233,569,o),
(290,569,cs),
(346,569,o),
(381,527,o),
(381,443,cs),
(381,360,o),
(343,319,o),
(290,319,cs)
);
}
);
width = 781;
}
);
metricLeft = "ke-canadian";
note = uni1574;
unicode = 5492;
},
{
glyphname = "hiNunavik-canadian";
lastChange = "2023-01-13 15:57:15 +0000";
layers = (
{
anchors = (
{
name = top_center_can;
pos = (493,690);
}
);
layerId = "9763B71A-4976-465B-BEF0-2F1E1DB14637";
shapes = (
{
closed = 1;
nodes = (
(403,0,l),
(403,260,l),
(392,247,l),
(402,214,o),
(450,184,o),
(515,184,cs),
(647,184,o),
(741,287,o),
(741,442,cs),
(741,603,o),
(641,704,o),
(493,704,cs),
(340,704,o),
(244,602,o),
(244,435,cs),
(244,117,l),
(345,113,l),
(107,309,l),
(19,201,l),
(262,0,l)
);
},
{
closed = 1;
nodes = (
(439,319,o),
(401,360,o),
(401,443,cs),
(401,527,o),
(437,569,o),
(493,569,cs),
(549,569,o),
(583,527,o),
(583,443,cs),
(583,360,o),
(546,319,o),
(493,319,cs)
);
}
);
width = 783;
}
);
metricLeft = "=|heNunavik-canadian";
metricRight = "=|ke-canadian";
note = uni1575;
unicode = 5493;
},
{
glyphname = "hoNunavik-canadian";
lastChange = "2023-01-13 15:57:09 +0000";
layers = (
{
anchors = (
{
name = top_center_can;
pos = (289,690);
},
{
name = top_right_can;
pos = (459,690);
}
);
layerId = "9763B71A-4976-465B-BEF0-2F1E1DB14637";
shapes = (
{
closed = 1;
nodes = (
(446,-14,o),
(538,88,o),
(538,255,cs),
(538,584,l),
(437,577,l),
(675,381,l),
(762,489,l),
(521,690,l),
(379,690,l),
(379,430,l),
(390,442,l),
(380,475,o),
(331,506,o),
(269,506,cs),
(134,506,o),
(42,401,o),
(42,245,cs),
(42,86,o),
(137,-14,o),
(290,-14,cs)
);
},
{
closed = 1;
nodes = (
(233,121,o),
(199,162,o),
(199,246,cs),
(199,329,o),
(236,371,o),
(290,371,cs),
(343,371,o),
(381,329,o),
(381,246,cs),
(381,162,o),
(346,121,o),
(290,121,cs)
);
}
);
width = 781;
}
);
metricLeft = "ke-canadian";
metricRight = "heNunavik-canadian";
note = uni1577;
unicode = 5495;
},
{
glyphname = "haNunavik-canadian";
lastChange = "2023-01-13 15:57:15 +0000";
layers = (
{
anchors = (
{
name = top_center_can;
pos = (493,690);
},
{
name = top_left_can;
pos = (324,690);
}
);
layerId = "9763B71A-4976-465B-BEF0-2F1E1DB14637";
shapes = (
{
closed = 1;
nodes = (
(640,-14,o),
(741,87,o),
(741,248,cs),
(741,403,o),
(647,506,o),
(519,506,cs),
(453,506,o),
(405,475,o),
(392,442,c),
(403,430,l),
(403,690,l),
(262,690,l),
(19,489,l),
(107,381,l),
(345,577,l),
(244,573,l),
(244,255,ls),
(244,88,o),
(335,-14,o),
(491,-14,cs)
);
},
{
closed = 1;
nodes = (
(437,121,o),
(401,162,o),
(401,246,cs),
(401,329,o),
(439,371,o),
(493,371,cs),
(546,371,o),
(583,329,o),
(583,246,cs),
(583,162,o),
(549,121,o),
(493,121,cs)
);
}
);
width = 783;
}
);
metricLeft = "=|heNunavik-canadian";
metricRight = "=|ke-canadian";
note = uni1579;
unicode = 5497;
},
{
glyphname = "hNunavik-canadian";
kernLeft = mwestleft;
kernRight = mwestright;
lastChange = "2023-01-13 15:57:09 +0000";
layers = (
{
layerId = "9763B71A-4976-465B-BEF0-2F1E1DB14637";
shapes = (
{
closed = 1;
nodes = (
(364,339,o),
(424,386,o),
(424,472,cs),
(424,552,o),
(374,601,o),
(308,601,cs),
(270,601,o),
(242,581,o),
(234,555,c),
(255,555,l),
(255,690,l),
(154,690,l),
(34,589,l),
(83,529,l),
(203,630,l),
(146,635,l),
(146,475,ls),
(146,394,o),
(199,339,o),
(289,339,cs)
);
},
{
closed = 1;
nodes = (
(262,416,o),
(245,434,o),
(245,469,cs),
(245,506,o),
(264,524,o),
(286,524,cs),
(310,524,o),
(328,506,o),
(328,469,cs),
(328,434,o),
(310,416,o),
(286,416,cs)
);
}
);
width = 468;
}
);
metricRight = "k-canadian";
note = uni157B;
unicode = 5499;
},
{
color = 4;
glyphname = "nunavuth-canadian";
lastChange = "2023-01-13 15:57:09 +0000";
layers = (
{
layerId = "9763B71A-4976-465B-BEF0-2F1E1DB14637";
shapes = (
{
closed = 1;
nodes = (
(223,285,l),
(485,285,l),
(485,0,l),
(645,0,l),
(645,690,l),
(485,690,l),
(485,426,l),
(223,426,l),
(223,690,l),
(63,690,l),
(63,0,l),
(223,0,l)
);
}
);
width = 708;
}
);
metricRight = "=|";
note = uni157C;
unicode = 5500;
},
{
glyphname = "tlhe-canadian";
lastChange = "2023-01-13 15:57:09 +0000";
layers = (
{
anchors = (
{
name = top_center_can;
pos = (307,690);
}
);
layerId = "9763B71A-4976-465B-BEF0-2F1E1DB14637";
shapes = (
{
closed = 1;
nodes = (
(229,0,l),
(358,274,l),
(238,219,l),
(251,215,o),
(266,214,o),
(281,214,cs),
(347,214,o),
(396,243,o),
(407,271,c),
(397,328,l),
(397,0,l),
(555,0,l),
(555,443,ls),
(555,607,o),
(465,704,o),
(308,704,cs),
(142,704,o),
(52,595,o),
(52,456,cs),
(52,355,o),
(99,278,o),
(174,242,c),
(59,0,l)
);
},
{
closed = 1;
nodes = (
(245,350,o),
(209,387,o),
(209,458,cs),
(209,530,o),
(244,569,o),
(304,569,cs),
(363,569,o),
(399,530,o),
(399,459,cs),
(399,387,o),
(362,350,o),
(304,350,cs)
);
}
);
width = 611;
}
);
metricRight = "te-canadian";
note = uni1586;
unicode = 5510;
},
{
glyphname = "tlhi-canadian";
lastChange = "2023-01-13 15:57:09 +0000";
layers = (
{
layerId = "9763B71A-4976-465B-BEF0-2F1E1DB14637";
shapes = (
{
closed = 1;
nodes = (
(214,0,l),
(214,328,l),
(203,279,l),
(204,249,o),
(257,214,o),
(330,214,c),
(253,274,l),
(384,0,l),
(553,0,l),
(438,242,l),
(513,278,o),
(559,355,o),
(559,456,cs),
(559,595,o),
(470,704,o),
(304,704,cs),
(147,704,o),
(56,607,o),
(56,443,cs),
(56,0,l)
);
},
{
closed = 1;
nodes = (
(250,350,o),
(213,387,o),
(213,459,cs),
(213,530,o),
(249,569,o),
(308,569,cs),
(367,569,o),
(403,530,o),
(403,458,cs),
(403,387,o),
(366,350,o),
(308,350,cs)
);
}
);
width = 611;
}
);
metricLeft = "te-canadian";
metricRight = "=|tlhe-canadian";
note = uni1587;
unicode = 5511;
},
{
glyphname = "tlho-canadian";
lastChange = "2023-01-13 15:57:09 +0000";
layers = (
{
anchors = (
{
name = top_center_can;
pos = (315,690);
}
);
layerId = "9763B71A-4976-465B-BEF0-2F1E1DB14637";
shapes = (
{
closed = 1;
nodes = (
(465,-14,o),
(555,83,o),
(555,246,cs),
(555,690,l),
(397,690,l),
(397,361,l),
(409,411,l),
(408,440,o),
(355,475,o),
(281,475,c),
(358,415,l),
(229,690,l),
(59,690,l),
(174,447,l),
(99,412,o),
(52,335,o),
(52,234,cs),
(52,95,o),
(142,-14,o),
(308,-14,cs)
);
},
{
closed = 1;
nodes = (
(244,121,o),
(209,159,o),
(209,232,cs),
(209,302,o),
(245,340,o),
(304,340,cs),
(362,340,o),
(399,302,o),
(399,231,cs),
(399,159,o),
(363,121,o),
(304,121,cs)
);
}
);
width = 611;
}
);
metricLeft = "tlhe-canadian";
metricRight = "te-canadian";
note = uni1588;
unicode = 5512;
},
{
glyphname = "tlha-canadian";
lastChange = "2023-01-13 15:57:09 +0000";
layers = (
{
layerId = "9763B71A-4976-465B-BEF0-2F1E1DB14637";
shapes = (
{
closed = 1;
nodes = (
(470,-14,o),
(559,95,o),
(559,234,cs),
(559,335,o),
(513,412,o),
(438,447,c),
(553,690,l),
(384,690,l),
(253,415,l),
(374,470,l),
(360,474,o),
(346,475,o),
(330,475,cs),
(257,475,o),
(204,440,o),
(203,411,c),
(214,361,l),
(214,690,l),
(56,690,l),
(56,246,ls),
(56,83,o),
(147,-14,o),
(304,-14,cs)
);
},
{
closed = 1;
nodes = (
(249,121,o),
(213,159,o),
(213,231,cs),
(213,302,o),
(250,340,o),
(308,340,cs),
(366,340,o),
(403,302,o),
(403,232,cs),
(403,159,o),
(367,121,o),
(308,121,cs)
);
}
);
width = 611;
}
);
metricLeft = "te-canadian";
note = uni1589;
unicode = 5513;
},
{
glyphname = "reWestCree-canadian";
lastChange = "2023-01-13 15:57:09 +0000";
layers = (
{
layerId = "9763B71A-4976-465B-BEF0-2F1E1DB14637";
shapes = (
{
closed = 1;
nodes = (
(511,0,l),
(753,201,l),
(666,309,l),
(428,113,l),
(528,105,l),
(528,439,ls),
(528,608,o),
(440,704,o),
(289,704,cs),
(134,704,o),
(41,607,o),
(41,438,cs),
(41,380,l),
(199,380,l),
(199,454,ls),
(199,526,o),
(230,565,o),
(285,565,cs),
(339,565,o),
(370,527,o),
(370,453,cs),
(370,0,l)
);
}
);
width = 772;
}
);
metricLeft = "ce-canadian";
metricRight = "heNunavik-canadian";
note = uni158A;
unicode = 5514;
},
{
glyphname = "riWestCree-canadian";
lastChange = "2023-01-13 15:57:15 +0000";
layers = (
{
layerId = "9763B71A-4976-465B-BEF0-2F1E1DB14637";
shapes = (
{
closed = 1;
nodes = (
(403,0,l),
(403,453,ls),
(403,527,o),
(436,565,o),
(490,565,cs),
(546,565,o),
(574,527,o),
(574,454,cs),
(574,380,l),
(732,380,l),
(732,438,ls),
(732,607,o),
(643,704,o),
(492,704,cs),
(334,704,o),
(244,604,o),
(244,438,cs),
(244,105,l),
(345,113,l),
(107,309,l),
(19,201,l),
(262,0,l)
);
}
);
width = 773;
}
);
metricLeft = "=|heNunavik-canadian";
metricRight = "=|ce-canadian";
note = uni158B;
unicode = 5515;
},
{
glyphname = "roWestCree-canadian";
lastChange = "2023-01-13 15:57:09 +0000";
layers = (
{
layerId = "9763B71A-4976-465B-BEF0-2F1E1DB14637";
shapes = (
{
closed = 1;
nodes = (
(440,-14,o),
(528,81,o),
(528,251,cs),
(528,584,l),
(428,577,l),
(666,381,l),
(753,489,l),
(511,690,l),
(370,690,l),
(370,235,ls),
(370,160,o),
(339,125,o),
(285,125,cs),
(228,125,o),
(199,163,o),
(199,242,cs),
(199,310,l),
(41,310,l),
(41,252,ls),
(41,83,o),
(129,-14,o),
(288,-14,cs)
);
}
);
width = 772;
}
);
metricLeft = "ce-canadian";
metricRight = "heNunavik-canadian";
note = uni158C;
unicode = 5516;
},
{
glyphname = "raWestCree-canadian";
lastChange = "2023-01-13 15:57:15 +0000";
layers = (
{
layerId = "9763B71A-4976-465B-BEF0-2F1E1DB14637";
shapes = (
{
closed = 1;
nodes = (
(641,-14,o),
(732,83,o),
(732,252,cs),
(732,310,l),
(574,310,l),
(574,240,ls),
(574,161,o),
(544,125,o),
(490,125,cs),
(433,125,o),
(403,160,o),
(403,235,cs),
(403,690,l),
(262,690,l),
(19,489,l),
(107,381,l),
(345,577,l),
(244,584,l),
(244,251,ls),
(244,83,o),
(330,-14,o),
(490,-14,cs)
);
}
);
width = 773;
}
);
metricLeft = "=|heNunavik-canadian";
metricRight = "=|ce-canadian";
note = uni158D;
unicode = 5517;
},
{
glyphname = "ng-canadian";
kernLeft = mwestleft;
kernRight = mwestright;
lastChange = "2023-01-13 15:57:15 +0000";
layers = (
{
layerId = "9763B71A-4976-465B-BEF0-2F1E1DB14637";
shapes = (
{
closed = 1;
nodes = (
(547,217,o),
(601,267,o),
(601,349,cs),
(601,369,l),
(498,369,l),
(498,344,ls),
(498,317,o),
(485,301,o),
(463,301,cs),
(440,301,o),
(428,317,o),
(428,345,cs),
(428,536,l),
(278,536,l),
(285,491,l),
(303,503,o),
(320,533,o),
(320,571,cs),
(320,647,o),
(269,696,o),
(183,696,cs),
(99,696,o),
(44,645,o),
(44,565,cs),
(44,488,o),
(97,435,o),
(187,435,cs),
(339,435,l),
(319,461,l),
(319,358,ls),
(319,266,o),
(369,217,o),
(463,217,cs)
);
},
{
closed = 1;
nodes = (
(158,513,o),
(141,530,o),
(141,565,cs),
(141,601,o),
(158,619,o),
(183,619,cs),
(207,619,o),
(223,601,o),
(223,565,cs),
(223,531,o),
(207,513,o),
(183,513,cs)
);
}
);
width = 632;
}
);
metricLeft = "n-canadian";
metricRight = "c-canadian";
note = uni1595;
unicode = 5525;
},
{
glyphname = "nng-canadian";
kernLeft = mwestleft;
kernRight = mwestright;
lastChange = "2023-01-13 15:57:15 +0000";
layers = (
{
layerId = "9763B71A-4976-465B-BEF0-2F1E1DB14637";
shapes = (
{
closed = 1;
nodes = (
(843,217,o),
(896,267,o),
(896,349,cs),
(896,369,l),
(795,369,l),
(795,344,ls),
(795,317,o),
(782,301,o),
(758,301,cs),
(736,301,o),
(725,317,o),
(725,345,cs),
(725,536,l),
(583,536,l),
(590,491,l),
(609,503,o),
(624,533,o),
(624,571,cs),
(624,648,o),
(573,696,o),
(488,696,cs),
(402,696,o),
(350,646,o),
(350,569,cs),
(350,533,o),
(366,502,o),
(384,490,c),
(391,536,l),
(278,536,l),
(285,491,l),
(303,503,o),
(320,533,o),
(320,571,cs),
(320,647,o),
(269,696,o),
(183,696,cs),
(99,696,o),
(44,645,o),
(44,565,cs),
(44,488,o),
(97,435,o),
(187,435,cs),
(615,435,l),
(615,358,ls),
(615,266,o),
(665,217,o),
(758,217,cs)
);
},
{
closed = 1;
nodes = (
(158,513,o),
(141,530,o),
(141,565,cs),
(141,601,o),
(158,619,o),
(183,619,cs),
(207,619,o),
(223,601,o),
(223,565,cs),
(223,531,o),
(207,513,o),
(183,513,cs)
);
},
{
closed = 1;
nodes = (
(463,513,o),
(446,530,o),
(446,565,cs),
(446,601,o),
(463,619,o),
(488,619,cs),
(511,619,o),
(528,601,o),
(528,565,cs),
(528,531,o),
(512,513,o),
(488,513,cs)
);
}
);
width = 927;
}
);
metricLeft = "n-canadian";
metricRight = "c-canadian";
note = uni1596;
unicode = 5526;
},
{
glyphname = "sheSayisi-canadian";
lastChange = "2023-01-13 15:57:09 +0000";
layers = (
{
anchors = (
{
name = middle_right_can;
pos = (690,345);
},
{
name = top_center_can;
pos = (300,690);
}
);
layerId = "9763B71A-4976-465B-BEF0-2F1E1DB14637";
shapes = (
{
closed = 1;
nodes = (
(545,0,l),
(545,438,ls),
(545,602,o),
(456,704,o),
(300,704,cs),
(140,704,o),
(42,597,o),
(42,425,cs),
(42,262,o),
(118,184,o),
(213,184,cs),
(319,184,o),
(364,269,o),
(355,413,c),
(272,413,l),
(275,336,o),
(262,315,o),
(239,315,cs),
(214,315,o),
(195,339,o),
(195,429,cs),
(195,526,o),
(234,569,o),
(294,569,cs),
(353,569,o),
(384,528,o),
(384,434,cs),
(384,0,l)
);
}
);
width = 601;
}
);
metricLeft = "ke-canadian";
metricRight = "te-canadian";
note = uni1597;
unicode = 5527;
},
{
glyphname = "shiSayisi-canadian";
lastChange = "2023-01-13 15:57:09 +0000";
layers = (
{
layerId = "9763B71A-4976-465B-BEF0-2F1E1DB14637";
shapes = (
{
closed = 1;
nodes = (
(216,0,l),
(216,434,ls),
(216,528,o),
(251,569,o),
(310,569,cs),
(370,569,o),
(406,527,o),
(406,430,cs),
(406,339,o),
(386,315,o),
(362,315,cs),
(339,315,o),
(326,336,o),
(328,413,c),
(245,413,l),
(237,269,o),
(282,184,o),
(387,184,cs),
(483,184,o),
(559,262,o),
(559,425,cs),
(559,597,o),
(468,704,o),
(311,704,cs),
(150,704,o),
(56,602,o),
(56,438,cs),
(56,0,l)
);
}
);
width = 601;
}
);
metricLeft = "te-canadian";
metricRight = "=|ke-canadian";
note = uni1598;
unicode = 5528;
},
{
glyphname = "shoSayisi-canadian";
lastChange = "2023-01-13 15:57:09 +0000";
layers = (
{
anchors = (
{
name = top_center_can;
pos = (292,690);
},
{
name = top_left_can;
pos = (119,690);
},
{
name = top_right_can;
pos = (466,690);
}
);
layerId = "9763B71A-4976-465B-BEF0-2F1E1DB14637";
shapes = (
{
closed = 1;
nodes = (
(451,-14,o),
(545,88,o),
(545,252,cs),
(545,690,l),
(384,690,l),
(384,256,ls),
(384,161,o),
(350,121,o),
(291,121,cs),
(231,121,o),
(195,162,o),
(195,260,cs),
(195,351,o),
(214,375,o),
(239,375,cs),
(262,375,o),
(275,354,o),
(272,276,c),
(355,276,l),
(364,421,o),
(320,506,o),
(213,506,cs),
(118,506,o),
(42,428,o),
(42,259,cs),
(42,91,o),
(133,-14,o),
(290,-14,cs)
);
}
);
width = 601;
}
);
metricLeft = "ke-canadian";
metricRight = "te-canadian";
note = uni1599;
unicode = 5529;
},
{
glyphname = "shaSayisi-canadian";
lastChange = "2023-01-13 15:57:09 +0000";
layers = (
{
layerId = "9763B71A-4976-465B-BEF0-2F1E1DB14637";
shapes = (
{
closed = 1;
nodes = (
(461,-14,o),
(559,93,o),
(559,265,cs),
(559,428,o),
(487,506,o),
(391,506,cs),
(286,506,o),
(237,421,o),
(245,276,c),
(328,276,l),
(326,354,o),
(339,375,o),
(362,375,cs),
(386,375,o),
(406,351,o),
(406,261,cs),
(406,163,o),
(367,121,o),
(307,121,cs),
(248,121,o),
(216,161,o),
(216,256,cs),
(216,690,l),
(56,690,l),
(56,252,ls),
(56,88,o),
(145,-14,o),
(301,-14,cs)
);
}
);
width = 601;
}
);
metricLeft = "te-canadian";
metricRight = "=|ke-canadian";
note = uni159A;
unicode = 5530;
},
{
glyphname = "theWoodScree-canadian";
lastChange = "2023-01-13 15:57:09 +0000";
layers = (
{
layerId = "9763B71A-4976-465B-BEF0-2F1E1DB14637";
shapes = (
{
closed = 1;
nodes = (
(663,-14,o),
(767,83,o),
(767,240,cs),
(767,402,o),
(666,492,o),
(495,492,cs),
(50,492,l),
(50,362,l),
(336,362,l),
(313,384,l),
(279,348,o),
(262,288,o),
(262,231,cs),
(262,79,o),
(360,-14,o),
(514,-14,cs)
);
},
{
closed = 1;
nodes = (
(452,121,o),
(419,168,o),
(419,240,cs),
(419,310,o),
(452,357,o),
(514,357,cs),
(576,357,o),
(610,311,o),
(610,240,cs),
(610,167,o),
(576,121,o),
(514,121,cs)
);
},
{
closed = 1;
nodes = (
(754,560,l),
(754,690,l),
(50,690,l),
(50,560,l)
);
}
);
width = 817;
}
);
note = uni159B;
unicode = 5531;
},
{
glyphname = "thiWoodScree-canadian";
kernRight = niright;
lastChange = "2023-01-13 15:57:09 +0000";
layers = (
{
layerId = "9763B71A-4976-465B-BEF0-2F1E1DB14637";
shapes = (
{
closed = 1;
nodes = (
(457,-14,o),
(555,79,o),
(555,233,cs),
(555,291,o),
(537,350,o),
(504,386,c),
(481,362,l),
(767,362,l),
(767,492,l),
(325,492,ls),
(150,492,o),
(50,392,o),
(50,237,cs),
(50,83,o),
(153,-14,o),
(303,-14,cs)
);
},
{
closed = 1;
nodes = (
(242,121,o),
(208,167,o),
(208,240,cs),
(208,311,o),
(242,357,o),
(303,357,cs),
(364,357,o),
(398,310,o),
(398,240,cs),
(398,168,o),
(364,121,o),
(303,121,cs)
);
},
{
closed = 1;
nodes = (
(767,560,l),
(767,690,l),
(63,690,l),
(63,560,l)
);
}
);
width = 817;
}
);
metricLeft = "theWoodScree-canadian";
metricRight = "theWoodScree-canadian";
note = uni159C;
unicode = 5532;
},
{
glyphname = "thoWoodScree-canadian";
lastChange = "2023-01-13 15:57:09 +0000";
layers = (
{
layerId = "9763B71A-4976-465B-BEF0-2F1E1DB14637";
shapes = (
{
closed = 1;
nodes = (
(500,0,ls),
(668,0,o),
(767,94,o),
(767,252,cs),
(767,409,o),
(666,506,o),
(514,506,cs),
(360,506,o),
(262,411,o),
(262,260,cs),
(262,203,o),
(279,144,o),
(314,107,c),
(336,129,l),
(50,129,l),
(50,0,l)
);
},
{
closed = 1;
nodes = (
(452,134,o),
(419,182,o),
(419,253,cs),
(419,325,o),
(452,371,o),
(514,371,cs),
(576,371,o),
(610,325,o),
(610,253,cs),
(610,181,o),
(576,134,o),
(514,134,cs)
);
},
{
closed = 1;
nodes = (
(754,560,l),
(754,690,l),
(50,690,l),
(50,560,l)
);
}
);
width = 817;
}
);
metricLeft = "theWoodScree-canadian";
metricRight = "theWoodScree-canadian";
note = uni159D;
unicode = 5533;
},
{
glyphname = "thaWoodScree-canadian";
lastChange = "2023-01-13 15:57:09 +0000";
layers = (
{
layerId = "9763B71A-4976-465B-BEF0-2F1E1DB14637";
shapes = (
{
closed = 1;
nodes = (
(767,0,l),
(767,129,l),
(481,129,l),
(503,105,l),
(537,142,o),
(555,202,o),
(555,259,cs),
(555,412,o),
(457,506,o),
(303,506,cs),
(153,506,o),
(50,409,o),
(50,252,cs),
(50,98,o),
(148,0,o),
(319,0,cs)
);
},
{
closed = 1;
nodes = (
(242,134,o),
(208,181,o),
(208,253,cs),
(208,325,o),
(242,371,o),
(303,371,cs),
(364,371,o),
(398,325,o),
(398,253,cs),
(398,182,o),
(364,134,o),
(303,134,cs)
);
},
{
closed = 1;
nodes = (
(767,560,l),
(767,690,l),
(63,690,l),
(63,560,l)
);
}
);
width = 817;
}
);
metricLeft = "theWoodScree-canadian";
metricRight = "theWoodScree-canadian";
note = uni159E;
unicode = 5534;
},
{
glyphname = "thWoodScree-canadian";
lastChange = "2023-01-13 15:57:15 +0000";
layers = (
{
layerId = "9763B71A-4976-465B-BEF0-2F1E1DB14637";
shapes = (
{
closed = 1;
nodes = (
(441,344,l),
(441,437,l),
(285,437,l),
(290,398,l),
(310,409,o),
(328,440,o),
(328,480,cs),
(328,556,o),
(277,606,o),
(191,606,cs),
(107,606,o),
(53,554,o),
(53,474,cs),
(53,397,o),
(105,344,o),
(196,344,cs)
);
},
{
closed = 1;
nodes = (
(167,422,o),
(150,440,o),
(150,474,cs),
(150,510,o),
(167,528,o),
(191,528,cs),
(215,528,o),
(232,510,o),
(232,474,cs),
(232,440,o),
(215,422,o),
(191,422,cs)
);
},
{
closed = 1;
nodes = (
(437,639,l),
(437,732,l),
(58,732,l),
(58,639,l)
);
}
);
width = 494;
}
);
metricRight = "=|";
note = uni159F;
unicode = 5535;
},
{
glyphname = "lhi-canadian";
kernRight = niright;
lastChange = "2023-01-13 15:57:09 +0000";
layers = (
{
anchors = (
{
name = top_center_can;
pos = (427,690);
},
{
name = top_right_can;
pos = (543,690);
}
);
layerId = "9763B71A-4976-465B-BEF0-2F1E1DB14637";
shapes = (
{
closed = 1;
nodes = (
(372,0,l),
(372,140,l),
(319,140,ls),
(242,140,o),
(200,176,o),
(200,243,cs),
(200,310,o),
(240,349,o),
(316,349,cs),
(758,349,l),
(758,475,l),
(575,741,l),
(459,662,l),
(641,396,l),
(634,492,l),
(311,492,ls),
(146,492,o),
(42,400,o),
(42,244,cs),
(42,90,o),
(146,0,o),
(312,0,cs)
);
}
);
width = 799;
}
);
metricLeft = "ke-canadian";
metricRight = "=|ne-canadian";
note = uni15A0;
unicode = 5536;
},
{
glyphname = "lho-canadian";
kernLeft = noleft;
lastChange = "2023-01-13 15:57:09 +0000";
layers = (
{
anchors = (
{
name = top_center_can;
pos = (397,510);
},
{
name = top_right_can;
pos = (502,510);
}
);
layerId = "9763B71A-4976-465B-BEF0-2F1E1DB14637";
shapes = (
{
closed = 1;
nodes = (
(340,-170,l),
(156,96,l),
(164,0,l),
(485,0,ls),
(654,0,o),
(757,90,o),
(757,246,cs),
(757,404,o),
(651,492,o),
(491,492,cs),
(427,492,l),
(427,353,l),
(480,353,ls),
(558,353,o),
(598,316,o),
(598,248,cs),
(598,182,o),
(557,143,o),
(483,143,cs),
(41,143,l),
(41,16,l),
(223,-249,l)
);
}
);
width = 799;
}
);
metricLeft = "ne-canadian";
metricRight = "=|ke-canadian";
note = uni15A2;
unicode = 5538;
},
{
glyphname = "lha-canadian";
kernRight = naright;
lastChange = "2023-01-13 15:57:09 +0000";
layers = (
{
anchors = (
{
name = top_center_can;
pos = (402,510);
},
{
name = top_left_can;
pos = (298,510);
}
);
layerId = "9763B71A-4976-465B-BEF0-2F1E1DB14637";
shapes = (
{
closed = 1;
nodes = (
(758,16,l),
(758,143,l),
(316,143,ls),
(239,143,o),
(200,181,o),
(200,247,cs),
(200,316,o),
(242,353,o),
(315,353,cs),
(372,353,l),
(372,492,l),
(309,492,ls),
(145,492,o),
(42,399,o),
(42,245,cs),
(42,89,o),
(145,0,o),
(311,0,cs),
(634,0,l),
(641,96,l),
(459,-170,l),
(575,-249,l)
);
}
);
width = 799;
}
);
metricLeft = "ke-canadian";
metricRight = "=|ne-canadian";
note = uni15A4;
unicode = 5540;
},
{
glyphname = "lh-canadian";
kernLeft = mwestleft;
kernRight = mwestright;
lastChange = "2023-01-13 15:57:09 +0000";
layers = (
{
layerId = "9763B71A-4976-465B-BEF0-2F1E1DB14637";
shapes = (
{
closed = 1;
nodes = (
(429,356,l),
(429,446,l),
(236,446,ls),
(184,446,o),
(156,470,o),
(156,518,cs),
(156,565,o),
(184,592,o),
(232,592,cs),
(246,592,l),
(246,690,l),
(223,690,ls),
(113,690,o),
(46,621,o),
(46,517,cs),
(46,410,o),
(113,345,o),
(229,345,cs),
(363,345,l),
(355,408,l),
(251,259,l),
(326,208,l)
);
}
);
width = 475;
}
);
metricLeft = "t-canadian";
metricRight = "=|";
note = uni15A6;
unicode = 5542;
},
{
glyphname = "theThCree-canadian";
lastChange = "2023-01-13 15:57:09 +0000";
layers = (
{
anchors = (
{
name = top_left_can;
pos = (108,690);
},
{
name = top_right_can;
pos = (439,690);
}
);
layerId = "9763B71A-4976-465B-BEF0-2F1E1DB14637";
shapes = (
{
closed = 1;
nodes = (
(518,0,l),
(518,74,l),
(588,74,l),
(588,159,l),
(518,159,l),
(518,353,l),
(239,353,l),
(238,276,l),
(539,607,l),
(431,701,l),
(29,253,l),
(29,213,l),
(357,213,l),
(357,159,l),
(146,159,l),
(146,74,l),
(357,74,l),
(357,0,l)
);
}
);
width = 615;
}
);
metricLeft = "ye-canadian";
note = uni15A7;
unicode = 5543;
},
{
glyphname = "thiThCree-canadian";
kernRight = yiright;
lastChange = "2023-01-13 15:57:09 +0000";
layers = (
{
anchors = (
{
name = top_left_can;
pos = (178,690);
},
{
name = top_right_can;
pos = (507,690);
}
);
layerId = "9763B71A-4976-465B-BEF0-2F1E1DB14637";
shapes = (
{
closed = 1;
nodes = (
(259,0,l),
(259,74,l),
(469,74,l),
(469,159,l),
(259,159,l),
(259,213,l),
(586,213,l),
(586,253,l),
(185,701,l),
(79,608,l),
(384,271,l),
(381,353,l),
(98,353,l),
(98,159,l),
(27,159,l),
(27,74,l),
(98,74,l),
(98,0,l)
);
}
);
width = 615;
}
);
metricLeft = "=|theThCree-canadian";
metricRight = "=|ye-canadian";
note = uni15A8;
unicode = 5544;
},
{
glyphname = "thoThCree-canadian";
kernLeft = yoleft;
lastChange = "2023-01-13 15:57:09 +0000";
layers = (
{
anchors = (
{
name = top_left_can;
pos = (108,690);
},
{
name = top_right_can;
pos = (438,690);
}
);
layerId = "9763B71A-4976-465B-BEF0-2F1E1DB14637";
shapes = (
{
closed = 1;
nodes = (
(537,82,l),
(237,412,l),
(236,337,l),
(518,337,l),
(518,530,l),
(588,530,l),
(588,615,l),
(518,615,l),
(518,690,l),
(357,690,l),
(357,615,l),
(146,615,l),
(146,530,l),
(357,530,l),
(357,476,l),
(29,476,l),
(29,437,l),
(431,-12,l)
);
}
);
width = 615;
}
);
metricLeft = "ye-canadian";
metricRight = "theThCree-canadian";
note = uni15AA;
unicode = 5546;
},
{
glyphname = "thaThCree-canadian";
kernRight = yaright;
lastChange = "2023-01-13 15:57:09 +0000";
layers = (
{
anchors = (
{
name = top_left_can;
pos = (179,690);
},
{
name = top_right_can;
pos = (507,690);
}
);
layerId = "9763B71A-4976-465B-BEF0-2F1E1DB14637";
shapes = (
{
closed = 1;
nodes = (
(586,437,l),
(586,476,l),
(259,476,l),
(259,530,l),
(469,530,l),
(469,615,l),
(259,615,l),
(259,690,l),
(98,690,l),
(98,615,l),
(27,615,l),
(27,530,l),
(98,530,l),
(98,337,l),
(381,337,l),
(380,412,l),
(79,82,l),
(185,-12,l)
);
}
);
width = 615;
}
);
metricLeft = "=|theThCree-canadian";
metricRight = "=|ye-canadian";
note = uni15AC;
unicode = 5548;
},
{
glyphname = "thThCree-canadian";
kernLeft = mwestleft;
kernRight = mwestright;
lastChange = "2023-01-13 15:57:09 +0000";
layers = (
{
layerId = "9763B71A-4976-465B-BEF0-2F1E1DB14637";
shapes = (
{
closed = 1;
nodes = (
(338,555,l),
(338,582,l),
(186,582,l),
(186,614,l),
(279,614,l),
(279,658,l),
(186,658,l),
(186,690,l),
(77,690,l),
(77,658,l),
(41,658,l),
(41,614,l),
(77,614,l),
(77,497,l),
(237,497,l),
(221,562,l),
(75,393,l),
(150,335,l)
);
}
);
width = 360;
}
);
metricRight = "y-canadian";
note = uni15AE;
unicode = 5550;
},
{
glyphname = "bAivilik-canadian";
lastChange = "2023-01-13 15:57:09 +0000";
layers = (
{
layerId = "9763B71A-4976-465B-BEF0-2F1E1DB14637";
shapes = (
{
closed = 1;
nodes = (
(468,-14,o),
(561,92,o),
(561,248,cs),
(561,397,o),
(478,506,o),
(342,506,cs),
(273,506,o),
(225,475,o),
(213,442,c),
(223,415,l),
(223,690,l),
(63,690,l),
(63,0,l),
(214,0,l),
(214,74,l),
(210,54,l),
(225,19,o),
(272,-14,o),
(342,-14,cs)
);
},
{
closed = 1;
nodes = (
(257,121,o),
(222,162,o),
(222,246,cs),
(222,329,o),
(259,371,o),
(313,371,cs),
(366,371,o),
(404,329,o),
(404,246,cs),
(404,162,o),
(369,121,o),
(313,121,cs)
);
}
);
width = 603;
}
);
metricLeft = "nunavuth-canadian";
metricRight = "=|ke-canadian";
note = uni15AF;
unicode = 5551;
},
{
glyphname = "eBlackfoot-canadian";
lastChange = "2023-01-13 15:57:09 +0000";
layers = (
{
layerId = "9763B71A-4976-465B-BEF0-2F1E1DB14637";
shapes = (
{
closed = 1;
nodes = (
(223,0,l),
(223,399,l),
(252,364,o),
(297,342,o),
(350,342,cs),
(451,342,o),
(519,419,o),
(519,524,cs),
(519,628,o),
(451,704,o),
(350,704,cs),
(293,704,o),
(244,679,o),
(216,638,c),
(216,690,l),
(63,690,l),
(63,0,l)
);
}
);
width = 555;
}
);
metricLeft = "nunavuth-canadian";
note = uni15B0;
unicode = 5552;
},
{
glyphname = "iBlackfoot-canadian";
lastChange = "2023-01-13 15:57:15 +0000";
layers = (
{
layerId = "9763B71A-4976-465B-BEF0-2F1E1DB14637";
shapes = (
{
closed = 1;
nodes = (
(263,-14,o),
(311,11,o),
(339,52,c),
(339,0,l),
(493,0,l),
(493,690,l),
(332,690,l),
(332,291,l),
(302,326,o),
(258,348,o),
(205,348,cs),
(104,348,o),
(36,270,o),
(36,166,cs),
(36,62,o),
(104,-14,o),
(205,-14,cs)
);
}
);
width = 556;
}
);
metricLeft = "=|eBlackfoot-canadian";
metricRight = "nunavuth-canadian";
note = uni15B1;
unicode = 5553;
},
{
glyphname = "oBlackfoot-canadian";
lastChange = "2023-01-13 15:57:09 +0000";
layers = (
{
layerId = "9763B71A-4976-465B-BEF0-2F1E1DB14637";
shapes = (
{
closed = 1;
nodes = (
(451,-14,o),
(519,62,o),
(519,166,cs),
(519,270,o),
(451,348,o),
(350,348,cs),
(297,348,o),
(252,326,o),
(223,291,c),
(223,690,l),
(63,690,l),
(63,0,l),
(216,0,l),
(216,52,l),
(244,11,o),
(293,-14,o),
(350,-14,cs)
);
}
);
width = 555;
}
);
metricLeft = "nunavuth-canadian";
metricRight = "eBlackfoot-canadian";
note = uni15B2;
unicode = 5554;
},
{
glyphname = "aBlackfoot-canadian";
lastChange = "2023-01-13 15:57:15 +0000";
layers = (
{
layerId = "9763B71A-4976-465B-BEF0-2F1E1DB14637";
shapes = (
{
closed = 1;
nodes = (
(493,0,l),
(493,690,l),
(339,690,l),
(339,638,l),
(311,679,o),
(263,704,o),
(205,704,cs),
(104,704,o),
(36,628,o),
(36,524,cs),
(36,419,o),
(104,342,o),
(205,342,cs),
(258,342,o),
(302,364,o),
(332,399,c),
(332,0,l)
);
}
);
width = 556;
}
);
metricLeft = "=|eBlackfoot-canadian";
metricRight = "nunavuth-canadian";
note = uni15B3;
unicode = 5555;
},
{
glyphname = "weBlackfoot-canadian";
lastChange = "2023-01-13 15:57:09 +0000";
layers = (
{
layerId = "9763B71A-4976-465B-BEF0-2F1E1DB14637";
shapes = (
{
closed = 1;
nodes = (
(223,276,l),
(546,276,l),
(546,409,l),
(223,409,l),
(223,556,l),
(546,556,l),
(546,690,l),
(63,690,l),
(63,0,l),
(223,0,l)
);
}
);
width = 596;
}
);
metricLeft = "nunavuth-canadian";
note = uni15B4;
unicode = 5556;
},
{
glyphname = "wiBlackfoot-canadian";
lastChange = "2023-01-13 15:57:09 +0000";
layers = (
{
layerId = "9763B71A-4976-465B-BEF0-2F1E1DB14637";
shapes = (
{
closed = 1;
nodes = (
(533,0,l),
(533,690,l),
(373,690,l),
(373,413,l),
(50,413,l),
(50,281,l),
(373,281,l),
(373,133,l),
(50,133,l),
(50,0,l)
);
}
);
width = 596;
}
);
metricLeft = "=|weBlackfoot-canadian";
metricRight = "nunavuth-canadian";
note = uni15B5;
unicode = 5557;
},
{
glyphname = "woBlackfoot-canadian";
lastChange = "2023-01-13 15:57:09 +0000";
layers = (
{
layerId = "9763B71A-4976-465B-BEF0-2F1E1DB14637";
shapes = (
{
closed = 1;
nodes = (
(546,0,l),
(546,133,l),
(223,133,l),
(223,281,l),
(546,281,l),
(546,413,l),
(223,413,l),
(223,690,l),
(63,690,l),
(63,0,l)
);
}
);
width = 596;
}
);
metricLeft = "nunavuth-canadian";
metricRight = "weBlackfoot-canadian";
note = uni15B6;
unicode = 5558;
},
{
glyphname = "waBlackfoot-canadian";
lastChange = "2023-01-13 15:57:09 +0000";
layers = (
{
layerId = "9763B71A-4976-465B-BEF0-2F1E1DB14637";
shapes = (
{
closed = 1;
nodes = (
(533,0,l),
(533,690,l),
(50,690,l),
(50,556,l),
(373,556,l),
(373,409,l),
(50,409,l),
(50,276,l),
(373,276,l),
(373,0,l)
);
}
);
width = 596;
}
);
metricLeft = "=|weBlackfoot-canadian";
metricRight = "nunavuth-canadian";
note = uni15B7;
unicode = 5559;
},
{
glyphname = "neBlackfoot-canadian";
lastChange = "2023-01-13 15:57:09 +0000";
layers = (
{
layerId = "9763B71A-4976-465B-BEF0-2F1E1DB14637";
shapes = (
{
closed = 1;
nodes = (
(223,0,l),
(223,574,l),
(274,574,l),
(235,672,l),
(235,651,ls),
(235,485,o),
(326,384,o),
(481,384,cs),
(630,384,o),
(730,484,o),
(730,645,cs),
(730,690,l),
(574,690,l),
(574,637,ls),
(574,562,o),
(539,520,o),
(482,520,cs),
(425,520,o),
(391,562,o),
(391,637,cs),
(391,690,l),
(63,690,l),
(63,0,l)
);
}
);
width = 758;
}
);
metricLeft = "nunavuth-canadian";
note = uni15B8;
unicode = 5560;
},
{
glyphname = "niBlackfoot-canadian";
lastChange = "2023-01-13 15:57:09 +0000";
layers = (
{
layerId = "9763B71A-4976-465B-BEF0-2F1E1DB14637";
shapes = (
{
closed = 1;
nodes = (
(185,0,l),
(185,53,ls),
(185,128,o),
(219,170,o),
(276,170,cs),
(333,170,o),
(367,128,o),
(367,53,cs),
(367,0,l),
(696,0,l),
(696,690,l),
(536,690,l),
(536,116,l),
(485,116,l),
(525,17,l),
(525,39,ls),
(525,205,o),
(434,306,o),
(278,306,cs),
(128,306,o),
(28,206,o),
(28,44,cs),
(28,0,l)
);
}
);
width = 759;
}
);
metricLeft = "=|neBlackfoot-canadian";
metricRight = "nunavuth-canadian";
note = uni15B9;
unicode = 5561;
},
{
glyphname = "noBlackfoot-canadian";
lastChange = "2023-01-13 15:57:09 +0000";
layers = (
{
layerId = "9763B71A-4976-465B-BEF0-2F1E1DB14637";
shapes = (
{
closed = 1;
nodes = (
(391,0,l),
(391,53,ls),
(391,128,o),
(425,170,o),
(482,170,cs),
(539,170,o),
(574,128,o),
(574,53,cs),
(574,0,l),
(730,0,l),
(730,44,ls),
(730,206,o),
(630,306,o),
(481,306,cs),
(326,306,o),
(235,205,o),
(235,39,cs),
(235,17,l),
(274,116,l),
(223,116,l),
(223,690,l),
(63,690,l),
(63,0,l)
);
}
);
width = 758;
}
);
metricLeft = "nunavuth-canadian";
metricRight = "neBlackfoot-canadian";
note = uni15BA;
unicode = 5562;
},
{
glyphname = "naBlackfoot-canadian";
lastChange = "2023-01-13 15:57:09 +0000";
layers = (
{
layerId = "9763B71A-4976-465B-BEF0-2F1E1DB14637";
shapes = (
{
closed = 1;
nodes = (
(696,0,l),
(696,690,l),
(367,690,l),
(367,637,ls),
(367,562,o),
(333,520,o),
(276,520,cs),
(219,520,o),
(185,562,o),
(185,637,cs),
(185,690,l),
(28,690,l),
(28,645,ls),
(28,484,o),
(128,384,o),
(278,384,cs),
(434,384,o),
(525,485,o),
(525,651,cs),
(525,672,l),
(485,574,l),
(536,574,l),
(536,0,l)
);
}
);
width = 759;
}
);
metricLeft = "=|neBlackfoot-canadian";
metricRight = "nunavuth-canadian";
note = uni15BB;
unicode = 5563;
},
{
glyphname = "keBlackfoot-canadian";
lastChange = "2023-01-13 15:57:09 +0000";
layers = (
{
layerId = "9763B71A-4976-465B-BEF0-2F1E1DB14637";
shapes = (
{
closed = 1;
nodes = (
(223,0,l),
(223,504,l),
(167,504,l),
(309,249,l),
(372,249,l),
(615,690,l),
(449,690,l),
(296,411,l),
(365,411,l),
(212,690,l),
(63,690,l),
(63,0,l)
);
}
);
width = 623;
}
);
metricLeft = "nunavuth-canadian";
note = uni15BC;
unicode = 5564;
},
{
glyphname = "kiBlackfoot-canadian";
lastChange = "2023-01-13 15:57:09 +0000";
layers = (
{
layerId = "9763B71A-4976-465B-BEF0-2F1E1DB14637";
shapes = (
{
closed = 1;
nodes = (
(174,0,l),
(328,279,l),
(258,279,l),
(412,0,l),
(561,0,l),
(561,690,l),
(401,690,l),
(401,185,l),
(457,185,l),
(314,440,l),
(251,440,l),
(8,0,l)
);
}
);
width = 624;
}
);
metricLeft = "=|keBlackfoot-canadian";
metricRight = "nunavuth-canadian";
note = uni15BD;
unicode = 5565;
},
{
glyphname = "koBlackfoot-canadian";
lastChange = "2023-01-13 15:57:09 +0000";
layers = (
{
layerId = "9763B71A-4976-465B-BEF0-2F1E1DB14637";
shapes = (
{
closed = 1;
nodes = (
(212,0,l),
(365,279,l),
(296,279,l),
(449,0,l),
(615,0,l),
(372,440,l),
(309,440,l),
(167,185,l),
(223,185,l),
(223,690,l),
(63,690,l),
(63,0,l)
);
}
);
width = 623;
}
);
metricLeft = "nunavuth-canadian";
metricRight = "keBlackfoot-canadian";
note = uni15BE;
unicode = 5566;
},
{
glyphname = "kaBlackfoot-canadian";
lastChange = "2023-01-13 15:57:09 +0000";
layers = (
{
layerId = "9763B71A-4976-465B-BEF0-2F1E1DB14637";
shapes = (
{
closed = 1;
nodes = (
(561,0,l),
(561,690,l),
(412,690,l),
(258,411,l),
(328,411,l),
(174,690,l),
(8,690,l),
(251,249,l),
(314,249,l),
(457,504,l),
(401,504,l),
(401,0,l)
);
}
);
width = 624;
}
);
metricLeft = "=|keBlackfoot-canadian";
metricRight = "nunavuth-canadian";
note = uni15BF;
unicode = 5567;
},
{
color = 9;
glyphname = "heSayisi-canadian";
lastChange = "2023-01-13 15:57:15 +0000";
layers = (
{
anchors = (
{
name = top_right_can;
pos = (559,690);
}
);
layerId = "9763B71A-4976-465B-BEF0-2F1E1DB14637";
shapes = (
{
closed = 1;
nodes = (
(639,0,l),
(639,690,l),
(479,690,l),
(479,369,l),
(504,369,l),
(496,575,o),
(393,704,o),
(257,704,cs),
(117,704,o),
(42,599,o),
(42,436,cs),
(42,402,o),
(44,365,o),
(52,328,c),
(206,328,l),
(200,362,o),
(197,394,o),
(197,419,cs),
(197,517,o),
(233,564,o),
(292,564,cs),
(390,564,o),
(474,439,o),
(478,0,c)
);
}
);
width = 702;
}
);
metricRight = "nunavuth-canadian";
note = uni15C0;
unicode = 5568;
},
{
color = 9;
glyphname = "hiSayisi-canadian";
lastChange = "2023-01-13 15:57:15 +0000";
layers = (
{
layerId = "9763B71A-4976-465B-BEF0-2F1E1DB14637";
shapes = (
{
closed = 1;
nodes = (
(223,0,l),
(227,439,o),
(310,564,o),
(409,564,cs),
(468,564,o),
(503,517,o),
(503,419,cs),
(503,394,o),
(500,362,o),
(496,328,c),
(648,328,l),
(656,365,o),
(659,402,o),
(659,436,cs),
(659,599,o),
(583,704,o),
(443,704,cs),
(307,704,o),
(206,575,o),
(196,369,c),
(221,369,l),
(221,690,l),
(63,690,l),
(63,0,l)
);
}
);
width = 701;
}
);
metricLeft = "nunavuth-canadian";
metricRight = "=|heSayisi-canadian";
note = uni15C1;
unicode = 5569;
},
{
color = 9;
glyphname = "hoSayisi-canadian";
lastChange = "2023-01-13 15:57:15 +0000";
layers = (
{
anchors = (
{
name = top_center_can;
pos = (344,690);
},
{
name = top_left_can;
pos = (129,690);
},
{
name = top_right_can;
pos = (558,690);
}
);
layerId = "9763B71A-4976-465B-BEF0-2F1E1DB14637";
shapes = (
{
closed = 1;
nodes = (
(393,-14,o),
(496,115,o),
(504,321,c),
(479,321,l),
(479,0,l),
(639,0,l),
(639,690,l),
(478,690,l),
(474,251,o),
(390,126,o),
(292,126,cs),
(233,126,o),
(197,173,o),
(197,270,cs),
(197,296,o),
(200,327,o),
(206,361,c),
(52,361,l),
(44,325,o),
(42,288,o),
(42,254,cs),
(42,91,o),
(117,-14,o),
(257,-14,cs)
);
}
);
width = 702;
}
);
metricLeft = "heSayisi-canadian";
metricRight = "nunavuth-canadian";
note = uni15C2;
unicode = 5570;
},
{
color = 9;
glyphname = "haSayisi-canadian";
lastChange = "2023-01-13 15:57:15 +0000";
layers = (
{
layerId = "9763B71A-4976-465B-BEF0-2F1E1DB14637";
shapes = (
{
closed = 1;
nodes = (
(583,-14,o),
(659,91,o),
(659,254,cs),
(659,288,o),
(656,325,o),
(648,361,c),
(496,361,l),
(500,327,o),
(503,296,o),
(503,270,cs),
(503,173,o),
(468,126,o),
(409,126,cs),
(310,126,o),
(227,251,o),
(223,690,c),
(63,690,l),
(63,0,l),
(221,0,l),
(221,321,l),
(196,321,l),
(206,115,o),
(307,-14,o),
(443,-14,cs)
);
}
);
width = 701;
}
);
metricLeft = "nunavuth-canadian";
metricRight = "=|heSayisi-canadian";
note = uni15C3;
unicode = 5571;
},
{
color = 9;
glyphname = "ghuCarrier-canadian";
lastChange = "2023-01-13 15:57:09 +0000";
layers = (
{
layerId = "9763B71A-4976-465B-BEF0-2F1E1DB14637";
shapes = (
{
closed = 1;
nodes = (
(388,0,l),
(706,651,l),
(706,690,l),
(573,690,l),
(486,510,l),
(567,530,l),
(168,530,l),
(251,507,l),
(164,690,l),
(24,690,l),
(24,651,l),
(341,0,l)
);
},
{
closed = 1;
nodes = (
(521,411,l),
(457,428,l),
(336,179,l),
(400,179,l),
(280,432,l),
(218,411,l)
);
}
);
width = 730;
}
);
metricLeft = "e-canadian";
metricRight = "e-canadian";
note = uni15C4;
unicode = 5572;
},
{
color = 9;
glyphname = "ghoCarrier-canadian";
lastChange = "2023-01-13 15:57:09 +0000";
layers = (
{
layerId = "9763B71A-4976-465B-BEF0-2F1E1DB14637";
shapes = (
{
closed = 1;
nodes = (
(164,0,l),
(251,183,l),
(168,159,l),
(567,159,l),
(486,180,l),
(573,0,l),
(706,0,l),
(706,39,l),
(388,690,l),
(341,690,l),
(24,39,l),
(24,0,l)
);
},
{
closed = 1;
nodes = (
(400,511,l),
(336,511,l),
(457,262,l),
(521,279,l),
(218,279,l),
(280,258,l)
);
}
);
width = 730;
}
);
metricLeft = "e-canadian";
metricRight = "e-canadian";
note = uni15C5;
unicode = 5573;
},
{
color = 9;
glyphname = "gheCarrier-canadian";
lastChange = "2023-01-13 15:57:15 +0000";
layers = (
{
anchors = (
{
name = middle_center_can;
pos = (74,345);
}
);
layerId = "9763B71A-4976-465B-BEF0-2F1E1DB14637";
shapes = (
{
closed = 1;
nodes = (
(79,0,l),
(617,321,l),
(617,369,l),
(79,690,l),
(42,690,l),
(42,559,l),
(179,476,l),
(173,524,l),
(173,146,l),
(179,215,l),
(42,133,l),
(42,0,l)
);
},
{
closed = 1;
nodes = (
(291,496,l),
(267,439,l),
(480,309,l),
(481,383,l),
(267,254,l),
(291,196,l)
);
}
);
width = 645;
}
);
metricLeft = "po-canadian";
metricRight = "o-canadian";
note = uni15C6;
unicode = 5574;
},
{
color = 9;
glyphname = "ghaCarrier-canadian";
lastChange = "2023-01-13 15:57:15 +0000";
layers = (
{
layerId = "9763B71A-4976-465B-BEF0-2F1E1DB14637";
shapes = (
{
closed = 1;
nodes = (
(604,0,l),
(604,130,l),
(477,209,l),
(484,152,l),
(484,538,l),
(477,481,l),
(604,557,l),
(604,690,l),
(565,690,l),
(28,369,l),
(28,321,l),
(565,0,l)
);
},
{
closed = 1;
nodes = (
(389,247,l),
(166,382,l),
(166,308,l),
(389,442,l),
(366,490,l),
(366,205,l)
);
}
);
width = 646;
}
);
metricLeft = "=|o-canadian";
metricRight = "=|po-canadian";
note = uni15C9;
unicode = 5577;
},
{
color = 9;
glyphname = "ruCarrier-canadian";
lastChange = "2023-01-13 15:57:09 +0000";
layers = (
{
layerId = "9763B71A-4976-465B-BEF0-2F1E1DB14637";
shapes = (
{
closed = 1;
nodes = (
(388,0,l),
(706,651,l),
(706,690,l),
(573,690,l),
(536,614,l),
(561,627,l),
(170,627,l),
(202,612,l),
(165,690,l),
(24,690,l),
(24,651,l),
(341,0,l)
);
},
{
closed = 1;
nodes = (
(527,504,l),
(506,535,l),
(337,183,l),
(401,182,l),
(235,531,l),
(203,504,l)
);
}
);
width = 730;
}
);
metricLeft = "e-canadian";
metricRight = "e-canadian";
note = uni15CA;
unicode = 5578;
},
{
color = 9;
glyphname = "roCarrier-canadian";
lastChange = "2023-01-13 15:57:09 +0000";
layers = (
{
layerId = "9763B71A-4976-465B-BEF0-2F1E1DB14637";
shapes = (
{
closed = 1;
nodes = (
(164,0,l),
(200,75,l),
(171,63,l),
(561,63,l),
(534,77,l),
(572,0,l),
(706,0,l),
(706,39,l),
(388,690,l),
(341,690,l),
(24,39,l),
(24,0,l)
);
},
{
closed = 1;
nodes = (
(396,513,l),
(333,513,l),
(502,158,l),
(528,185,l),
(204,185,l),
(228,155,l)
);
}
);
width = 730;
}
);
metricLeft = "e-canadian";
metricRight = "e-canadian";
note = uni15CB;
unicode = 5579;
},
{
color = 9;
glyphname = "reCarrier-canadian";
lastChange = "2023-01-13 15:57:15 +0000";
layers = (
{
layerId = "9763B71A-4976-465B-BEF0-2F1E1DB14637";
shapes = (
{
closed = 1;
nodes = (
(79,0,l),
(617,321,l),
(617,369,l),
(79,690,l),
(42,690,l),
(42,558,l),
(114,514,l),
(97,547,l),
(97,142,l),
(114,178,l),
(42,133,l),
(42,0,l)
);
},
{
closed = 1;
nodes = (
(218,521,l),
(203,470,l),
(473,308,l),
(473,382,l),
(203,221,l),
(218,168,l)
);
}
);
width = 645;
}
);
metricLeft = "po-canadian";
metricRight = "o-canadian";
note = uni15CC;
unicode = 5580;
},
{
color = 9;
glyphname = "reeCarrier-canadian";
lastChange = "2023-01-13 15:57:15 +0000";
layers = (
{
layerId = "9763B71A-4976-465B-BEF0-2F1E1DB14637";
shapes = (
{
closed = 1;
nodes = (
(79,0,l),
(617,321,l),
(617,369,l),
(79,690,l),
(42,690,l),
(42,577,l),
(114,531,l),
(97,558,l),
(97,126,l),
(114,156,l),
(42,113,l),
(42,0,l)
);
},
{
closed = 1;
nodes = (
(202,531,l),
(188,498,l),
(511,309,l),
(511,382,l),
(187,190,l),
(202,169,l)
);
},
{
closed = 1;
nodes = (
(296,278,l),
(296,412,l),
(235,412,l),
(235,278,l)
);
}
);
width = 645;
}
);
metricLeft = "po-canadian";
metricRight = "o-canadian";
note = uni15CD;
unicode = 5581;
},
{
color = 9;
glyphname = "riCarrier-canadian";
lastChange = "2023-01-13 15:57:15 +0000";
layers = (
{
layerId = "9763B71A-4976-465B-BEF0-2F1E1DB14637";
shapes = (
{
closed = 1;
nodes = (
(79,0,l),
(617,321,l),
(617,369,l),
(79,690,l),
(42,690,l),
(42,577,l),
(114,531,l),
(97,558,l),
(97,126,l),
(114,156,l),
(42,113,l),
(42,0,l)
);
},
{
closed = 1;
nodes = (
(307,294,o),
(332,315,o),
(332,345,cs),
(332,375,o),
(307,396,o),
(280,396,cs),
(253,396,o),
(228,375,o),
(228,345,cs),
(228,315,o),
(253,294,o),
(280,294,cs)
);
},
{
closed = 1;
nodes = (
(202,531,l),
(188,498,l),
(511,309,l),
(511,382,l),
(187,190,l),
(202,169,l)
);
}
);
width = 645;
}
);
metricLeft = "po-canadian";
metricRight = "o-canadian";
note = uni15CE;
unicode = 5582;
},
{
color = 9;
glyphname = "raCarrier-canadian";
lastChange = "2023-01-13 15:57:15 +0000";
layers = (
{
layerId = "9763B71A-4976-465B-BEF0-2F1E1DB14637";
shapes = (
{
closed = 1;
nodes = (
(604,0,l),
(604,132,l),
(539,173,l),
(549,128,l),
(549,561,l),
(539,517,l),
(604,557,l),
(604,690,l),
(565,690,l),
(28,369,l),
(28,321,l),
(565,0,l)
);
},
{
closed = 1;
nodes = (
(449,474,l),
(426,522,l),
(426,169,l),
(449,217,l),
(173,383,l),
(173,309,l)
);
}
);
width = 646;
}
);
metricLeft = "=|o-canadian";
metricRight = "=|po-canadian";
note = uni15CF;
unicode = 5583;
},
{
color = 9;
glyphname = "wuCarrier-canadian";
lastChange = "2023-01-13 15:57:09 +0000";
layers = (
{
layerId = "9763B71A-4976-465B-BEF0-2F1E1DB14637";
shapes = (
{
closed = 1;
nodes = (
(397,0,l),
(723,651,l),
(723,690,l),
(598,690,l),
(406,276,l),
(440,276,l),
(440,690,l),
(317,690,l),
(317,276,l),
(353,276,l),
(157,690,l),
(24,690,l),
(24,651,l),
(350,0,l)
);
}
);
width = 747;
}
);
metricLeft = "e-canadian";
metricRight = "e-canadian";
note = uni15D0;
unicode = 5584;
},
{
color = 9;
glyphname = "woCarrier-canadian";
lastChange = "2023-01-13 15:57:09 +0000";
layers = (
{
layerId = "9763B71A-4976-465B-BEF0-2F1E1DB14637";
shapes = (
{
closed = 1;
nodes = (
(155,0,l),
(348,413,l),
(313,413,l),
(313,0,l),
(436,0,l),
(436,413,l),
(399,413,l),
(595,0,l),
(723,0,l),
(723,39,l),
(397,690,l),
(350,690,l),
(24,39,l),
(24,0,l)
);
}
);
width = 747;
}
);
metricLeft = "e-canadian";
metricRight = "e-canadian";
note = uni15D1;
unicode = 5585;
},
{
color = 9;
glyphname = "weCarrier-canadian";
lastChange = "2023-01-13 15:57:15 +0000";
layers = (
{
layerId = "9763B71A-4976-465B-BEF0-2F1E1DB14637";
shapes = (
{
closed = 1;
nodes = (
(99,0,l),
(638,321,l),
(638,369,l),
(99,690,l),
(62,690,l),
(62,560,l),
(381,378,l),
(381,405,l),
(65,405,l),
(65,285,l),
(380,285,l),
(380,312,l),
(62,130,l),
(62,0,l)
);
}
);
width = 666;
}
);
metricRight = "o-canadian";
note = uni15D2;
unicode = 5586;
},
{
color = 9;
glyphname = "weeCarrier-canadian";
lastChange = "2023-01-13 15:57:15 +0000";
layers = (
{
layerId = "9763B71A-4976-465B-BEF0-2F1E1DB14637";
shapes = (
{
closed = 1;
nodes = (
(99,0,l),
(638,321,l),
(638,369,l),
(99,690,l),
(62,690,l),
(62,575,l),
(442,356,l),
(452,391,l),
(210,391,l),
(210,458,l),
(127,458,l),
(127,391,l),
(62,391,l),
(62,298,l),
(127,298,l),
(127,232,l),
(210,232,l),
(210,298,l),
(452,298,l),
(442,333,l),
(62,115,l),
(62,0,l)
);
}
);
width = 666;
}
);
metricLeft = "weCarrier-canadian";
metricRight = "o-canadian";
note = uni15D3;
unicode = 5587;
},
{
color = 9;
glyphname = "wiCarrier-canadian";
lastChange = "2023-01-13 15:57:15 +0000";
layers = (
{
layerId = "9763B71A-4976-465B-BEF0-2F1E1DB14637";
shapes = (
{
closed = 1;
nodes = (
(99,0,l),
(638,321,l),
(638,369,l),
(99,690,l),
(62,690,l),
(62,575,l),
(443,356,l),
(453,391,l),
(279,391,l),
(265,420,o),
(234,440,o),
(198,440,cs),
(162,440,o),
(131,420,o),
(116,391,c),
(62,391,l),
(62,298,l),
(116,298,l),
(132,270,o),
(162,250,o),
(198,250,cs),
(233,250,o),
(263,270,o),
(278,298,c),
(453,298,l),
(443,333,l),
(62,115,l),
(62,0,l)
);
}
);
width = 666;
}
);
metricLeft = "weCarrier-canadian";
metricRight = "o-canadian";
note = uni15D4;
unicode = 5588;
},
{
color = 9;
glyphname = "waCarrier-canadian";
lastChange = "2023-01-13 15:57:15 +0000";
layers = (
{
layerId = "9763B71A-4976-465B-BEF0-2F1E1DB14637";
shapes = (
{
closed = 1;
nodes = (
(604,0,l),
(604,129,l),
(285,312,l),
(285,285,l),
(600,285,l),
(600,405,l),
(286,405,l),
(286,378,l),
(604,559,l),
(604,690,l),
(566,690,l),
(28,369,l),
(28,321,l),
(565,0,l)
);
}
);
width = 666;
}
);
metricLeft = "=|o-canadian";
metricRight = "=|weCarrier-canadian";
note = uni15D5;
unicode = 5589;
},
{
color = 9;
glyphname = "hwuCarrier-canadian";
lastChange = "2023-01-13 15:57:09 +0000";
layers = (
{
layerId = "9763B71A-4976-465B-BEF0-2F1E1DB14637";
shapes = (
{
closed = 1;
nodes = (
(397,0,l),
(723,651,l),
(723,690,l),
(606,690,l),
(529,532,l),
(578,552,l),
(424,552,l),
(424,690,l),
(327,690,l),
(327,552,l),
(171,552,l),
(222,534,l),
(146,690,l),
(24,690,l),
(24,651,l),
(350,0,l)
);
},
{
closed = 1;
nodes = (
(336,469,l),
(336,201,l),
(366,208,l),
(238,487,l),
(204,469,l)
);
},
{
closed = 1;
nodes = (
(414,469,l),
(547,469,l),
(517,486,l),
(384,205,l),
(414,198,l)
);
}
);
width = 747;
}
);
metricLeft = "e-canadian";
metricRight = "e-canadian";
note = uni15D6;
unicode = 5590;
},
{
color = 9;
glyphname = "hwoCarrier-canadian";
lastChange = "2023-01-13 15:57:09 +0000";
layers = (
{
layerId = "9763B71A-4976-465B-BEF0-2F1E1DB14637";
shapes = (
{
closed = 1;
nodes = (
(145,0,l),
(223,156,l),
(175,135,l),
(327,135,l),
(327,0,l),
(424,0,l),
(424,135,l),
(583,135,l),
(529,156,l),
(606,0,l),
(723,0,l),
(723,39,l),
(397,690,l),
(350,690,l),
(24,39,l),
(24,0,l)
);
},
{
closed = 1;
nodes = (
(352,452,l),
(336,457,l),
(336,224,l),
(216,224,l),
(237,203,l)
);
},
{
closed = 1;
nodes = (
(542,224,l),
(414,224,l),
(414,460,l),
(399,455,l),
(516,204,l)
);
}
);
width = 747;
}
);
metricLeft = "e-canadian";
metricRight = "e-canadian";
note = uni15D7;
unicode = 5591;
},
{
color = 9;
glyphname = "hweCarrier-canadian";
lastChange = "2023-01-13 15:57:15 +0000";
layers = (
{
layerId = "9763B71A-4976-465B-BEF0-2F1E1DB14637";
shapes = (
{
closed = 1;
nodes = (
(99,0,l),
(638,321,l),
(638,369,l),
(99,690,l),
(62,690,l),
(62,574,l),
(189,500,l),
(189,395,l),
(62,395,l),
(62,295,l),
(189,295,l),
(189,188,l),
(62,115,l),
(62,0,l)
);
},
{
closed = 1;
nodes = (
(263,305,l),
(419,305,l),
(263,220,l)
);
},
{
closed = 1;
nodes = (
(263,469,l),
(417,384,l),
(263,384,l)
);
}
);
width = 666;
}
);
metricLeft = "weCarrier-canadian";
metricRight = "o-canadian";
note = uni15D8;
unicode = 5592;
},
{
color = 9;
glyphname = "hweeCarrier-canadian";
lastChange = "2023-01-13 15:57:15 +0000";
layers = (
{
layerId = "9763B71A-4976-465B-BEF0-2F1E1DB14637";
shapes = (
{
closed = 1;
nodes = (
(99,0,l),
(638,321,l),
(638,369,l),
(99,690,l),
(62,690,l),
(62,578,l),
(229,483,l),
(229,386,l),
(182,386,l),
(182,451,l),
(115,451,l),
(115,386,l),
(62,386,l),
(62,303,l),
(115,303,l),
(115,239,l),
(182,239,l),
(182,303,l),
(229,303,l),
(229,207,l),
(62,112,l),
(62,0,l)
);
},
{
closed = 1;
nodes = (
(295,311,l),
(427,311,l),
(295,237,l)
);
},
{
closed = 1;
nodes = (
(295,453,l),
(427,379,l),
(295,379,l)
);
}
);
width = 666;
}
);
metricLeft = "weCarrier-canadian";
metricRight = "o-canadian";
note = uni15D9;
unicode = 5593;
},
{
color = 9;
glyphname = "hwiCarrier-canadian";
lastChange = "2023-01-13 15:57:15 +0000";
layers = (
{
layerId = "9763B71A-4976-465B-BEF0-2F1E1DB14637";
shapes = (
{
closed = 1;
nodes = (
(99,0,l),
(638,321,l),
(638,369,l),
(99,690,l),
(62,690,l),
(62,578,l),
(229,483,l),
(229,379,l),
(214,379,l),
(203,403,o),
(180,419,o),
(152,419,cs),
(125,419,o),
(100,403,o),
(89,379,c),
(62,379,l),
(62,311,l),
(89,311,l),
(100,287,o),
(125,270,o),
(152,270,cs),
(178,270,o),
(202,287,o),
(213,311,c),
(229,311,l),
(229,207,l),
(62,112,l),
(62,0,l)
);
},
{
closed = 1;
nodes = (
(295,311,l),
(427,311,l),
(295,237,l)
);
},
{
closed = 1;
nodes = (
(295,453,l),
(427,379,l),
(295,379,l)
);
}
);
width = 666;
}
);
metricLeft = "weCarrier-canadian";
metricRight = "o-canadian";
note = uni15DA;
unicode = 5594;
},
{
color = 9;
glyphname = "hwaCarrier-canadian";
lastChange = "2023-01-13 15:57:15 +0000";
layers = (
{
layerId = "9763B71A-4976-465B-BEF0-2F1E1DB14637";
shapes = (
{
closed = 1;
nodes = (
(604,0,l),
(604,115,l),
(476,188,l),
(476,295,l),
(604,295,l),
(604,395,l),
(476,395,l),
(476,500,l),
(604,574,l),
(604,690,l),
(566,690,l),
(28,369,l),
(28,321,l),
(565,0,l)
);
},
{
closed = 1;
nodes = (
(246,305,l),
(403,305,l),
(403,220,l)
);
},
{
closed = 1;
nodes = (
(403,469,l),
(403,384,l),
(247,384,l)
);
}
);
width = 666;
}
);
metricLeft = "=|o-canadian";
metricRight = "=|weCarrier-canadian";
note = uni15DB;
unicode = 5595;
},
{
color = 9;
glyphname = "thuCarrier-canadian";
lastChange = "2023-01-13 15:57:09 +0000";
layers = (
{
layerId = "9763B71A-4976-465B-BEF0-2F1E1DB14637";
shapes = (
{
closed = 1;
nodes = (
(556,-14,o),
(669,104,o),
(669,309,cs),
(669,690,l),
(56,690,l),
(56,308,ls),
(56,102,o),
(169,-14,o),
(363,-14,cs)
);
},
{
closed = 1;
nodes = (
(215,550,l),
(510,550,l),
(510,309,ls),
(510,188,o),
(459,130,o),
(362,130,cs),
(269,130,o),
(215,192,o),
(215,309,cs)
);
}
);
width = 725;
}
);
metricLeft = "te-canadian";
metricRight = "te-canadian";
note = uni15DC;
unicode = 5596;
},
{
color = 9;
glyphname = "thoCarrier-canadian";
lastChange = "2023-01-13 15:57:09 +0000";
layers = (
{
layerId = "9763B71A-4976-465B-BEF0-2F1E1DB14637";
shapes = (
{
closed = 1;
nodes = (
(669,0,l),
(669,382,ls),
(669,586,o),
(556,704,o),
(368,704,cs),
(173,704,o),
(56,586,o),
(56,382,cs),
(56,0,l)
);
},
{
closed = 1;
nodes = (
(215,381,ls),
(215,498,o),
(271,559,o),
(365,559,cs),
(458,559,o),
(510,497,o),
(510,381,cs),
(510,140,l),
(215,140,l)
);
}
);
width = 725;
}
);
metricLeft = "te-canadian";
metricRight = "te-canadian";
note = uni15DD;
unicode = 5597;
},
{
color = 9;
glyphname = "theCarrier-canadian";
lastChange = "2023-01-13 15:57:09 +0000";
layers = (
{
anchors = (
{
name = middle_center_can;
pos = (361,345);
}
);
layerId = "9763B71A-4976-465B-BEF0-2F1E1DB14637";
shapes = (
{
closed = 1;
nodes = (
(327,0,ls),
(547,0,o),
(675,125,o),
(675,346,cs),
(675,567,o),
(547,690,o),
(326,690,cs),
(63,690,l),
(63,0,l)
);
},
{
closed = 1;
nodes = (
(223,589,l),
(184,550,l),
(319,550,ls),
(445,550,o),
(515,484,o),
(515,346,cs),
(515,209,o),
(445,140,o),
(319,140,cs),
(184,140,l),
(223,100,l)
);
}
);
width = 725;
}
);
metricLeft = "nunavuth-canadian";
metricRight = "to-canadian";
note = uni15DE;
unicode = 5598;
},
{
color = 9;
glyphname = "thaCarrier-canadian";
lastChange = "2023-01-13 15:57:15 +0000";
layers = (
{
layerId = "9763B71A-4976-465B-BEF0-2F1E1DB14637";
shapes = (
{
closed = 1;
nodes = (
(664,0,l),
(664,690,l),
(401,690,ls),
(180,690,o),
(50,565,o),
(50,344,cs),
(50,123,o),
(180,0,o),
(400,0,cs)
);
},
{
closed = 1;
nodes = (
(212,482,o),
(280,550,o),
(407,550,cs),
(543,550,l),
(503,589,l),
(503,100,l),
(543,140,l),
(407,140,ls),
(280,140,o),
(212,207,o),
(212,344,cs)
);
}
);
width = 727;
}
);
metricLeft = "=|theCarrier-canadian";
metricRight = "nunavuth-canadian";
note = uni15E1;
unicode = 5601;
},
{
color = 9;
glyphname = "ttuCarrier-canadian";
lastChange = "2023-01-13 15:57:09 +0000";
layers = (
{
layerId = "9763B71A-4976-465B-BEF0-2F1E1DB14637";
shapes = (
{
closed = 1;
nodes = (
(556,-14,o),
(669,104,o),
(669,309,cs),
(669,690,l),
(623,690,l),
(342,518,l),
(384,518,l),
(103,690,l),
(56,690,l),
(56,308,ls),
(56,102,o),
(169,-14,o),
(363,-14,cs)
);
},
{
closed = 1;
nodes = (
(269,130,o),
(215,192,o),
(215,309,cs),
(215,562,l),
(71,558,l),
(350,386,l),
(377,386,l),
(657,558,l),
(510,562,l),
(510,309,ls),
(510,188,o),
(459,130,o),
(362,130,cs)
);
}
);
width = 725;
}
);
metricLeft = "te-canadian";
metricRight = "te-canadian";
note = uni15E2;
unicode = 5602;
},
{
color = 9;
glyphname = "ttoCarrier-canadian";
lastChange = "2023-01-13 15:57:09 +0000";
layers = (
{
layerId = "9763B71A-4976-465B-BEF0-2F1E1DB14637";
shapes = (
{
closed = 1;
nodes = (
(102,0,l),
(384,172,l),
(341,172,l),
(621,0,l),
(669,0,l),
(669,382,ls),
(669,587,o),
(556,704,o),
(362,704,cs),
(169,704,o),
(56,585,o),
(56,381,cs),
(56,0,l)
);
},
{
closed = 1;
nodes = (
(456,559,o),
(510,497,o),
(510,381,cs),
(510,128,l),
(655,131,l),
(376,303,l),
(349,303,l),
(69,131,l),
(215,128,l),
(215,381,ls),
(215,501,o),
(266,559,o),
(362,559,cs)
);
}
);
width = 725;
}
);
metricLeft = "te-canadian";
metricRight = "te-canadian";
note = uni15E3;
unicode = 5603;
},
{
color = 9;
glyphname = "tteCarrier-canadian";
lastChange = "2023-01-13 15:57:09 +0000";
layers = (
{
anchors = (
{
name = middle_center_can;
pos = (411,345);
}
);
layerId = "9763B71A-4976-465B-BEF0-2F1E1DB14637";
shapes = (
{
closed = 1;
nodes = (
(336,0,ls),
(556,0,o),
(685,125,o),
(685,346,cs),
(685,567,o),
(556,690,o),
(335,690,cs),
(55,690,l),
(55,651,l),
(178,327,l),
(178,362,l),
(55,39,l),
(55,0,l)
);
},
{
closed = 1;
nodes = (
(325,331,l),
(325,355,l),
(202,679,l),
(200,550,l),
(329,550,ls),
(456,550,o),
(526,484,o),
(526,346,cs),
(526,209,o),
(456,140,o),
(329,140,cs),
(200,140,l),
(202,7,l)
);
}
);
width = 735;
}
);
metricRight = "theCarrier-canadian";
note = uni15E4;
unicode = 5604;
},
{
color = 9;
glyphname = "ttaCarrier-canadian";
lastChange = "2023-01-13 15:57:09 +0000";
layers = (
{
layerId = "9763B71A-4976-465B-BEF0-2F1E1DB14637";
shapes = (
{
closed = 1;
nodes = (
(681,0,l),
(681,39,l),
(558,363,l),
(558,327,l),
(681,651,l),
(681,690,l),
(401,690,ls),
(180,690,o),
(50,565,o),
(50,344,cs),
(50,123,o),
(180,0,o),
(400,0,cs)
);
},
{
closed = 1;
nodes = (
(536,140,l),
(407,140,ls),
(280,140,o),
(210,207,o),
(210,344,cs),
(210,482,o),
(280,550,o),
(407,550,cs),
(536,550,l),
(534,683,l),
(412,358,l),
(412,334,l),
(534,11,l)
);
}
);
width = 736;
}
);
metricLeft = "=|theCarrier-canadian";
metricRight = "=|tteCarrier-canadian";
note = uni15E7;
unicode = 5607;
},
{
color = 9;
glyphname = "puCarrier-canadian";
lastChange = "2023-01-13 15:57:09 +0000";
layers = (
{
layerId = "9763B71A-4976-465B-BEF0-2F1E1DB14637";
shapes = (
{
closed = 1;
nodes = (
(556,-14,o),
(669,104,o),
(669,309,cs),
(669,690,l),
(509,690,l),
(509,555,l),
(216,555,l),
(216,690,l),
(56,690,l),
(56,308,ls),
(56,102,o),
(169,-14,o),
(363,-14,cs)
);
},
{
closed = 1;
nodes = (
(269,130,o),
(216,192,o),
(216,309,cs),
(216,414,l),
(509,414,l),
(509,309,ls),
(509,188,o),
(459,130,o),
(362,130,cs)
);
}
);
width = 725;
}
);
metricLeft = "te-canadian";
metricRight = "te-canadian";
note = uni15E8;
unicode = 5608;
},
{
color = 9;
glyphname = "poCarrier-canadian";
lastChange = "2023-01-13 15:57:09 +0000";
layers = (
{
layerId = "9763B71A-4976-465B-BEF0-2F1E1DB14637";
shapes = (
{
closed = 1;
nodes = (
(216,0,l),
(216,134,l),
(509,134,l),
(509,0,l),
(669,0,l),
(669,382,ls),
(669,586,o),
(557,704,o),
(368,704,cs),
(175,704,o),
(56,586,o),
(56,382,cs),
(56,0,l)
);
},
{
closed = 1;
nodes = (
(216,381,ls),
(216,498,o),
(271,559,o),
(365,559,cs),
(458,559,o),
(509,497,o),
(509,381,cs),
(509,275,l),
(216,275,l)
);
}
);
width = 725;
}
);
metricLeft = "te-canadian";
metricRight = "te-canadian";
note = uni15E9;
unicode = 5609;
},
{
color = 9;
glyphname = "peCarrier-canadian";
lastChange = "2023-01-13 15:57:09 +0000";
layers = (
{
anchors = (
{
name = middle_center_can;
pos = (399,345);
}
);
layerId = "9763B71A-4976-465B-BEF0-2F1E1DB14637";
shapes = (
{
closed = 1;
nodes = (
(335,0,ls),
(555,0,o),
(684,125,o),
(684,346,cs),
(684,567,o),
(555,690,o),
(334,690,cs),
(54,690,l),
(54,550,l),
(133,550,l),
(133,140,l),
(54,140,l),
(54,0,l)
);
},
{
closed = 1;
nodes = (
(292,589,l),
(244,550,l),
(328,550,ls),
(455,550,o),
(524,484,o),
(524,346,cs),
(524,209,o),
(455,140,o),
(328,140,cs),
(244,140,l),
(292,100,l)
);
}
);
width = 734;
}
);
metricRight = "theCarrier-canadian";
note = uni15EA;
unicode = 5610;
},
{
color = 9;
glyphname = "paCarrier-canadian";
lastChange = "2023-01-13 15:57:09 +0000";
layers = (
{
layerId = "9763B71A-4976-465B-BEF0-2F1E1DB14637";
shapes = (
{
closed = 1;
nodes = (
(681,0,l),
(681,140,l),
(602,140,l),
(602,550,l),
(681,550,l),
(681,690,l),
(401,690,ls),
(180,690,o),
(50,567,o),
(50,346,cs),
(50,125,o),
(180,0,o),
(400,0,cs)
);
},
{
closed = 1;
nodes = (
(491,140,l),
(407,140,ls),
(280,140,o),
(212,209,o),
(212,346,cs),
(212,484,o),
(280,550,o),
(407,550,cs),
(491,550,l),
(442,589,l),
(442,100,l)
);
}
);
width = 735;
}
);
metricLeft = "=|theCarrier-canadian";
metricRight = "=|peCarrier-canadian";
note = uni15ED;
unicode = 5613;
},
{
color = 6;
glyphname = "pCarrier-canadian";
lastChange = "2023-01-13 15:57:09 +0000";
layers = (
{
layerId = "9763B71A-4976-465B-BEF0-2F1E1DB14637";
shapes = (
{
closed = 1;
nodes = (
(378,183,l),
(378,286,l),
(270,286,l),
(270,527,l),
(161,527,l),
(161,286,l),
(53,286,l),
(53,183,l)
);
}
);
width = 431;
}
);
metricLeft = "shorthorizontalstrokeFinal-canadian";
metricRight = "shorthorizontalstrokeFinal-canadian";
note = uni15EE;
unicode = 5614;
},
{
color = 9;
glyphname = "guCarrier-canadian";
lastChange = "2023-01-13 15:57:09 +0000";
layers = (
{
anchors = (
{
name = top_center_can;
pos = (427,690);
}
);
layerId = "9763B71A-4976-465B-BEF0-2F1E1DB14637";
shapes = (
{
closed = 1;
nodes = (
(368,-14,o),
(433,34,o),
(464,128,c),
(390,128,l),
(428,30,o),
(492,-14,o),
(583,-14,cs),
(717,-14,o),
(794,74,o),
(794,218,cs),
(794,690,l),
(641,690,l),
(641,219,ls),
(641,158,o),
(618,127,o),
(574,127,cs),
(529,127,o),
(503,159,o),
(503,216,cs),
(503,690,l),
(353,690,l),
(353,216,ls),
(353,158,o),
(327,127,o),
(283,127,cs),
(237,127,o),
(212,158,o),
(212,219,cs),
(212,690,l),
(59,690,l),
(59,218,ls),
(59,73,o),
(142,-14,o),
(271,-14,cs)
);
}
);
width = 853;
}
);
metricRight = "=|";
note = uni15EF;
unicode = 5615;
},
{
color = 9;
glyphname = "goCarrier-canadian";
lastChange = "2023-01-13 15:57:09 +0000";
layers = (
{
layerId = "9763B71A-4976-465B-BEF0-2F1E1DB14637";
shapes = (
{
closed = 1;
nodes = (
(212,0,l),
(212,470,ls),
(212,531,o),
(235,563,o),
(279,563,cs),
(325,563,o),
(350,531,o),
(350,473,cs),
(350,0,l),
(501,0,l),
(501,473,ls),
(501,530,o),
(526,563,o),
(570,563,cs),
(616,563,o),
(641,531,o),
(641,470,cs),
(641,0,l),
(794,0,l),
(794,471,ls),
(794,616,o),
(711,704,o),
(582,704,cs),
(486,704,o),
(421,656,o),
(390,562,c),
(463,562,l),
(426,660,o),
(362,704,o),
(270,704,cs),
(136,704,o),
(59,615,o),
(59,471,cs),
(59,0,l)
);
}
);
width = 853;
}
);
metricLeft = "guCarrier-canadian";
metricRight = "guCarrier-canadian";
note = uni15F0;
unicode = 5616;
},
{
color = 9;
glyphname = "geCarrier-canadian";
lastChange = "2023-01-13 15:57:09 +0000";
layers = (
{
anchors = (
{
name = top_center_can;
pos = (369,690);
}
);
layerId = "9763B71A-4976-465B-BEF0-2F1E1DB14637";
shapes = (
{
closed = 1;
nodes = (
(450,0,ls),
(599,0,o),
(675,70,o),
(675,195,cs),
(675,275,o),
(626,341,o),
(549,372,c),
(549,317,l),
(629,344,o),
(675,405,o),
(675,493,cs),
(675,616,o),
(596,690,o),
(450,690,cs),
(63,690,l),
(63,560,l),
(421,560,ls),
(484,560,o),
(515,535,o),
(515,486,cs),
(515,435,o),
(483,410,o),
(422,410,cs),
(63,410,l),
(63,282,l),
(422,282,ls),
(482,282,o),
(515,257,o),
(515,204,cs),
(515,155,o),
(483,129,o),
(421,129,cs),
(63,129,l),
(63,0,l)
);
}
);
width = 734;
}
);
metricLeft = "nunavuth-canadian";
note = uni15F1;
unicode = 5617;
},
{
color = 9;
glyphname = "geeCarrier-canadian";
lastChange = "2023-01-13 15:57:09 +0000";
layers = (
{
layerId = "9763B71A-4976-465B-BEF0-2F1E1DB14637";
shapes = (
{
closed = 1;
nodes = (
(450,0,ls),
(599,0,o),
(675,70,o),
(675,195,cs),
(675,275,o),
(626,341,o),
(549,372,c),
(549,317,l),
(629,344,o),
(675,405,o),
(675,493,cs),
(675,616,o),
(596,690,o),
(450,690,cs),
(63,690,l),
(63,560,l),
(421,560,ls),
(484,560,o),
(515,535,o),
(515,486,cs),
(515,435,o),
(483,408,o),
(422,408,cs),
(350,408,l),
(350,484,l),
(261,484,l),
(261,408,l),
(63,408,l),
(63,283,l),
(261,283,l),
(261,207,l),
(350,207,l),
(350,283,l),
(422,283,ls),
(482,283,o),
(515,257,o),
(515,204,cs),
(515,155,o),
(483,129,o),
(421,129,cs),
(63,129,l),
(63,0,l)
);
}
);
width = 734;
}
);
metricLeft = "geCarrier-canadian";
metricRight = "geCarrier-canadian";
note = uni15F2;
unicode = 5618;
},
{
color = 9;
glyphname = "giCarrier-canadian";
lastChange = "2023-01-13 15:57:09 +0000";
layers = (
{
layerId = "9763B71A-4976-465B-BEF0-2F1E1DB14637";
shapes = (
{
closed = 1;
nodes = (
(450,0,ls),
(599,0,o),
(675,70,o),
(675,195,cs),
(675,270,o),
(633,330,o),
(567,362,c),
(566,325,l),
(636,354,o),
(675,411,o),
(675,493,cs),
(675,616,o),
(596,690,o),
(450,690,cs),
(63,690,l),
(63,560,l),
(421,560,ls),
(484,560,o),
(515,535,o),
(515,486,cs),
(515,435,o),
(483,408,o),
(428,408,cs),
(369,408,l),
(419,386,l),
(405,429,o),
(365,459,o),
(316,459,cs),
(276,459,o),
(242,439,o),
(222,408,c),
(63,408,l),
(63,283,l),
(222,283,l),
(242,252,o),
(276,232,o),
(316,232,cs),
(365,232,o),
(404,263,o),
(420,305,c),
(369,283,l),
(428,283,ls),
(482,283,o),
(515,257,o),
(515,204,cs),
(515,155,o),
(483,129,o),
(421,129,cs),
(63,129,l),
(63,0,l)
);
}
);
width = 734;
}
);
metricLeft = "geCarrier-canadian";
metricRight = "geCarrier-canadian";
note = uni15F3;
unicode = 5619;
},
{
color = 9;
glyphname = "gaCarrier-canadian";
lastChange = "2023-01-13 15:57:09 +0000";
layers = (
{
anchors = (
{
name = top_center_can;
pos = (383,690);
}
);
layerId = "9763B71A-4976-465B-BEF0-2F1E1DB14637";
shapes = (
{
closed = 1;
nodes = (
(671,0,l),
(671,129,l),
(312,129,ls),
(250,129,o),
(219,155,o),
(219,204,cs),
(219,257,o),
(252,282,o),
(311,282,cs),
(671,282,l),
(671,410,l),
(311,410,ls),
(251,410,o),
(219,435,o),
(219,486,cs),
(219,535,o),
(250,560,o),
(312,560,cs),
(671,560,l),
(671,690,l),
(284,690,ls),
(138,690,o),
(59,616,o),
(59,493,cs),
(59,405,o),
(105,345,o),
(185,319,c),
(185,373,l),
(108,342,o),
(59,275,o),
(59,195,cs),
(59,70,o),
(134,0,o),
(284,0,cs)
);
}
);
width = 734;
}
);
metricLeft = "=|geCarrier-canadian";
metricRight = "=|geCarrier-canadian";
note = uni15F4;
unicode = 5620;
},
{
color = 9;
glyphname = "khuCarrier-canadian";
lastChange = "2023-01-13 15:57:09 +0000";
layers = (
{
layerId = "9763B71A-4976-465B-BEF0-2F1E1DB14637";
shapes = (
{
closed = 1;
nodes = (
(368,-14,o),
(433,34,o),
(464,128,c),
(390,128,l),
(428,30,o),
(492,-14,o),
(583,-14,cs),
(717,-14,o),
(794,74,o),
(794,218,cs),
(794,690,l),
(59,690,l),
(59,218,ls),
(59,73,o),
(142,-14,o),
(271,-14,cs)
);
},
{
closed = 1;
nodes = (
(238,127,o),
(213,158,o),
(213,219,cs),
(213,554,l),
(353,554,l),
(353,216,ls),
(353,158,o),
(328,127,o),
(284,127,cs)
);
},
{
closed = 1;
nodes = (
(528,127,o),
(503,159,o),
(503,216,cs),
(503,554,l),
(640,554,l),
(640,219,ls),
(640,158,o),
(618,127,o),
(573,127,cs)
);
}
);
width = 853;
}
);
metricLeft = "guCarrier-canadian";
metricRight = "guCarrier-canadian";
note = uni15F5;
unicode = 5621;
},
{
color = 9;
glyphname = "khoCarrier-canadian";
lastChange = "2023-01-13 15:57:09 +0000";
layers = (
{
layerId = "9763B71A-4976-465B-BEF0-2F1E1DB14637";
shapes = (
{
closed = 1;
nodes = (
(794,0,l),
(794,471,ls),
(794,614,o),
(716,704,o),
(583,704,cs),
(491,704,o),
(426,659,o),
(390,562,c),
(464,562,l),
(431,656,o),
(366,704,o),
(270,704,cs),
(141,704,o),
(59,617,o),
(59,471,cs),
(59,0,l)
);
},
{
closed = 1;
nodes = (
(213,470,ls),
(213,531,o),
(238,563,o),
(283,563,cs),
(327,563,o),
(353,531,o),
(353,473,cs),
(353,136,l),
(213,136,l)
);
},
{
closed = 1;
nodes = (
(502,473,ls),
(502,530,o),
(527,563,o),
(573,563,cs),
(618,563,o),
(640,531,o),
(640,470,cs),
(640,136,l),
(502,136,l)
);
}
);
width = 853;
}
);
metricLeft = "guCarrier-canadian";
metricRight = "guCarrier-canadian";
note = uni15F6;
unicode = 5622;
},
{
color = 9;
glyphname = "kheCarrier-canadian";
lastChange = "2023-01-13 15:57:09 +0000";
layers = (
{
layerId = "9763B71A-4976-465B-BEF0-2F1E1DB14637";
shapes = (
{
closed = 1;
nodes = (
(458,0,ls),
(607,0,o),
(683,70,o),
(683,195,cs),
(683,275,o),
(634,341,o),
(556,372,c),
(556,317,l),
(637,344,o),
(683,405,o),
(683,493,cs),
(683,616,o),
(604,690,o),
(458,690,cs),
(63,690,l),
(63,0,l)
);
},
{
closed = 1;
nodes = (
(222,283,l),
(430,283,ls),
(490,283,o),
(523,257,o),
(523,204,cs),
(523,155,o),
(491,128,o),
(429,128,cs),
(222,128,l)
);
},
{
closed = 1;
nodes = (
(222,562,l),
(429,562,ls),
(492,562,o),
(523,535,o),
(523,486,cs),
(523,435,o),
(491,409,o),
(430,409,cs),
(222,409,l)
);
}
);
width = 742;
}
);
metricLeft = "nunavuth-canadian";
metricRight = "geCarrier-canadian";
note = uni15F7;
unicode = 5623;
},
{
color = 9;
glyphname = "kheeCarrier-canadian";
lastChange = "2023-01-13 15:57:09 +0000";
layers = (
{
layerId = "9763B71A-4976-465B-BEF0-2F1E1DB14637";
shapes = (
{
closed = 1;
nodes = (
(458,0,ls),
(607,0,o),
(683,70,o),
(683,195,cs),
(683,273,o),
(637,336,o),
(563,368,c),
(563,321,l),
(639,348,o),
(683,408,o),
(683,493,cs),
(683,616,o),
(604,690,o),
(458,690,cs),
(63,690,l),
(63,0,l)
);
},
{
closed = 1;
nodes = (
(222,284,l),
(315,284,l),
(315,206,l),
(414,206,l),
(414,323,l),
(371,284,l),
(436,284,ls),
(493,284,o),
(523,258,o),
(523,205,cs),
(523,155,o),
(491,128,o),
(429,128,cs),
(222,128,l)
);
},
{
closed = 1;
nodes = (
(414,485,l),
(315,485,l),
(315,407,l),
(222,407,l),
(222,562,l),
(429,562,ls),
(492,562,o),
(523,535,o),
(523,486,cs),
(523,433,o),
(494,407,o),
(436,407,cs),
(371,407,l),
(414,369,l)
);
}
);
width = 742;
}
);
metricLeft = "nunavuth-canadian";
metricRight = "geCarrier-canadian";
note = uni15F8;
unicode = 5624;
},
{
color = 9;
glyphname = "khiCarrier-canadian";
lastChange = "2023-01-13 15:57:09 +0000";
layers = (
{
layerId = "9763B71A-4976-465B-BEF0-2F1E1DB14637";
shapes = (
{
closed = 1;
nodes = (
(458,0,ls),
(607,0,o),
(683,70,o),
(683,195,cs),
(683,273,o),
(636,337,o),
(564,369,c),
(562,320,l),
(639,347,o),
(683,407,o),
(683,493,cs),
(683,616,o),
(604,690,o),
(458,690,cs),
(63,690,l),
(63,0,l)
);
},
{
closed = 1;
nodes = (
(222,287,l),
(268,287,l),
(287,254,o),
(322,232,o),
(363,232,cs),
(422,232,o),
(466,277,o),
(472,332,c),
(384,287,l),
(439,287,ls),
(493,287,o),
(523,260,o),
(523,206,cs),
(523,154,o),
(491,128,o),
(429,128,cs),
(222,128,l)
);
},
{
closed = 1;
nodes = (
(429,562,ls),
(492,562,o),
(523,536,o),
(523,484,cs),
(523,431,o),
(494,404,o),
(439,404,cs),
(385,404,l),
(473,358,l),
(466,415,o),
(422,459,o),
(363,459,cs),
(305,459,o),
(259,415,o),
(252,358,c),
(303,404,l),
(222,404,l),
(222,562,l)
);
}
);
width = 742;
}
);
metricLeft = "nunavuth-canadian";
metricRight = "geCarrier-canadian";
note = uni15F9;
unicode = 5625;
},
{
color = 9;
glyphname = "khaCarrier-canadian";
lastChange = "2023-01-13 15:57:09 +0000";
layers = (
{
layerId = "9763B71A-4976-465B-BEF0-2F1E1DB14637";
shapes = (
{
closed = 1;
nodes = (
(679,0,l),
(679,690,l),
(284,690,ls),
(138,690,o),
(59,616,o),
(59,493,cs),
(59,407,o),
(102,348,o),
(180,322,c),
(177,371,l),
(105,338,o),
(59,273,o),
(59,195,cs),
(59,70,o),
(134,0,o),
(284,0,cs)
);
},
{
closed = 1;
nodes = (
(250,128,o),
(219,155,o),
(219,204,cs),
(219,257,o),
(252,283,o),
(311,283,cs),
(520,283,l),
(520,128,l),
(312,128,ls)
);
},
{
closed = 1;
nodes = (
(251,409,o),
(219,435,o),
(219,486,cs),
(219,535,o),
(250,562,o),
(312,562,cs),
(520,562,l),
(520,409,l),
(311,409,ls)
);
}
);
width = 742;
}
);
metricLeft = "=|geCarrier-canadian";
metricRight = "nunavuth-canadian";
note = uni15FA;
unicode = 5626;
},
{
color = 9;
glyphname = "kkuCarrier-canadian";
lastChange = "2023-01-13 15:57:09 +0000";
layers = (
{
layerId = "9763B71A-4976-465B-BEF0-2F1E1DB14637";
shapes = (
{
closed = 1;
nodes = (
(368,-14,o),
(434,35,o),
(464,130,c),
(390,130,l),
(427,31,o),
(491,-14,o),
(583,-14,cs),
(717,-14,o),
(794,74,o),
(794,218,cs),
(794,690,l),
(749,690,l),
(477,553,l),
(477,405,l),
(742,534,l),
(641,544,l),
(641,219,ls),
(641,158,o),
(618,127,o),
(574,127,cs),
(528,127,o),
(502,159,o),
(502,216,cs),
(502,690,l),
(353,690,l),
(353,216,ls),
(353,158,o),
(328,127,o),
(283,127,cs),
(238,127,o),
(212,158,o),
(212,219,cs),
(212,544,l),
(113,533,l),
(376,406,l),
(376,554,l),
(106,690,l),
(59,690,l),
(59,218,ls),
(59,73,o),
(142,-14,o),
(271,-14,cs)
);
}
);
width = 853;
}
);
metricLeft = "guCarrier-canadian";
metricRight = "guCarrier-canadian";
note = uni15FB;
unicode = 5627;
},
{
color = 9;
glyphname = "kkoCarrier-canadian";
lastChange = "2023-01-13 15:57:09 +0000";
layers = (
{
layerId = "9763B71A-4976-465B-BEF0-2F1E1DB14637";
shapes = (
{
closed = 1;
nodes = (
(104,0,l),
(376,137,l),
(376,285,l),
(111,156,l),
(212,146,l),
(212,470,ls),
(212,531,o),
(235,563,o),
(279,563,cs),
(325,563,o),
(350,530,o),
(350,473,cs),
(350,0,l),
(500,0,l),
(500,473,ls),
(500,531,o),
(525,563,o),
(569,563,cs),
(615,563,o),
(641,531,o),
(641,470,cs),
(641,146,l),
(740,156,l),
(476,284,l),
(476,136,l),
(747,0,l),
(794,0,l),
(794,471,ls),
(794,616,o),
(711,704,o),
(582,704,cs),
(485,704,o),
(419,655,o),
(389,559,c),
(463,559,l),
(426,659,o),
(362,704,o),
(270,704,cs),
(136,704,o),
(59,615,o),
(59,471,cs),
(59,0,l)
);
}
);
width = 853;
}
);
metricLeft = "guCarrier-canadian";
metricRight = "guCarrier-canadian";
note = uni15FC;
unicode = 5628;
},
{
color = 9;
glyphname = "kkeCarrier-canadian";
lastChange = "2023-01-13 15:57:09 +0000";
layers = (
{
layerId = "9763B71A-4976-465B-BEF0-2F1E1DB14637";
shapes = (
{
closed = 1;
nodes = (
(471,0,ls),
(621,0,o),
(697,70,o),
(697,195,cs),
(697,273,o),
(650,337,o),
(579,369,c),
(577,320,l),
(653,347,o),
(697,407,o),
(697,493,cs),
(697,616,o),
(617,690,o),
(471,690,cs),
(58,690,l),
(58,651,l),
(150,410,l),
(77,410,l),
(77,282,l),
(150,282,l),
(58,39,l),
(58,0,l)
);
},
{
closed = 1;
nodes = (
(311,282,l),
(444,282,ls),
(503,282,o),
(537,257,o),
(537,204,cs),
(537,155,o),
(505,129,o),
(443,129,cs),
(182,129,l),
(227,62,l)
);
},
{
closed = 1;
nodes = (
(226,628,l),
(180,560,l),
(443,560,ls),
(505,560,o),
(537,535,o),
(537,486,cs),
(537,435,o),
(504,410,o),
(444,410,cs),
(309,410,l)
);
}
);
width = 756;
}
);
metricRight = "geCarrier-canadian";
note = uni15FD;
unicode = 5629;
},
{
color = 9;
glyphname = "kkeeCarrier-canadian";
lastChange = "2023-01-13 15:57:09 +0000";
layers = (
{
layerId = "9763B71A-4976-465B-BEF0-2F1E1DB14637";
shapes = (
{
closed = 1;
nodes = (
(471,0,ls),
(621,0,o),
(697,70,o),
(697,195,cs),
(697,273,o),
(650,337,o),
(579,369,c),
(577,320,l),
(653,347,o),
(697,407,o),
(697,493,cs),
(697,616,o),
(617,690,o),
(471,690,cs),
(58,690,l),
(58,651,l),
(150,410,l),
(77,410,l),
(77,282,l),
(150,282,l),
(58,39,l),
(58,0,l)
);
},
{
closed = 1;
nodes = (
(310,286,l),
(351,286,l),
(351,207,l),
(450,207,l),
(450,311,l),
(414,286,l),
(455,286,ls),
(506,286,o),
(537,260,o),
(537,206,cs),
(537,156,o),
(505,129,o),
(443,129,cs),
(180,129,l),
(227,62,l)
);
},
{
closed = 1;
nodes = (
(450,484,l),
(351,484,l),
(351,406,l),
(308,406,l),
(225,628,l),
(179,560,l),
(443,560,ls),
(505,560,o),
(537,535,o),
(537,484,cs),
(537,431,o),
(507,406,o),
(455,406,cs),
(414,406,l),
(450,384,l)
);
}
);
width = 756;
}
);
metricLeft = "kkeCarrier-canadian";
metricRight = "geCarrier-canadian";
note = uni15FE;
unicode = 5630;
},
{
color = 9;
glyphname = "kkiCarrier-canadian";
lastChange = "2023-01-13 15:57:09 +0000";
layers = (
{
layerId = "9763B71A-4976-465B-BEF0-2F1E1DB14637";
shapes = (
{
closed = 1;
nodes = (
(471,0,ls),
(621,0,o),
(697,70,o),
(697,195,cs),
(697,273,o),
(650,337,o),
(579,369,c),
(577,320,l),
(653,347,o),
(697,407,o),
(697,493,cs),
(697,616,o),
(617,690,o),
(471,690,cs),
(58,690,l),
(58,651,l),
(150,410,l),
(77,410,l),
(77,282,l),
(150,282,l),
(58,39,l),
(58,0,l)
);
},
{
closed = 1;
nodes = (
(311,289,l),
(303,289,l),
(322,254,o),
(356,232,o),
(399,232,cs),
(458,232,o),
(500,278,o),
(505,329,c),
(430,289,l),
(455,289,ls),
(506,289,o),
(537,260,o),
(537,204,cs),
(537,156,o),
(505,129,o),
(443,129,cs),
(180,129,l),
(227,62,l)
);
},
{
closed = 1;
nodes = (
(500,414,o),
(459,459,o),
(399,459,cs),
(357,459,o),
(323,437,o),
(304,403,c),
(309,403,l),
(225,628,l),
(179,560,l),
(443,560,ls),
(505,560,o),
(537,535,o),
(537,482,cs),
(537,431,o),
(507,403,o),
(455,403,cs),
(431,403,l),
(507,361,l)
);
}
);
width = 756;
}
);
metricLeft = "kkeCarrier-canadian";
metricRight = "geCarrier-canadian";
note = uni15FF;
unicode = 5631;
},
{
color = 9;
glyphname = "kkaCarrier-canadian";
lastChange = "2023-01-13 15:57:09 +0000";
layers = (
{
layerId = "9763B71A-4976-465B-BEF0-2F1E1DB14637";
shapes = (
{
closed = 1;
nodes = (
(697,0,l),
(697,39,l),
(606,282,l),
(676,282,l),
(676,410,l),
(606,410,l),
(697,651,l),
(697,690,l),
(284,690,ls),
(138,690,o),
(59,616,o),
(59,493,cs),
(59,407,o),
(102,348,o),
(180,322,c),
(177,371,l),
(105,338,o),
(59,273,o),
(59,195,cs),
(59,70,o),
(134,0,o),
(284,0,cs)
);
},
{
closed = 1;
nodes = (
(576,129,l),
(312,129,ls),
(250,129,o),
(219,155,o),
(219,204,cs),
(219,257,o),
(252,282,o),
(311,282,cs),
(445,282,l),
(529,62,l)
);
},
{
closed = 1;
nodes = (
(251,410,o),
(219,435,o),
(219,486,cs),
(219,535,o),
(250,560,o),
(312,560,cs),
(575,560,l),
(528,628,l),
(445,410,l),
(311,410,ls)
);
}
);
width = 755;
}
);
metricLeft = "=|geCarrier-canadian";
metricRight = "=|kkeCarrier-canadian";
note = uni1600;
unicode = 5632;
},
{
color = 6;
glyphname = "kkCarrier-canadian";
lastChange = "2023-01-13 15:57:09 +0000";
layers = (
{
layerId = "9763B71A-4976-465B-BEF0-2F1E1DB14637";
shapes = (
{
closed = 1;
nodes = (
(217,183,l),
(376,508,l),
(376,527,l),
(270,527,l),
(164,299,l),
(247,299,l),
(143,527,l),
(35,527,l),
(35,508,l),
(193,183,l)
);
}
);
width = 411;
}
);
note = uni1601;
unicode = 5633;
},
{
color = 9;
glyphname = "nuCarrier-canadian";
lastChange = "2023-01-13 15:57:09 +0000";
layers = (
{
layerId = "9763B71A-4976-465B-BEF0-2F1E1DB14637";
shapes = (
{
closed = 1;
nodes = (
(563,-14,o),
(669,100,o),
(669,286,cs),
(669,313,l),
(511,313,l),
(511,281,ls),
(511,182,o),
(459,130,o),
(369,130,cs),
(265,130,o),
(216,187,o),
(216,311,cs),
(216,690,l),
(56,690,l),
(56,307,ls),
(56,97,o),
(167,-14,o),
(365,-14,cs)
);
}
);
width = 716;
}
);
metricLeft = "te-canadian";
note = uni1602;
unicode = 5634;
},
{
color = 9;
glyphname = "noCarrier-canadian";
lastChange = "2023-01-13 15:57:15 +0000";
layers = (
{
layerId = "9763B71A-4976-465B-BEF0-2F1E1DB14637";
shapes = (
{
closed = 1;
nodes = (
(661,0,l),
(661,383,ls),
(661,593,o),
(549,704,o),
(351,704,cs),
(154,704,o),
(47,589,o),
(47,404,cs),
(47,377,l),
(206,377,l),
(206,409,ls),
(206,508,o),
(258,559,o),
(348,559,cs),
(452,559,o),
(500,502,o),
(500,379,cs),
(500,0,l)
);
}
);
width = 717;
}
);
metricLeft = "=|nuCarrier-canadian";
metricRight = "te-canadian";
note = uni1603;
unicode = 5635;
},
{
color = 9;
glyphname = "neCarrier-canadian";
lastChange = "2023-01-13 15:57:09 +0000";
layers = (
{
anchors = (
{
name = middle_center_can;
pos = (350,344);
}
);
layerId = "9763B71A-4976-465B-BEF0-2F1E1DB14637";
shapes = (
{
closed = 1;
nodes = (
(331,0,ls),
(551,0,o),
(680,125,o),
(680,346,cs),
(680,567,o),
(551,690,o),
(329,690,cs),
(41,690,l),
(41,546,l),
(324,546,ls),
(447,546,o),
(521,480,o),
(521,345,cs),
(521,209,o),
(447,142,o),
(325,142,cs),
(305,142,l),
(305,0,l)
);
}
);
width = 730;
}
);
metricRight = "theCarrier-canadian";
note = uni1604;
unicode = 5636;
},
{
color = 9;
glyphname = "naCarrier-canadian";
lastChange = "2023-01-13 15:57:15 +0000";
layers = (
{
layerId = "9763B71A-4976-465B-BEF0-2F1E1DB14637";
shapes = (
{
closed = 1;
nodes = (
(690,0,l),
(690,144,l),
(407,144,ls),
(283,144,o),
(210,210,o),
(210,345,cs),
(210,481,o),
(283,548,o),
(406,548,cs),
(425,548,l),
(425,690,l),
(399,690,ls),
(180,690,o),
(50,565,o),
(50,344,cs),
(50,123,o),
(180,0,o),
(400,0,cs)
);
}
);
width = 731;
}
);
metricLeft = "=|theCarrier-canadian";
metricRight = "=|neCarrier-canadian";
note = uni1607;
unicode = 5639;
},
{
color = 9;
glyphname = "muCarrier-canadian";
lastChange = "2023-01-13 15:57:09 +0000";
layers = (
{
layerId = "9763B71A-4976-465B-BEF0-2F1E1DB14637";
shapes = (
{
closed = 1;
nodes = (
(368,-14,o),
(433,34,o),
(464,128,c),
(390,128,l),
(428,30,o),
(492,-14,o),
(583,-14,cs),
(717,-14,o),
(794,74,o),
(794,218,cs),
(794,395,l),
(641,395,l),
(641,219,ls),
(641,158,o),
(618,127,o),
(574,127,cs),
(529,127,o),
(503,159,o),
(503,216,cs),
(503,395,l),
(353,395,l),
(353,216,ls),
(353,158,o),
(327,127,o),
(283,127,cs),
(237,127,o),
(212,158,o),
(212,219,cs),
(212,690,l),
(59,690,l),
(59,218,ls),
(59,73,o),
(142,-14,o),
(271,-14,cs)
);
}
);
width = 853;
}
);
metricLeft = "guCarrier-canadian";
metricRight = "=|";
note = uni1608;
unicode = 5640;
},
{
color = 9;
glyphname = "moCarrier-canadian";
lastChange = "2023-01-13 15:57:09 +0000";
layers = (
{
layerId = "9763B71A-4976-465B-BEF0-2F1E1DB14637";
shapes = (
{
closed = 1;
nodes = (
(794,0,l),
(794,471,ls),
(794,616,o),
(711,704,o),
(582,704,cs),
(486,704,o),
(421,656,o),
(390,562,c),
(463,562,l),
(426,660,o),
(362,704,o),
(270,704,cs),
(136,704,o),
(59,615,o),
(59,471,cs),
(59,295,l),
(212,295,l),
(212,470,ls),
(212,531,o),
(235,563,o),
(279,563,cs),
(325,563,o),
(350,530,o),
(350,473,cs),
(350,295,l),
(501,295,l),
(501,473,ls),
(501,530,o),
(526,563,o),
(570,563,cs),
(616,563,o),
(641,531,o),
(641,470,cs),
(641,0,l)
);
}
);
width = 853;
}
);
metricLeft = "=|muCarrier-canadian";
metricRight = "guCarrier-canadian";
note = uni1609;
unicode = 5641;
},
{
color = 9;
glyphname = "meCarrier-canadian";
lastChange = "2023-01-13 15:57:09 +0000";
layers = (
{
layerId = "9763B71A-4976-465B-BEF0-2F1E1DB14637";
shapes = (
{
closed = 1;
nodes = (
(454,0,ls),
(604,0,o),
(680,70,o),
(680,195,cs),
(680,275,o),
(630,341,o),
(553,372,c),
(553,317,l),
(633,344,o),
(680,405,o),
(680,493,cs),
(680,616,o),
(600,690,o),
(454,690,cs),
(41,690,l),
(41,560,l),
(426,560,ls),
(488,560,o),
(520,535,o),
(520,486,cs),
(520,435,o),
(487,410,o),
(427,410,cs),
(287,410,l),
(287,282,l),
(427,282,ls),
(486,282,o),
(520,257,o),
(520,204,cs),
(520,155,o),
(488,129,o),
(426,129,cs),
(287,129,l),
(287,0,l)
);
}
);
width = 739;
}
);
metricLeft = "neCarrier-canadian";
metricRight = "geCarrier-canadian";
note = uni160A;
unicode = 5642;
},
{
color = 9;
glyphname = "meeCarrier-canadian";
lastChange = "2023-01-13 15:57:09 +0000";
layers = (
{
layerId = "9763B71A-4976-465B-BEF0-2F1E1DB14637";
shapes = (
{
closed = 1;
nodes = (
(454,0,ls),
(604,0,o),
(680,70,o),
(680,195,cs),
(680,273,o),
(633,337,o),
(561,369,c),
(559,320,l),
(636,347,o),
(680,407,o),
(680,493,cs),
(680,616,o),
(600,690,o),
(454,690,cs),
(41,690,l),
(41,560,l),
(426,560,ls),
(488,560,o),
(520,535,o),
(520,484,cs),
(520,432,o),
(489,406,o),
(432,406,cs),
(389,406,l),
(389,476,l),
(287,476,l),
(287,213,l),
(389,213,l),
(389,285,l),
(431,285,ls),
(489,285,o),
(520,259,o),
(520,206,cs),
(520,156,o),
(488,129,o),
(426,129,cs),
(287,129,l),
(287,0,l)
);
}
);
width = 739;
}
);
metricLeft = "neCarrier-canadian";
metricRight = "geCarrier-canadian";
note = uni160B;
unicode = 5643;
},
{
color = 9;
glyphname = "miCarrier-canadian";
lastChange = "2023-01-13 15:57:09 +0000";
layers = (
{
layerId = "9763B71A-4976-465B-BEF0-2F1E1DB14637";
shapes = (
{
closed = 1;
nodes = (
(454,0,ls),
(604,0,o),
(680,70,o),
(680,195,cs),
(680,273,o),
(633,337,o),
(561,369,c),
(559,320,l),
(636,347,o),
(680,407,o),
(680,493,cs),
(680,616,o),
(600,690,o),
(454,690,cs),
(41,690,l),
(41,560,l),
(425,560,ls),
(488,560,o),
(520,535,o),
(520,484,cs),
(520,432,o),
(489,406,o),
(440,406,cs),
(360,406,l),
(449,361,l),
(441,417,o),
(397,459,o),
(338,459,cs),
(274,459,o),
(226,409,o),
(226,346,cs),
(226,282,o),
(274,232,o),
(338,232,cs),
(396,232,o),
(440,276,o),
(447,329,c),
(359,285,l),
(440,285,ls),
(489,285,o),
(520,259,o),
(520,206,cs),
(520,156,o),
(488,129,o),
(426,129,cs),
(287,129,l),
(287,0,l)
);
}
);
width = 739;
}
);
metricLeft = "neCarrier-canadian";
metricRight = "geCarrier-canadian";
note = uni160C;
unicode = 5644;
},
{
color = 9;
glyphname = "maCarrier-canadian";
lastChange = "2023-01-13 15:57:09 +0000";
layers = (
{
layerId = "9763B71A-4976-465B-BEF0-2F1E1DB14637";
shapes = (
{
closed = 1;
nodes = (
(697,0,l),
(697,129,l),
(312,129,ls),
(250,129,o),
(219,154,o),
(219,204,cs),
(219,256,o),
(251,281,o),
(311,281,cs),
(452,281,l),
(452,409,l),
(312,409,ls),
(251,409,o),
(219,435,o),
(219,486,cs),
(219,535,o),
(250,560,o),
(312,560,cs),
(452,560,l),
(452,690,l),
(284,690,ls),
(137,690,o),
(59,617,o),
(59,494,cs),
(59,407,o),
(106,347,o),
(185,319,c),
(185,373,l),
(107,344,o),
(59,278,o),
(59,195,cs),
(59,71,o),
(136,0,o),
(284,0,cs)
);
}
);
width = 738;
}
);
metricLeft = "=|geCarrier-canadian";
metricRight = "=|neCarrier-canadian";
note = uni160D;
unicode = 5645;
},
{
color = 9;
glyphname = "yuCarrier-canadian";
lastChange = "2023-01-13 15:57:09 +0000";
layers = (
{
layerId = "9763B71A-4976-465B-BEF0-2F1E1DB14637";
shapes = (
{
closed = 1;
nodes = (
(592,-14,o),
(717,134,o),
(717,383,cs),
(717,601,o),
(625,704,o),
(496,704,cs),
(381,704,o),
(295,626,o),
(295,490,cs),
(295,362,o),
(374,286,o),
(480,286,cs),
(492,286,o),
(506,288,o),
(518,291,c),
(518,416,l),
(512,415,o),
(505,415,o),
(497,415,cs),
(457,415,o),
(435,442,o),
(435,497,cs),
(435,548,o),
(456,575,o),
(490,575,cs),
(532,575,o),
(563,536,o),
(563,386,cs),
(563,201,o),
(495,130,o),
(384,130,cs),
(277,130,o),
(216,195,o),
(216,333,cs),
(216,690,l),
(56,690,l),
(56,323,ls),
(56,107,o),
(186,-14,o),
(377,-14,cs)
);
}
);
width = 773;
}
);
metricLeft = "te-canadian";
metricRight = "te-canadian";
note = uni160E;
unicode = 5646;
},
{
color = 9;
glyphname = "yoCarrier-canadian";
lastChange = "2023-01-13 15:57:09 +0000";
layers = (
{
layerId = "9763B71A-4976-465B-BEF0-2F1E1DB14637";
shapes = (
{
closed = 1;
nodes = (
(392,-14,o),
(477,64,o),
(477,200,cs),
(477,327,o),
(399,404,o),
(293,404,cs),
(281,404,o),
(267,402,o),
(255,399,c),
(255,273,l),
(261,274,o),
(268,274,o),
(276,274,cs),
(316,274,o),
(338,247,o),
(338,193,cs),
(338,142,o),
(317,115,o),
(282,115,cs),
(240,115,o),
(210,154,o),
(210,303,cs),
(210,489,o),
(277,559,o),
(388,559,cs),
(496,559,o),
(556,495,o),
(556,356,cs),
(556,0,l),
(717,0,l),
(717,367,ls),
(717,582,o),
(586,704,o),
(395,704,cs),
(181,704,o),
(56,555,o),
(56,307,cs),
(56,89,o),
(147,-14,o),
(277,-14,cs)
);
}
);
width = 773;
}
);
metricLeft = "te-canadian";
metricRight = "te-canadian";
note = uni160F;
unicode = 5647;
},
{
color = 9;
glyphname = "yeCarrier-canadian";
lastChange = "2023-01-13 15:57:15 +0000";
layers = (
{
layerId = "9763B71A-4976-465B-BEF0-2F1E1DB14637";
shapes = (
{
closed = 1;
nodes = (
(543,-14,o),
(674,121,o),
(674,338,cs),
(674,571,o),
(541,690,o),
(298,690,cs),
(62,690,l),
(62,546,l),
(303,546,ls),
(445,546,o),
(515,482,o),
(515,332,cs),
(515,191,o),
(459,121,o),
(327,121,cs),
(227,121,o),
(187,161,o),
(187,223,cs),
(187,271,o),
(209,296,o),
(241,296,cs),
(274,296,o),
(295,270,o),
(295,221,cs),
(295,205,o),
(294,194,o),
(294,185,c),
(420,185,l),
(424,201,o),
(425,215,o),
(425,234,cs),
(425,341,o),
(357,422,o),
(242,422,cs),
(123,422,o),
(48,338,o),
(48,221,cs),
(48,84,o),
(150,-14,o),
(327,-14,cs)
);
}
);
width = 724;
}
);
metricRight = "theCarrier-canadian";
note = uni1610;
unicode = 5648;
},
{
color = 9;
glyphname = "yeeCarrier-canadian";
lastChange = "2023-01-13 15:57:15 +0000";
layers = (
{
layerId = "9763B71A-4976-465B-BEF0-2F1E1DB14637";
shapes = (
{
closed = 1;
nodes = (
(543,-14,o),
(674,121,o),
(674,338,cs),
(674,571,o),
(541,690,o),
(298,690,cs),
(62,690,l),
(62,546,l),
(303,546,ls),
(445,546,o),
(515,482,o),
(515,333,cs),
(515,191,o),
(461,121,o),
(326,121,cs),
(227,121,o),
(187,160,o),
(187,224,cs),
(187,270,o),
(209,296,o),
(239,296,cs),
(271,296,o),
(292,270,o),
(292,224,cs),
(292,189,l),
(378,189,l),
(378,483,l),
(292,483,l),
(292,320,l),
(305,320,l),
(303,384,o),
(266,422,o),
(202,422,cs),
(112,422,o),
(48,341,o),
(48,222,cs),
(48,84,o),
(148,-14,o),
(327,-14,cs)
);
}
);
width = 724;
}
);
metricRight = "theCarrier-canadian";
metricWidth = "yeCarrier-canadian";
note = uni1611;
unicode = 5649;
},
{
color = 9;
glyphname = "yiCarrier-canadian";
lastChange = "2023-01-13 15:57:15 +0000";
layers = (
{
layerId = "9763B71A-4976-465B-BEF0-2F1E1DB14637";
shapes = (
{
closed = 1;
nodes = (
(543,-14,o),
(674,121,o),
(674,338,cs),
(674,571,o),
(541,690,o),
(298,690,cs),
(62,690,l),
(62,546,l),
(303,546,ls),
(445,546,o),
(515,482,o),
(515,332,cs),
(515,191,o),
(459,121,o),
(333,121,cs),
(228,121,o),
(187,161,o),
(187,223,cs),
(187,284,o),
(218,304,o),
(287,298,c),
(214,336,l),
(219,290,o),
(258,252,o),
(310,252,cs),
(365,252,o),
(404,296,o),
(404,346,cs),
(404,398,o),
(363,438,o),
(309,438,cs),
(279,438,o),
(252,425,o),
(236,405,c),
(114,398,o),
(48,322,o),
(48,213,cs),
(48,83,o),
(150,-14,o),
(327,-14,cs)
);
}
);
width = 724;
}
);
metricRight = "theCarrier-canadian";
metricWidth = "yeCarrier-canadian";
note = uni1612;
unicode = 5650;
},
{
color = 9;
glyphname = "yaCarrier-canadian";
lastChange = "2023-01-13 15:57:09 +0000";
layers = (
{
layerId = "9763B71A-4976-465B-BEF0-2F1E1DB14637";
shapes = (
{
closed = 1;
nodes = (
(664,0,l),
(664,144,l),
(421,144,ls),
(280,144,o),
(210,208,o),
(210,357,cs),
(210,498,o),
(266,569,o),
(400,569,cs),
(498,569,o),
(538,528,o),
(538,467,cs),
(538,418,o),
(517,394,o),
(485,394,cs),
(451,394,o),
(430,420,o),
(430,469,cs),
(430,485,o),
(431,496,o),
(432,505,c),
(305,505,l),
(301,489,o),
(300,474,o),
(300,456,cs),
(300,349,o),
(368,268,o),
(484,268,cs),
(603,268,o),
(677,352,o),
(677,469,cs),
(677,606,o),
(576,704,o),
(398,704,cs),
(183,704,o),
(50,569,o),
(50,352,cs),
(50,119,o),
(185,0,o),
(427,0,cs)
);
}
);
width = 725;
}
);
metricLeft = "=|theCarrier-canadian";
metricRight = "=|yeCarrier-canadian";
note = uni1613;
unicode = 5651;
},
{
color = 9;
glyphname = "juCarrier-canadian";
lastChange = "2023-01-13 15:57:09 +0000";
layers = (
{
layerId = "9763B71A-4976-465B-BEF0-2F1E1DB14637";
shapes = (
{
closed = 1;
nodes = (
(585,-14,o),
(690,82,o),
(690,223,cs),
(690,338,o),
(615,422,o),
(497,422,cs),
(381,422,o),
(312,341,o),
(312,234,cs),
(312,215,o),
(314,201,o),
(318,185,c),
(444,185,l),
(443,194,o),
(442,206,o),
(442,221,cs),
(442,269,o),
(464,296,o),
(497,296,cs),
(529,296,o),
(550,270,o),
(550,225,cs),
(550,159,o),
(508,121,o),
(410,121,cs),
(277,121,o),
(220,185,o),
(220,306,cs),
(220,481,o),
(332,546,o),
(520,546,cs),
(676,546,l),
(676,690,l),
(52,690,l),
(52,553,l),
(311,553,l),
(422,608,l),
(182,608,o),
(61,487,o),
(61,298,cs),
(61,114,o),
(191,-14,o),
(404,-14,cs)
);
}
);
width = 738;
}
);
metricRight = "=|yeCarrier-canadian";
note = uni1614;
unicode = 5652;
},
{
color = 9;
glyphname = "juSayisi-canadian";
lastChange = "2023-01-13 15:57:09 +0000";
layers = (
{
anchors = (
{
name = top_center_can;
pos = (371,690);
}
);
layerId = "9763B71A-4976-465B-BEF0-2F1E1DB14637";
shapes = (
{
closed = 1;
nodes = (
(546,-14,o),
(676,114,o),
(676,298,cs),
(676,487,o),
(556,608,o),
(315,608,c),
(427,553,l),
(685,553,l),
(685,690,l),
(62,690,l),
(62,546,l),
(217,546,ls),
(406,546,o),
(518,481,o),
(518,306,cs),
(518,185,o),
(460,121,o),
(327,121,cs),
(229,121,o),
(187,159,o),
(187,225,cs),
(187,270,o),
(209,296,o),
(241,296,cs),
(273,296,o),
(295,269,o),
(295,221,cs),
(295,206,o),
(294,194,o),
(294,185,c),
(420,185,l),
(424,201,o),
(425,215,o),
(425,234,cs),
(425,341,o),
(356,422,o),
(241,422,cs),
(123,422,o),
(48,338,o),
(48,223,cs),
(48,82,o),
(152,-14,o),
(333,-14,cs)
);
}
);
width = 737;
}
);
metricLeft = "yeCarrier-canadian";
metricRight = "=|juCarrier-canadian";
note = uni1615;
unicode = 5653;
},
{
color = 9;
glyphname = "joCarrier-canadian";
lastChange = "2023-01-13 15:57:09 +0000";
layers = (
{
layerId = "9763B71A-4976-465B-BEF0-2F1E1DB14637";
shapes = (
{
closed = 1;
nodes = (
(685,0,l),
(685,137,l),
(427,137,l),
(315,82,l),
(556,82,o),
(676,203,o),
(676,391,cs),
(676,576,o),
(546,704,o),
(333,704,cs),
(152,704,o),
(48,608,o),
(48,467,cs),
(48,352,o),
(123,268,o),
(241,268,cs),
(356,268,o),
(425,349,o),
(425,456,cs),
(425,474,o),
(424,489,o),
(420,505,c),
(294,505,l),
(294,496,o),
(295,484,o),
(295,469,cs),
(295,421,o),
(273,394,o),
(241,394,cs),
(209,394,o),
(187,419,o),
(187,465,cs),
(187,530,o),
(229,569,o),
(327,569,cs),
(460,569,o),
(518,504,o),
(518,384,cs),
(518,209,o),
(406,144,o),
(217,144,cs),
(62,144,l),
(62,0,l)
);
}
);
width = 737;
}
);
metricLeft = "yeCarrier-canadian";
metricRight = "=|juCarrier-canadian";
note = uni1616;
unicode = 5654;
},
{
color = 9;
glyphname = "jeCarrier-canadian";
lastChange = "2023-01-13 15:57:09 +0000";
layers = (
{
layerId = "9763B71A-4976-465B-BEF0-2F1E1DB14637";
shapes = (
{
closed = 1;
nodes = (
(632,-14,o),
(724,89,o),
(724,307,cs),
(724,565,o),
(599,704,o),
(430,704,cs),
(300,704,o),
(210,627,o),
(195,468,c),
(221,472,l),
(221,690,l),
(63,690,l),
(63,0,l),
(223,0,l),
(223,260,ls),
(223,475,o),
(289,559,o),
(404,559,cs),
(504,559,o),
(570,486,o),
(570,304,cs),
(570,154,o),
(540,115,o),
(498,115,cs),
(464,115,o),
(441,142,o),
(441,193,cs),
(441,247,o),
(464,274,o),
(503,274,cs),
(511,274,o),
(519,274,o),
(525,273,c),
(525,399,l),
(513,402,o),
(498,404,o),
(487,404,cs),
(380,404,o),
(301,327,o),
(301,200,cs),
(301,64,o),
(387,-14,o),
(502,-14,cs)
);
}
);
width = 780;
}
);
metricLeft = "nunavuth-canadian";
metricRight = "te-canadian";
note = uni1617;
unicode = 5655;
},
{
color = 9;
glyphname = "jeeCarrier-canadian";
lastChange = "2023-01-13 15:57:09 +0000";
layers = (
{
layerId = "9763B71A-4976-465B-BEF0-2F1E1DB14637";
shapes = (
{
closed = 1;
nodes = (
(632,-14,o),
(724,89,o),
(724,307,cs),
(724,565,o),
(599,704,o),
(430,704,cs),
(316,704,o),
(231,646,o),
(203,526,c),
(221,504,l),
(221,690,l),
(63,690,l),
(63,0,l),
(223,0,l),
(223,260,ls),
(223,475,o),
(289,559,o),
(404,559,cs),
(504,559,o),
(570,486,o),
(570,304,cs),
(570,171,o),
(538,115,o),
(470,115,cs),
(415,115,o),
(387,152,o),
(387,211,cs),
(387,251,o),
(399,280,o),
(422,298,c),
(422,224,l),
(503,224,l),
(503,462,l),
(422,462,l),
(422,384,l),
(352,361,o),
(301,295,o),
(301,193,cs),
(301,63,o),
(382,-14,o),
(497,-14,cs)
);
}
);
width = 780;
}
);
metricLeft = "nunavuth-canadian";
metricRight = "jeCarrier-canadian";
note = uni1618;
unicode = 5656;
},
{
color = 9;
glyphname = "jiCarrier-canadian";
lastChange = "2023-01-13 15:57:09 +0000";
layers = (
{
layerId = "9763B71A-4976-465B-BEF0-2F1E1DB14637";
shapes = (
{
closed = 1;
nodes = (
(632,-14,o),
(724,89,o),
(724,307,cs),
(724,565,o),
(599,704,o),
(430,704,cs),
(316,704,o),
(231,646,o),
(203,526,c),
(221,504,l),
(221,690,l),
(63,690,l),
(63,0,l),
(223,0,l),
(223,260,ls),
(223,475,o),
(289,559,o),
(404,559,cs),
(504,559,o),
(570,486,o),
(570,304,cs),
(570,171,o),
(538,115,o),
(470,115,cs),
(415,115,o),
(387,152,o),
(387,211,cs),
(387,232,o),
(391,246,o),
(399,258,c),
(408,253,o),
(418,250,o),
(429,250,cs),
(483,250,o),
(520,294,o),
(520,344,cs),
(520,396,o),
(481,436,o),
(429,436,cs),
(364,436,o),
(327,376,o),
(341,321,c),
(317,290,o),
(301,247,o),
(301,193,cs),
(301,63,o),
(382,-14,o),
(497,-14,cs)
);
}
);
width = 780;
}
);
metricLeft = "nunavuth-canadian";
metricRight = "jeCarrier-canadian";
note = uni1619;
unicode = 5657;
},
{
color = 9;
glyphname = "jiSayisi-canadian";
lastChange = "2023-01-13 15:57:09 +0000";
layers = (
{
layerId = "9763B71A-4976-465B-BEF0-2F1E1DB14637";
shapes = (
{
closed = 1;
nodes = (
(599,-14,o),
(724,125,o),
(724,383,cs),
(724,601,o),
(632,704,o),
(502,704,cs),
(387,704,o),
(301,626,o),
(301,490,cs),
(301,362,o),
(380,286,o),
(487,286,cs),
(498,286,o),
(513,288,o),
(525,291,c),
(525,416,l),
(519,415,o),
(511,415,o),
(503,415,cs),
(464,415,o),
(441,442,o),
(441,497,cs),
(441,548,o),
(463,575,o),
(496,575,cs),
(539,575,o),
(570,536,o),
(570,385,cs),
(570,204,o),
(504,130,o),
(404,130,cs),
(289,130,o),
(223,214,o),
(223,430,cs),
(223,690,l),
(63,690,l),
(63,0,l),
(221,0,l),
(221,217,l),
(195,222,l),
(210,63,o),
(300,-14,o),
(430,-14,cs)
);
}
);
width = 780;
}
);
metricLeft = "nunavuth-canadian";
metricRight = "jeCarrier-canadian";
note = uni161A;
unicode = 5658;
},
{
color = 9;
glyphname = "jaCarrier-canadian";
lastChange = "2023-01-13 15:57:09 +0000";
layers = (
{
anchors = (
{
name = top_center_can;
pos = (384,690);
}
);
layerId = "9763B71A-4976-465B-BEF0-2F1E1DB14637";
shapes = (
{
closed = 1;
nodes = (
(479,-14,o),
(570,63,o),
(584,222,c),
(558,217,l),
(558,0,l),
(717,0,l),
(717,690,l),
(556,690,l),
(556,430,ls),
(556,214,o),
(491,130,o),
(376,130,cs),
(274,130,o),
(210,204,o),
(210,385,cs),
(210,536,o),
(240,575,o),
(283,575,cs),
(317,575,o),
(338,548,o),
(338,497,cs),
(338,442,o),
(316,415,o),
(275,415,cs),
(268,415,o),
(261,415,o),
(255,416,c),
(255,291,l),
(267,288,o),
(281,286,o),
(293,286,cs),
(399,286,o),
(477,362,o),
(477,490,cs),
(477,626,o),
(392,704,o),
(277,704,cs),
(147,704,o),
(56,601,o),
(56,383,cs),
(56,125,o),
(181,-14,o),
(350,-14,cs)
);
}
);
width = 780;
}
);
metricLeft = "=|jeCarrier-canadian";
metricRight = "nunavuth-canadian";
note = uni161B;
unicode = 5659;
},
{
color = 9;
glyphname = "jjuCarrier-canadian";
lastChange = "2023-01-13 15:57:09 +0000";
layers = (
{
layerId = "9763B71A-4976-465B-BEF0-2F1E1DB14637";
shapes = (
{
closed = 1;
nodes = (
(578,-14,o),
(681,84,o),
(681,221,cs),
(681,338,o),
(607,422,o),
(489,422,cs),
(370,422,o),
(301,341,o),
(301,234,cs),
(301,216,o),
(303,201,o),
(307,185,c),
(434,185,l),
(433,195,o),
(432,208,o),
(432,221,cs),
(432,269,o),
(453,296,o),
(486,296,cs),
(518,296,o),
(539,271,o),
(539,224,cs),
(539,160,o),
(492,120,o),
(400,120,cs),
(266,120,o),
(213,188,o),
(213,309,cs),
(213,460,o),
(305,546,o),
(505,546,cs),
(668,546,l),
(668,690,l),
(490,690,ls),
(370,690,o),
(273,660,o),
(204,609,c),
(109,704,l),
(4,600,l),
(102,500,l),
(71,446,o),
(55,383,o),
(55,314,cs),
(55,119,o),
(179,-14,o),
(398,-14,cs)
);
}
);
width = 729;
}
);
metricRight = "=|yeCarrier-canadian";
note = uni161C;
unicode = 5660;
},
{
color = 9;
glyphname = "jjoCarrier-canadian";
lastChange = "2023-01-13 15:57:09 +0000";
layers = (
{
layerId = "9763B71A-4976-465B-BEF0-2F1E1DB14637";
shapes = (
{
closed = 1;
nodes = (
(725,90,l),
(627,189,l),
(658,243,o),
(674,307,o),
(674,376,cs),
(674,571,o),
(551,704,o),
(337,704,cs),
(157,704,o),
(48,606,o),
(48,468,cs),
(48,352,o),
(122,268,o),
(242,268,cs),
(359,268,o),
(428,349,o),
(428,456,cs),
(428,473,o),
(426,489,o),
(423,505,c),
(296,505,l),
(297,495,o),
(298,482,o),
(298,469,cs),
(298,421,o),
(277,394,o),
(243,394,cs),
(212,394,o),
(190,418,o),
(190,466,cs),
(190,529,o),
(233,570,o),
(333,570,cs),
(464,570,o),
(516,501,o),
(516,381,cs),
(516,230,o),
(424,144,o),
(224,144,cs),
(62,144,l),
(62,0,l),
(240,0,ls),
(359,0,o),
(456,30,o),
(526,81,c),
(620,-14,l)
);
}
);
width = 729;
}
);
metricLeft = "yeCarrier-canadian";
metricRight = "=|jjuCarrier-canadian";
note = uni161D;
unicode = 5661;
},
{
color = 9;
glyphname = "jjeCarrier-canadian";
lastChange = "2023-01-13 15:57:09 +0000";
layers = (
{
layerId = "9763B71A-4976-465B-BEF0-2F1E1DB14637";
shapes = (
{
closed = 1;
nodes = (
(645,-14,o),
(736,89,o),
(736,307,cs),
(736,555,o),
(619,704,o),
(413,704,cs),
(329,704,o),
(254,676,o),
(196,624,c),
(113,704,l),
(12,597,l),
(111,500,l),
(88,446,o),
(75,382,o),
(75,306,cs),
(75,0,l),
(236,0,l),
(236,300,ls),
(236,476,o),
(297,559,o),
(412,559,cs),
(515,559,o),
(582,489,o),
(582,303,cs),
(582,154,o),
(553,115,o),
(510,115,cs),
(475,115,o),
(454,142,o),
(454,193,cs),
(454,247,o),
(476,274,o),
(516,274,cs),
(525,274,o),
(531,274,o),
(537,273,c),
(537,399,l),
(526,402,o),
(511,404,o),
(499,404,cs),
(393,404,o),
(315,327,o),
(315,200,cs),
(315,64,o),
(400,-14,o),
(515,-14,cs)
);
}
);
width = 792;
}
);
metricRight = "jeCarrier-canadian";
note = uni161E;
unicode = 5662;
},
{
color = 9;
glyphname = "jjeeCarrier-canadian";
lastChange = "2023-01-13 15:57:09 +0000";
layers = (
{
layerId = "9763B71A-4976-465B-BEF0-2F1E1DB14637";
shapes = (
{
closed = 1;
nodes = (
(644,-14,o),
(736,89,o),
(736,307,cs),
(736,555,o),
(619,704,o),
(413,704,cs),
(329,704,o),
(254,676,o),
(196,624,c),
(113,704,l),
(12,597,l),
(111,500,l),
(88,446,o),
(75,382,o),
(75,306,cs),
(75,0,l),
(236,0,l),
(236,300,ls),
(236,476,o),
(297,559,o),
(412,559,cs),
(515,559,o),
(582,489,o),
(582,303,cs),
(582,172,o),
(551,115,o),
(482,115,cs),
(428,115,o),
(400,152,o),
(400,211,cs),
(400,250,o),
(412,278,o),
(435,296,c),
(435,224,l),
(515,224,l),
(515,460,l),
(435,460,l),
(435,384,l),
(364,361,o),
(315,294,o),
(315,193,cs),
(315,63,o),
(395,-14,o),
(509,-14,cs)
);
}
);
width = 792;
}
);
metricLeft = "jjeCarrier-canadian";
metricRight = "jeCarrier-canadian";
note = uni161F;
unicode = 5663;
},
{
color = 9;
glyphname = "jjiCarrier-canadian";
lastChange = "2023-01-13 15:57:09 +0000";
layers = (
{
layerId = "9763B71A-4976-465B-BEF0-2F1E1DB14637";
shapes = (
{
closed = 1;
nodes = (
(644,-14,o),
(736,89,o),
(736,307,cs),
(736,555,o),
(619,704,o),
(413,704,cs),
(329,704,o),
(254,676,o),
(196,624,c),
(113,704,l),
(12,597,l),
(111,500,l),
(88,446,o),
(75,382,o),
(75,306,cs),
(75,0,l),
(236,0,l),
(236,300,ls),
(236,476,o),
(297,559,o),
(412,559,cs),
(515,559,o),
(582,489,o),
(582,303,cs),
(582,172,o),
(551,115,o),
(482,115,cs),
(428,115,o),
(400,152,o),
(400,211,cs),
(400,234,o),
(405,250,o),
(414,262,c),
(425,255,o),
(439,250,o),
(454,250,cs),
(507,250,o),
(544,294,o),
(544,344,cs),
(544,396,o),
(506,436,o),
(454,436,cs),
(396,436,o),
(358,385,o),
(364,333,c),
(333,301,o),
(315,254,o),
(315,193,cs),
(315,63,o),
(395,-14,o),
(509,-14,cs)
);
}
);
width = 792;
}
);
metricLeft = "jjeCarrier-canadian";
metricRight = "jeCarrier-canadian";
note = uni1620;
unicode = 5664;
},
{
color = 9;
glyphname = "jjaCarrier-canadian";
lastChange = "2023-01-13 15:57:09 +0000";
layers = (
{
layerId = "9763B71A-4976-465B-BEF0-2F1E1DB14637";
shapes = (
{
closed = 1;
nodes = (
(463,-14,o),
(538,14,o),
(596,66,c),
(679,-14,l),
(781,93,l),
(681,189,l),
(704,243,o),
(717,308,o),
(717,384,cs),
(717,690,l),
(556,690,l),
(556,389,ls),
(556,213,o),
(496,130,o),
(381,130,cs),
(277,130,o),
(210,201,o),
(210,386,cs),
(210,536,o),
(240,575,o),
(282,575,cs),
(317,575,o),
(338,548,o),
(338,497,cs),
(338,442,o),
(316,415,o),
(276,415,cs),
(268,415,o),
(261,415,o),
(255,416,c),
(255,291,l),
(267,288,o),
(281,286,o),
(293,286,cs),
(399,286,o),
(477,362,o),
(477,490,cs),
(477,626,o),
(392,704,o),
(277,704,cs),
(147,704,o),
(56,601,o),
(56,383,cs),
(56,134,o),
(173,-14,o),
(379,-14,cs)
);
}
);
width = 793;
}
);
metricLeft = "=|jeCarrier-canadian";
metricRight = "=|jjeCarrier-canadian";
note = uni1621;
unicode = 5665;
},
{
color = 9;
glyphname = "luCarrier-canadian";
lastChange = "2023-01-13 15:57:09 +0000";
layers = (
{
layerId = "9763B71A-4976-465B-BEF0-2F1E1DB14637";
shapes = (
{
closed = 1;
nodes = (
(564,-14,o),
(674,102,o),
(674,307,cs),
(674,690,l),
(514,690,l),
(514,307,ls),
(514,188,o),
(464,130,o),
(373,130,cs),
(272,130,o),
(220,198,o),
(220,324,cs),
(220,462,o),
(273,551,o),
(389,561,c),
(389,690,l),
(52,690,l),
(52,557,l),
(237,557,l),
(358,613,l),
(161,596,o),
(61,497,o),
(61,298,cs),
(61,108,o),
(173,-14,o),
(366,-14,cs)
);
}
);
width = 730;
}
);
metricRight = "te-canadian";
note = uni1622;
unicode = 5666;
},
{
color = 9;
glyphname = "loCarrier-canadian";
lastChange = "2023-01-13 15:57:09 +0000";
layers = (
{
layerId = "9763B71A-4976-465B-BEF0-2F1E1DB14637";
shapes = (
{
closed = 1;
nodes = (
(216,0,l),
(216,383,ls),
(216,501,o),
(268,559,o),
(363,559,cs),
(459,559,o),
(510,492,o),
(510,366,cs),
(510,228,o),
(457,139,o),
(341,128,c),
(341,0,l),
(678,0,l),
(678,132,l),
(494,132,l),
(372,76,l),
(569,94,o),
(669,193,o),
(669,392,cs),
(669,582,o),
(557,704,o),
(364,704,cs),
(166,704,o),
(56,587,o),
(56,383,cs),
(56,0,l)
);
}
);
width = 730;
}
);
metricLeft = "te-canadian";
metricRight = "=|luCarrier-canadian";
note = uni1623;
unicode = 5667;
},
{
color = 9;
glyphname = "leCarrier-canadian";
lastChange = "2023-01-13 15:57:15 +0000";
layers = (
{
anchors = (
{
name = middle_center_can;
pos = (353,351);
}
);
layerId = "9763B71A-4976-465B-BEF0-2F1E1DB14637";
shapes = (
{
closed = 1;
nodes = (
(321,0,ls),
(543,0,o),
(671,125,o),
(671,357,cs),
(671,582,o),
(548,704,o),
(399,704,cs),
(288,704,o),
(213,642,o),
(191,559,c),
(202,562,l),
(202,690,l),
(59,690,l),
(59,374,l),
(194,374,l),
(203,498,o),
(268,559,o),
(355,559,cs),
(441,559,o),
(512,497,o),
(512,355,cs),
(512,210,o),
(442,144,o),
(315,144,cs),
(59,144,l),
(59,0,l)
);
}
);
width = 721;
}
);
metricRight = "theCarrier-canadian";
note = uni1624;
unicode = 5668;
},
{
color = 9;
glyphname = "laCarrier-canadian";
lastChange = "2023-01-13 15:57:09 +0000";
layers = (
{
layerId = "9763B71A-4976-465B-BEF0-2F1E1DB14637";
shapes = (
{
closed = 1;
nodes = (
(664,0,l),
(664,144,l),
(408,144,ls),
(280,144,o),
(210,210,o),
(210,355,cs),
(210,497,o),
(281,559,o),
(368,559,cs),
(455,559,o),
(520,498,o),
(528,374,c),
(664,374,l),
(664,690,l),
(520,690,l),
(520,562,l),
(530,559,l),
(509,642,o),
(435,704,o),
(324,704,cs),
(175,704,o),
(50,582,o),
(50,357,cs),
(50,125,o),
(179,0,o),
(402,0,cs)
);
}
);
width = 723;
}
);
metricLeft = "=|theCarrier-canadian";
metricRight = "=|leCarrier-canadian";
note = uni1627;
unicode = 5671;
},
{
color = 1;
glyphname = "dluCarrier-canadian";
lastChange = "2023-01-13 15:57:09 +0000";
layers = (
{
layerId = "9763B71A-4976-465B-BEF0-2F1E1DB14637";
shapes = (
{
closed = 1;
nodes = (
(557,-14,o),
(669,108,o),
(669,298,cs),
(669,454,o),
(608,549,o),
(491,589,c),
(462,569,l),
(654,569,l),
(654,493,l),
(770,493,l),
(770,766,l),
(654,766,l),
(654,690,l),
(341,690,l),
(341,561,l),
(457,551,o),
(510,462,o),
(510,324,cs),
(510,198,o),
(459,130,o),
(363,130,cs),
(268,130,o),
(216,188,o),
(216,307,cs),
(216,690,l),
(56,690,l),
(56,307,ls),
(56,102,o),
(166,-14,o),
(361,-14,cs)
);
}
);
width = 802;
}
);
metricLeft = "te-canadian";
note = uni1628;
unicode = 5672;
},
{
color = 9;
glyphname = "dloCarrier-canadian";
lastChange = "2023-01-13 15:57:09 +0000";
layers = (
{
layerId = "9763B71A-4976-465B-BEF0-2F1E1DB14637";
shapes = (
{
closed = 1;
nodes = (
(770,-76,l),
(770,197,l),
(654,197,l),
(654,121,l),
(462,121,l),
(491,100,l),
(608,141,o),
(669,236,o),
(669,392,cs),
(669,582,o),
(557,704,o),
(367,704,cs),
(160,704,o),
(56,587,o),
(56,383,cs),
(56,0,l),
(216,0,l),
(216,383,ls),
(216,501,o),
(267,559,o),
(363,559,cs),
(459,559,o),
(510,492,o),
(510,366,cs),
(510,228,o),
(457,139,o),
(341,128,c),
(341,0,l),
(654,0,l),
(654,-76,l)
);
}
);
width = 802;
}
);
metricLeft = "te-canadian";
metricRight = "dluCarrier-canadian";
note = uni1629;
unicode = 5673;
},
{
color = 9;
glyphname = "dleCarrier-canadian";
lastChange = "2023-01-13 15:57:09 +0000";
layers = (
{
anchors = (
{
name = middle_center_can;
pos = (367,351);
}
);
layerId = "9763B71A-4976-465B-BEF0-2F1E1DB14637";
shapes = (
{
closed = 1;
nodes = (
(335,0,ls),
(557,0,o),
(686,125,o),
(686,357,cs),
(686,582,o),
(562,704,o),
(412,704,cs),
(301,704,o),
(206,647,o),
(168,511,c),
(189,495,l),
(189,694,l),
(264,694,l),
(264,806,l),
(-2,806,l),
(-2,694,l),
(73,694,l),
(73,374,l),
(209,374,l),
(217,498,o),
(282,559,o),
(369,559,cs),
(456,559,o),
(526,497,o),
(526,355,cs),
(526,210,o),
(457,144,o),
(329,144,cs),
(73,144,l),
(73,0,l)
);
}
);
width = 736;
}
);
metricRight = "theCarrier-canadian";
note = uni162A;
unicode = 5674;
},
{
color = 9;
glyphname = "dlaCarrier-canadian";
lastChange = "2023-01-13 15:57:09 +0000";
layers = (
{
layerId = "9763B71A-4976-465B-BEF0-2F1E1DB14637";
shapes = (
{
closed = 1;
nodes = (
(664,0,l),
(664,144,l),
(408,144,ls),
(280,144,o),
(210,210,o),
(210,355,cs),
(210,497,o),
(281,559,o),
(367,559,cs),
(455,559,o),
(520,498,o),
(528,374,c),
(664,374,l),
(664,694,l),
(739,694,l),
(739,806,l),
(472,806,l),
(472,694,l),
(548,694,l),
(548,495,l),
(569,511,l),
(531,647,o),
(436,704,o),
(326,704,cs),
(174,704,o),
(50,582,o),
(50,357,cs),
(50,124,o),
(180,0,o),
(402,0,cs)
);
}
);
width = 737;
}
);
metricLeft = "=|theCarrier-canadian";
metricRight = "=|dleCarrier-canadian";
note = uni162D;
unicode = 5677;
},
{
color = 9;
glyphname = "lhuCarrier-canadian";
lastChange = "2023-01-13 15:57:15 +0000";
layers = (
{
layerId = "9763B71A-4976-465B-BEF0-2F1E1DB14637";
shapes = (
{
closed = 1;
nodes = (
(576,-14,o),
(688,112,o),
(688,301,cs),
(688,495,o),
(587,589,o),
(442,609,c),
(514,554,l),
(696,554,l),
(696,690,l),
(429,690,l),
(429,561,l),
(479,528,o),
(527,456,o),
(527,328,cs),
(527,197,o),
(476,130,o),
(374,130,cs),
(272,130,o),
(221,197,o),
(221,328,cs),
(221,456,o),
(270,528,o),
(320,561,c),
(320,690,l),
(52,690,l),
(52,554,l),
(235,554,l),
(306,609,l),
(161,589,o),
(61,495,o),
(61,301,cs),
(61,112,o),
(173,-14,o),
(374,-14,cs)
);
}
);
width = 748;
}
);
metricLeft = "luCarrier-canadian";
metricRight = "=|";
note = uni162E;
unicode = 5678;
},
{
color = 9;
glyphname = "lhoCarrier-canadian";
lastChange = "2023-01-13 15:57:15 +0000";
layers = (
{
layerId = "9763B71A-4976-465B-BEF0-2F1E1DB14637";
shapes = (
{
closed = 1;
nodes = (
(320,0,l),
(320,128,l),
(270,161,o),
(221,234,o),
(221,361,cs),
(221,493,o),
(272,559,o),
(374,559,cs),
(476,559,o),
(526,493,o),
(526,361,cs),
(526,234,o),
(479,161,o),
(429,128,c),
(429,0,l),
(696,0,l),
(696,135,l),
(514,135,l),
(442,81,l),
(587,100,o),
(688,195,o),
(688,388,cs),
(688,578,o),
(576,704,o),
(374,704,cs),
(172,704,o),
(61,578,o),
(61,388,cs),
(61,195,o),
(161,100,o),
(306,81,c),
(235,135,l),
(52,135,l),
(52,0,l)
);
}
);
width = 748;
}
);
metricLeft = "luCarrier-canadian";
metricRight = "=|";
note = uni162F;
unicode = 5679;
},
{
color = 9;
glyphname = "lheCarrier-canadian";
lastChange = "2023-01-13 15:57:09 +0000";
layers = (
{
anchors = (
{
name = middle_center_can;
pos = (367,345);
}
);
layerId = "9763B71A-4976-465B-BEF0-2F1E1DB14637";
shapes = (
{
closed = 1;
nodes = (
(566,-14,o),
(694,107,o),
(694,345,cs),
(694,582,o),
(566,704,o),
(409,704,cs),
(298,704,o),
(220,642,o),
(199,563,c),
(206,562,l),
(206,690,l),
(63,690,l),
(63,408,l),
(198,408,l),
(217,494,o),
(274,559,o),
(368,559,cs),
(458,559,o),
(533,498,o),
(533,345,cs),
(533,191,o),
(459,130,o),
(368,130,cs),
(274,130,o),
(217,196,o),
(198,282,c),
(63,282,l),
(63,0,l),
(206,0,l),
(206,128,l),
(199,127,l),
(220,47,o),
(298,-14,o),
(409,-14,cs)
);
}
);
width = 744;
}
);
metricLeft = "nunavuth-canadian";
metricRight = "theCarrier-canadian";
note = uni1630;
unicode = 5680;
},
{
color = 9;
glyphname = "lhaCarrier-canadian";
lastChange = "2023-01-13 15:57:09 +0000";
layers = (
{
layerId = "9763B71A-4976-465B-BEF0-2F1E1DB14637";
shapes = (
{
closed = 1;
nodes = (
(447,-14,o),
(524,47,o),
(546,127,c),
(538,128,l),
(538,0,l),
(682,0,l),
(682,282,l),
(547,282,l),
(526,196,o),
(470,130,o),
(376,130,cs),
(286,130,o),
(212,191,o),
(212,345,cs),
(212,498,o),
(285,559,o),
(376,559,cs),
(470,559,o),
(526,494,o),
(547,408,c),
(682,408,l),
(682,690,l),
(538,690,l),
(538,562,l),
(546,563,l),
(524,642,o),
(447,704,o),
(335,704,cs),
(178,704,o),
(50,582,o),
(50,345,cs),
(50,107,o),
(178,-14,o),
(335,-14,cs)
);
}
);
width = 745;
}
);
metricLeft = "=|theCarrier-canadian";
metricRight = "nunavuth-canadian";
note = uni1633;
unicode = 5683;
},
{
color = 9;
glyphname = "tlhuCarrier-canadian";
lastChange = "2023-01-13 15:57:09 +0000";
layers = (
{
layerId = "9763B71A-4976-465B-BEF0-2F1E1DB14637";
shapes = (
{
closed = 1;
nodes = (
(576,-14,o),
(688,112,o),
(688,301,cs),
(688,457,o),
(619,549,o),
(523,588,c),
(489,569,l),
(671,569,l),
(671,493,l),
(788,493,l),
(788,766,l),
(671,766,l),
(671,690,l),
(429,690,l),
(429,561,l),
(480,528,o),
(527,456,o),
(527,328,cs),
(527,197,o),
(476,130,o),
(374,130,cs),
(272,130,o),
(221,197,o),
(221,328,cs),
(221,456,o),
(269,528,o),
(320,561,c),
(320,690,l),
(52,690,l),
(52,554,l),
(238,554,l),
(200,578,l),
(116,533,o),
(61,445,o),
(61,301,cs),
(61,112,o),
(173,-14,o),
(374,-14,cs)
);
}
);
width = 815;
}
);
metricLeft = "lhuCarrier-canadian";
note = uni1634;
unicode = 5684;
},
{
color = 9;
glyphname = "tlhoCarrier-canadian";
lastChange = "2023-01-13 15:57:09 +0000";
layers = (
{
layerId = "9763B71A-4976-465B-BEF0-2F1E1DB14637";
shapes = (
{
closed = 1;
nodes = (
(144,-76,l),
(144,0,l),
(386,0,l),
(386,128,l),
(335,161,o),
(288,234,o),
(288,361,cs),
(288,493,o),
(339,559,o),
(440,559,cs),
(543,559,o),
(594,493,o),
(594,361,cs),
(594,234,o),
(546,161,o),
(496,128,c),
(496,0,l),
(763,0,l),
(763,135,l),
(578,135,l),
(615,112,l),
(699,156,o),
(754,244,o),
(754,388,cs),
(754,578,o),
(642,704,o),
(440,704,cs),
(239,704,o),
(128,578,o),
(128,388,cs),
(128,233,o),
(195,141,o),
(293,101,c),
(327,121,l),
(144,121,l),
(144,197,l),
(27,197,l),
(27,-76,l)
);
}
);
width = 815;
}
);
metricLeft = "=|tlhuCarrier-canadian";
metricRight = "lhuCarrier-canadian";
note = uni1635;
unicode = 5685;
},
{
color = 9;
glyphname = "tlheCarrier-canadian";
lastChange = "2023-01-13 15:57:09 +0000";
layers = (
{
anchors = (
{
name = middle_center_can;
pos = (377,345);
}
);
layerId = "9763B71A-4976-465B-BEF0-2F1E1DB14637";
shapes = (
{
closed = 1;
nodes = (
(578,-14,o),
(704,107,o),
(704,345,cs),
(704,582,o),
(578,704,o),
(420,704,cs),
(306,704,o),
(210,647,o),
(170,515,c),
(191,497,l),
(191,694,l),
(267,694,l),
(267,806,l),
(-2,806,l),
(-2,694,l),
(73,694,l),
(73,408,l),
(209,408,l),
(228,494,o),
(285,559,o),
(379,559,cs),
(469,559,o),
(544,501,o),
(544,345,cs),
(544,191,o),
(469,130,o),
(379,130,cs),
(285,130,o),
(228,196,o),
(209,282,c),
(73,282,l),
(73,0,l),
(216,0,l),
(216,178,l),
(205,146,l),
(218,58,o),
(300,-14,o),
(420,-14,cs)
);
}
);
width = 754;
}
);
metricLeft = "dleCarrier-canadian";
metricRight = "theCarrier-canadian";
note = uni1636;
unicode = 5686;
},
{
color = 9;
glyphname = "tlhaCarrier-canadian";
lastChange = "2023-01-13 15:57:09 +0000";
layers = (
{
layerId = "9763B71A-4976-465B-BEF0-2F1E1DB14637";
shapes = (
{
closed = 1;
nodes = (
(454,-14,o),
(537,57,o),
(550,147,c),
(538,178,l),
(538,0,l),
(682,0,l),
(682,282,l),
(547,282,l),
(526,196,o),
(470,130,o),
(376,130,cs),
(286,130,o),
(212,191,o),
(212,345,cs),
(212,501,o),
(285,559,o),
(376,559,cs),
(470,559,o),
(526,494,o),
(547,408,c),
(682,408,l),
(682,694,l),
(756,694,l),
(756,806,l),
(489,806,l),
(489,694,l),
(563,694,l),
(563,497,l),
(585,515,l),
(546,648,o),
(449,704,o),
(334,704,cs),
(178,704,o),
(50,582,o),
(50,345,cs),
(50,107,o),
(178,-14,o),
(334,-14,cs)
);
}
);
width = 754;
}
);
metricLeft = "=|theCarrier-canadian";
metricRight = "=|dleCarrier-canadian";
note = uni1639;
unicode = 5689;
},
{
color = 9;
glyphname = "tluCarrier-canadian";
lastChange = "2023-01-13 15:57:09 +0000";
layers = (
{
layerId = "9763B71A-4976-465B-BEF0-2F1E1DB14637";
shapes = (
{
closed = 1;
nodes = (
(369,-14,o),
(430,26,o),
(462,108,c),
(412,108,l),
(442,26,o),
(504,-14,o),
(588,-14,cs),
(733,-14,o),
(811,85,o),
(811,264,cs),
(811,440,o),
(753,545,o),
(639,590,c),
(607,569,l),
(796,569,l),
(796,493,l),
(912,493,l),
(912,766,l),
(796,766,l),
(796,690,l),
(491,690,l),
(491,561,l),
(599,556,o),
(651,462,o),
(651,278,cs),
(651,166,o),
(627,127,o),
(578,127,cs),
(537,127,o),
(514,161,o),
(514,227,cs),
(514,310,l),
(359,310,l),
(359,227,ls),
(359,161,o),
(335,127,o),
(296,127,cs),
(245,127,o),
(222,166,o),
(222,278,cs),
(222,462,o),
(273,556,o),
(382,561,c),
(382,690,l),
(53,690,l),
(53,554,l),
(246,554,l),
(210,578,l),
(112,528,o),
(62,428,o),
(62,264,cs),
(62,85,o),
(139,-14,o),
(284,-14,cs)
);
}
);
width = 939;
}
);
metricRight = "tlhuCarrier-canadian";
note = uni163A;
unicode = 5690;
},
{
color = 1;
glyphname = "tloCarrier-canadian";
lastChange = "2023-01-13 15:57:09 +0000";
layers = (
{
layerId = "9763B71A-4976-465B-BEF0-2F1E1DB14637";
shapes = (
{
closed = 1;
nodes = (
(912,-76,l),
(912,197,l),
(796,197,l),
(796,121,l),
(607,121,l),
(639,99,l),
(753,145,o),
(811,249,o),
(811,426,cs),
(811,605,o),
(733,704,o),
(588,704,cs),
(504,704,o),
(442,664,o),
(412,582,c),
(462,582,l),
(430,664,o),
(369,704,o),
(284,704,cs),
(139,704,o),
(62,605,o),
(62,426,cs),
(62,262,o),
(112,161,o),
(210,112,c),
(246,135,l),
(53,135,l),
(53,0,l),
(382,0,l),
(382,128,l),
(273,133,o),
(222,228,o),
(222,412,cs),
(222,524,o),
(245,563,o),
(296,563,cs),
(335,563,o),
(359,528,o),
(359,463,cs),
(359,380,l),
(514,380,l),
(514,463,ls),
(514,528,o),
(537,563,o),
(578,563,cs),
(627,563,o),
(651,524,o),
(651,412,cs),
(651,228,o),
(599,133,o),
(491,128,c),
(491,0,l),
(796,0,l),
(796,-76,l)
);
}
);
width = 939;
}
);
metricLeft = "tluCarrier-canadian";
metricRight = "tlhuCarrier-canadian";
note = uni163B;
unicode = 5691;
},
{
color = 9;
glyphname = "tleCarrier-canadian";
lastChange = "2023-01-13 15:57:09 +0000";
layers = (
{
anchors = (
{
name = middle_center_can;
pos = (312,345);
}
);
layerId = "9763B71A-4976-465B-BEF0-2F1E1DB14637";
shapes = (
{
closed = 1;
nodes = (
(611,-14,o),
(687,80,o),
(687,191,cs),
(687,273,o),
(637,343,o),
(560,365,c),
(560,326,l),
(639,343,o),
(687,412,o),
(687,498,cs),
(687,610,o),
(611,704,o),
(442,704,cs),
(311,704,o),
(205,644,o),
(171,522,c),
(189,498,l),
(189,694,l),
(264,694,l),
(264,806,l),
(-2,806,l),
(-2,694,l),
(73,694,l),
(73,408,l),
(208,408,l),
(219,501,o),
(278,561,o),
(403,561,cs),
(488,561,o),
(527,530,o),
(527,479,cs),
(527,434,o),
(500,411,o),
(440,411,cs),
(400,411,l),
(400,280,l),
(440,280,ls),
(501,280,o),
(527,256,o),
(527,211,cs),
(527,159,o),
(487,128,o),
(403,128,cs),
(278,128,o),
(219,188,o),
(208,282,c),
(73,282,l),
(73,0,l),
(216,0,l),
(216,161,l),
(194,135,l),
(233,29,o),
(321,-14,o),
(442,-14,cs)
);
}
);
width = 746;
}
);
metricLeft = "dleCarrier-canadian";
metricRight = "geCarrier-canadian";
note = uni163C;
unicode = 5692;
},
{
color = 9;
glyphname = "tlaCarrier-canadian";
lastChange = "2023-01-13 15:57:09 +0000";
layers = (
{
layerId = "9763B71A-4976-465B-BEF0-2F1E1DB14637";
shapes = (
{
closed = 1;
nodes = (
(425,-14,o),
(513,29,o),
(552,135,c),
(528,161,l),
(528,0,l),
(672,0,l),
(672,282,l),
(538,282,l),
(526,188,o),
(468,128,o),
(343,128,cs),
(259,128,o),
(218,159,o),
(218,211,cs),
(218,256,o),
(244,280,o),
(305,280,cs),
(349,280,l),
(349,411,l),
(305,411,ls),
(245,411,o),
(218,434,o),
(218,479,cs),
(218,530,o),
(258,561,o),
(343,561,cs),
(468,561,o),
(526,501,o),
(538,408,c),
(672,408,l),
(672,694,l),
(748,694,l),
(748,806,l),
(481,806,l),
(481,694,l),
(556,694,l),
(556,498,l),
(575,522,l),
(541,644,o),
(435,704,o),
(303,704,cs),
(134,704,o),
(59,610,o),
(59,499,cs),
(59,412,o),
(107,344,o),
(185,326,c),
(185,365,l),
(109,343,o),
(59,273,o),
(59,191,cs),
(59,80,o),
(134,-14,o),
(303,-14,cs)
);
}
);
width = 746;
}
);
metricLeft = "=|geCarrier-canadian";
metricRight = "=|dleCarrier-canadian";
note = uni163F;
unicode = 5695;
},
{
color = 9;
glyphname = "zuCarrier-canadian";
lastChange = "2023-01-13 15:57:15 +0000";
layers = (
{
layerId = "9763B71A-4976-465B-BEF0-2F1E1DB14637";
shapes = (
{
closed = 1;
nodes = (
(576,-14,o),
(688,86,o),
(688,238,cs),
(688,344,o),
(618,459,o),
(618,508,cs),
(618,536,o),
(633,553,o),
(668,553,cs),
(697,553,l),
(697,690,l),
(634,690,ls),
(513,690,o),
(462,624,o),
(462,533,cs),
(462,447,o),
(527,352,o),
(527,264,cs),
(527,180,o),
(476,130,o),
(375,130,cs),
(272,130,o),
(221,180,o),
(221,264,cs),
(221,352,o),
(287,447,o),
(287,533,cs),
(287,624,o),
(236,690,o),
(115,690,cs),
(51,690,l),
(51,553,l),
(80,553,ls),
(116,553,o),
(131,536,o),
(131,508,cs),
(131,459,o),
(61,344,o),
(61,238,cs),
(61,86,o),
(173,-14,o),
(375,-14,cs)
);
}
);
width = 748;
}
);
metricRight = "=|";
note = uni1640;
unicode = 5696;
},
{
color = 9;
glyphname = "zoCarrier-canadian";
lastChange = "2023-01-13 15:57:15 +0000";
layers = (
{
layerId = "9763B71A-4976-465B-BEF0-2F1E1DB14637";
shapes = (
{
closed = 1;
nodes = (
(115,0,ls),
(236,0,o),
(288,66,o),
(288,156,cs),
(288,242,o),
(222,338,o),
(222,426,cs),
(222,510,o),
(272,559,o),
(375,559,cs),
(477,559,o),
(527,510,o),
(527,426,cs),
(527,338,o),
(462,242,o),
(462,156,cs),
(462,66,o),
(514,0,o),
(634,0,cs),
(697,0,l),
(697,137,l),
(668,137,ls),
(633,137,o),
(618,154,o),
(618,182,cs),
(618,231,o),
(688,346,o),
(688,452,cs),
(688,604,o),
(577,704,o),
(375,704,cs),
(173,704,o),
(62,604,o),
(62,452,cs),
(62,346,o),
(131,231,o),
(131,182,cs),
(131,154,o),
(116,137,o),
(81,137,cs),
(51,137,l),
(51,0,l)
);
}
);
width = 748;
}
);
metricLeft = "zuCarrier-canadian";
metricRight = "zuCarrier-canadian";
note = uni1641;
unicode = 5697;
},
